<?xml version="1.0" encoding="UTF-8" standalone="no"?>
<!-- Created with Inkscape (http://www.inkscape.org/) -->

<svg
   xmlns:dc="http://purl.org/dc/elements/1.1/"
   xmlns:cc="http://creativecommons.org/ns#"
   xmlns:rdf="http://www.w3.org/1999/02/22-rdf-syntax-ns#"
   xmlns:svg="http://www.w3.org/2000/svg"
   xmlns="http://www.w3.org/2000/svg"
   xmlns:sodipodi="http://sodipodi.sourceforge.net/DTD/sodipodi-0.dtd"
   xmlns:inkscape="http://www.inkscape.org/namespaces/inkscape"
   width="210mm"
   height="297mm"
   viewBox="0 0 744.09448819 1052.3622047"
   id="svg4387"
   version="1.1"
   inkscape:version="0.91 r13725"
   sodipodi:docname="invader.svg">
  <defs
     id="defs4389" />
  <sodipodi:namedview
     id="base"
     pagecolor="#ffffff"
     bordercolor="#666666"
     borderopacity="1.0"
     inkscape:pageopacity="0.0"
     inkscape:pageshadow="2"
     inkscape:zoom="0.7"
     inkscape:cx="-1358.2136"
     inkscape:cy="808.02875"
     inkscape:document-units="px"
     inkscape:current-layer="layer1"
     showgrid="true"
     guidetolerance="10000"
     inkscape:snap-bbox="true"
     inkscape:snap-global="true"
     inkscape:object-nodes="true"
     inkscape:window-width="1920"
     inkscape:window-height="1005"
     inkscape:window-x="-9"
     inkscape:window-y="-9"
     inkscape:window-maximized="1">
    <inkscape:grid
       type="xygrid"
       id="grid4935"
       spacingx="10"
       spacingy="10" />
  </sodipodi:namedview>
  <metadata
     id="metadata4392">
    <rdf:RDF>
      <cc:Work
         rdf:about="">
        <dc:format>image/svg+xml</dc:format>
        <dc:type
           rdf:resource="http://purl.org/dc/dcmitype/StillImage" />
        <dc:title></dc:title>
      </cc:Work>
    </rdf:RDF>
  </metadata>
  <g
     inkscape:label="Layer 1"
     inkscape:groupmode="layer"
     id="layer1">
    <path
       id="rect4937-5-4"
       style="opacity:1;fill:#00ca00;fill-opacity:1;stroke:none;stroke-width:0;stroke-miterlimit:4;stroke-dasharray:none;stroke-opacity:1"
       d="m -1150,352.36221 50,0 0,50 -50,0 z m -300,0 50,0 0,50 -50,0 z m 250,-50 50,0 0,50 -50,0 z m -200,0 50,0 0,50 -50,0 z m -50,-50 350,0 0,50 -350,0 z m 350,-49.99998 50,0 0,50 -50,0 z m -50,-2e-5 50,0 0,50 -50,0 z m -300,2e-5 50,0 0,50 -50,0 z m -50,-2e-5 50,0 0,50 -50,0 z m 150,0 150,0 0,50 -150,0 z m 200,-149.999985 50,0 0,49.999995 -50,0 z m -50,-50.0000009 50,0 0,49.9999999 -50,0 z m -50,-3.8e-6 50,0 0,49.9999997 -50,0 z m 200,100.0000097 50,0 0,50 -50,0 z m 0,-50.000002 50,0 0,50.000002 -50,0 z m -500,49.999992 50,0 0,50 -50,0 z m 0,-49.999995 50,0 0,49.999995 -50,0 z m 0,100.000045 550,0 0,50 -550,0 z m 150,-50.00004 300,0 0,50 -300,0 z m -50,-1e-5 50,0 0,50 -50,0 z m 0,-49.999995 50,0 0,49.999995 -50,0 z m 100,-49.9999983 50,0 0,50.0000003 -50,0 z m -50,-2.6e-6 50,0 0,49.9999999 -50,0 z" />
  </g>
</svg>
