<?xml version="1.0" encoding="UTF-8" standalone="no"?>
<!-- Created with Inkscape (http://www.inkscape.org/) -->

<svg
   xmlns:dc="http://purl.org/dc/elements/1.1/"
   xmlns:cc="http://creativecommons.org/ns#"
   xmlns:rdf="http://www.w3.org/1999/02/22-rdf-syntax-ns#"
   xmlns:svg="http://www.w3.org/2000/svg"
   xmlns="http://www.w3.org/2000/svg"
   xmlns:sodipodi="http://sodipodi.sourceforge.net/DTD/sodipodi-0.dtd"
   xmlns:inkscape="http://www.inkscape.org/namespaces/inkscape"
   width="210mm"
   height="297mm"
   viewBox="0 0 744.09448819 1052.3622047"
   id="svg2"
   version="1.1"
   inkscape:version="0.91 r13725"
   sodipodi:docname="blue_ghost.svg">
  <defs
     id="defs4">
    <style
       id="style4140"
       type="text/css"><![CDATA[

.g3_1{
fill: #FFFFFF;
stroke: #FCFCFC;
stroke-width: 2;
stroke-linecap: butt;
stroke-linejoin: miter;
stroke-miterlimit: 4;
}
.g6_1{
fill: #000102;
stroke: #000000;
stroke-width: 2;
stroke-linecap: butt;
stroke-linejoin: miter;
stroke-miterlimit: 4;
}
.g8_1{
fill: #4DB9F9;
}
.g2_1{
fill: #4DB9F9;
stroke: #000102;
stroke-width: 2;
stroke-linecap: butt;
stroke-linejoin: miter;
stroke-miterlimit: 4;
}
.g1_1{
stroke: #000102;
stroke-width: 2;
stroke-linecap: butt;
stroke-linejoin: miter;
stroke-miterlimit: 4;
}
.g5_1{
fill: #4DB9F9;
stroke: #FCFCFC;
stroke-width: 2;
stroke-linecap: butt;
stroke-linejoin: miter;
stroke-miterlimit: 4;
}
.g4_1{
stroke: #000000;
stroke-width: 2;
stroke-linecap: butt;
stroke-linejoin: miter;
stroke-miterlimit: 4;
}
.g7_1{
fill: #4DB9F9;
stroke: #4DB9F9;
stroke-width: 2;
stroke-linecap: butt;
stroke-linejoin: miter;
stroke-miterlimit: 4;
}
.g10_1{
}
.g9_1{
fill: #FFFFFF;
}


]]></style>
  </defs>
  <sodipodi:namedview
     id="base"
     pagecolor="#ffffff"
     bordercolor="#666666"
     borderopacity="1.0"
     inkscape:pageopacity="0.0"
     inkscape:pageshadow="2"
     inkscape:zoom="0.9899495"
     inkscape:cx="603.64672"
     inkscape:cy="514.02803"
     inkscape:document-units="px"
     inkscape:current-layer="g4225"
     showgrid="false"
     inkscape:window-width="1920"
     inkscape:window-height="1005"
     inkscape:window-x="-9"
     inkscape:window-y="-9"
     inkscape:window-maximized="1" />
  <metadata
     id="metadata7">
    <rdf:RDF>
      <cc:Work
         rdf:about="">
        <dc:format>image/svg+xml</dc:format>
        <dc:type
           rdf:resource="http://purl.org/dc/dcmitype/StillImage" />
        <dc:title />
      </cc:Work>
    </rdf:RDF>
  </metadata>
  <g
     inkscape:label="Layer 1"
     inkscape:groupmode="layer"
     id="layer1">
    <g
       style="display:block"
       id="g4225"
       transform="translate(-1014.5,-64.92351)">
      <g
         id="g4247"
         inkscape:export-xdpi="77.571922"
         inkscape:export-ydpi="77.571922">
        <g
           style="stroke:#ffffff;stroke-opacity:1;stroke-width:12;stroke-miterlimit:4;stroke-dasharray:none;stroke-linejoin:round"
           id="g4172"
           transform="translate(752.56365,-431.33514)">
          <path
             style="stroke:#ffffff;stroke-width:12;stroke-linecap:butt;stroke-linejoin:round;stroke-miterlimit:4;stroke-opacity:1;stroke-dasharray:none"
             inkscape:connector-curvature="0"
             d="m 375,1178.3 c 39.9,-22.6 52.4,10.9 52.4,10.9 26.5,43.6 60.1,7.8 60.1,7.8 l 27.4,-18 c 34.4,-25.7 41.4,7.8 41.4,7.8 13.3,30.4 37.5,2.4 37.5,2.4 37.5,-39 39.9,-24.2 45.3,-12.5 5.5,11.7 29.7,21.8 44.6,-15.6 14.8,-37.4 54.7,-166 54.7,-166 3.1,-29.6 -3.9,-36.6 -14.9,-38.9 0,0 3.1,-85.8 -15.6,-106 15.6,-5.5 18,-0.8 18,-0.8 0,0 -3.9,-24.1 -47.7,-17.9 22.7,-22.6 35.2,-14.8 35.2,-14.8 0,0 -36,-38.2 -88.3,7 -39.9,-22.6 -48.5,-14.8 -48.5,-14.8 0,0 10.2,3.1 11.7,17.9 0,0 -53.9,12.5 -92.2,88.1 0,0 -20.3,-2.4 -46.9,47.5 l -31.2,118.4 -47.7,88.9 c -6.2,22.6 4.7,8.6 4.7,8.6 z"
             class="g1_1"
             id="path4175" />
          <path
             style="fill:#4db9f9;stroke:#ffffff;stroke-width:12;stroke-linecap:butt;stroke-linejoin:round;stroke-miterlimit:4;stroke-opacity:1;stroke-dasharray:none"
             inkscape:connector-curvature="0"
             d="m 721.9,954.9 c 0,0 3,-84.1 -15.3,-103.9 15.3,-5.4 17.6,-0.8 17.6,-0.8 0,0 -3.9,-23.7 -46.6,-17.6 22.1,-22.1 34.3,-14.5 34.3,-14.5 0,0 -35.1,-37.4 -86.3,6.9 -38.9,-22.2 -47.3,-14.5 -47.3,-14.5 0,0 9.9,3 11.4,17.6 0,0 -63,21.7 -101.6,116.4 0,0 -4.2,-4.9 6.6,-29.3 -7.4,2.3 -22.6,11.3 -40.9,45.8 l -30.6,116.1 -46.6,87.1 c -6.1,22.1 4.6,8.4 4.6,8.4 38.9,-22.2 51.2,10.7 51.2,10.7 25.9,42.7 58.8,7.6 58.8,7.6 l 26.7,-17.6 c 33.6,-25.2 40.5,7.7 40.5,7.7 13,29.8 36.7,2.3 36.7,2.3 36.6,-38.2 38.9,-23.7 44.3,-12.3 5.3,11.5 29,21.4 43.5,-15.2 14.5,-36.7 53.5,-162.7 53.5,-162.7 3,-29.1 -3.8,-35.9 -14.5,-38.2 M 647.4,847.5 c 1.5,7.7 0,17.6 0,17.6 -2.3,-20.2 -16,-5.7 -30.2,13 0,0 15.7,-50 30.2,-30.6 m -16.8,188.3 c -6.5,-0.3 -5.7,0.4 -19.1,2.7 -13.4,2.3 -21.8,-4.2 -24.1,-8.8 -2.3,-4.6 1.2,-8 4.2,-3.8 8.1,12.2 11.5,7.6 19.5,8 8,0.4 15.3,-3 19.9,-2.3 4.6,0.8 3.4,4.2 -0.4,4.2 m 32.8,-13.7 -6.8,-2.3 c -18.4,-9.6 -22.2,-4.6 -42.1,-1.9 -19.8,2.7 -37,-9.6 -38.5,-13.8 -1.6,-4.2 -5.8,-4.2 -6.5,-2.6 -0.8,1.5 -5,4.5 -6.1,-0.4 -1.2,-5 4.6,-10.7 7.6,-9.2 3.1,1.5 5,0 8.4,-0.8 3.4,-0.7 6.1,2.7 0.4,4.6 -5.7,1.9 -5.7,-0.4 -2.3,4.6 15.3,18.3 42.8,9.9 54.6,9.6 11.9,-0.4 15.7,3 20.6,5.7 5,2.7 6.5,1.1 10.4,1.5 3.8,0.4 4.2,5 0.3,5 m 38.2,-126.1 -1.1,0 c 0,-46.2 -23.7,-24.4 -23.7,-24.4 0,0 29,-58.1 24.8,24.4 z"
             class="g2_1"
             id="path4177" />
          <path
             style="fill:#ffffff;stroke:#ffffff;stroke-width:12;stroke-linecap:butt;stroke-linejoin:round;stroke-miterlimit:4;stroke-opacity:1;stroke-dasharray:none"
             inkscape:connector-curvature="0"
             d="m 596.2,1027.8 c 1.9,1.9 9.2,4.6 16.8,1.9 3.1,-1.1 3.1,-1.1 3.1,-1.1 0,0 -14.2,-0.8 -17.2,-3.1 -3.1,-2.3 -3.8,1.2 -2.7,2.3 z"
             class="g3_1"
             id="path4179" />
          <path
             style="stroke:#ffffff;stroke-width:12;stroke-linecap:butt;stroke-linejoin:round;stroke-miterlimit:4;stroke-opacity:1;stroke-dasharray:none"
             inkscape:connector-curvature="0"
             d="m 466.7,1075.2 c 8.8,2.6 17.2,4.2 33.3,-8.8 7.2,-8.8 11.4,-5.7 23.6,-5.4 12.3,0.4 35.9,-15.6 18,-48.8 -10.7,-20.3 -30.9,-2.3 -30.9,-2.3 0,0 -8.8,5.7 -10.7,5.7 l -1.2,-2.3 c 0,0 -6.9,0.8 -9.1,-26.4 -6.9,-26.7 -10,-27.1 -16.1,-39.3 -9.9,-16.8 -40.9,-9.9 -46.2,-3.8 -12.2,12.2 -11.8,23.7 -11.8,23.7 0,0 -25.6,-2.3 -39.4,21 -6.9,11 0.8,21.4 5,27.5 1.9,2.3 1.9,4.9 -0.8,6.8 -47.7,26.4 -4.6,60.4 19.1,36.7 3.1,-3.4 4.6,-0.4 5.7,1.2 1.2,1.5 8.8,11 8.8,11 0,0 5.8,8.1 16.1,11.5 10.3,3.4 24.4,-5 25.9,-6.9 3.5,-6.5 10.7,-1.1 10.7,-1.1 z"
             class="g4_1"
             id="path4181" />
          <path
             style="fill:#ffffff;stroke:#ffffff;stroke-width:12;stroke-linecap:butt;stroke-linejoin:round;stroke-miterlimit:4;stroke-opacity:1;stroke-dasharray:none"
             inkscape:connector-curvature="0"
             d="m 442.7,1063 c 7.6,-0.4 10.7,-0.4 22.1,5.7 11.5,6.1 16.8,4.6 25.6,-3.1 8.8,-7.6 12.6,-12.6 27.5,-10.7 27.9,2.3 27.9,-27.9 19.9,-37.8 -8,-9.9 -13.4,-9.1 -24.8,-3 -11.5,6.1 -14.6,6.5 -14.6,6.5 -2.3,0 -1.1,-3.1 0,-3.5 l -1.9,-2.3 c 0,0 -4.6,1.9 -7.6,-10.3 -3.1,-12.2 -10.7,-47.3 -20.6,-52.7 -6.5,-7.6 -20.7,-13.7 -38.6,-2.3 -25.6,23.3 8.4,41.6 21,29.8 3.1,-2.7 6.9,0.8 3.4,3.8 -3.4,3.1 -4.6,4.2 -6.5,4.2 0,0 4.6,4.6 4.6,8.4 0,0 4.6,-1.5 8.8,-1.1 -7.2,3 -15.3,9.9 -15.3,9.9 -1.9,1.2 -2.6,-1.9 -0.7,-3.4 1.9,-1.6 6.1,-11.5 -10.3,-13 -16.5,-1.5 -18.8,-15.7 -18.8,-15.7 0,0 -21.7,-8.4 -37,21.8 -7.3,16.4 22.9,40.1 38.6,9.9 2.3,-5.3 3,-4.2 2.6,0.4 -0.3,4.6 5.4,14.9 17.2,2.3 2.7,-1.9 3.5,0 0.4,3.4 -3,3.5 -16.4,10 -22.1,30.2 -0.8,3.1 -2.7,4.2 -2.3,-2.7 0.3,-6.8 4.5,-10.3 4.5,-10.3 0,0 1.2,-8.4 -11.4,-6.5 -11.9,4.2 -22.5,3.1 -22.5,3.1 -10.7,4.2 -30.6,22.5 -14.9,34.4 16.8,12.6 32,-10.3 32,-13 0,-2.7 1.2,-3.8 3.5,3 8.4,5 11.8,15.7 11.8,15.7 3.1,8 9.6,10.3 12.6,11.1 3.1,0.7 8.8,4.9 22.6,-4.2 5.3,-0.8 3,-0.4 3,-0.4 0,0 2.7,-1.5 -2.3,-3.1 -4.9,-1.5 -9.5,-4.5 -9.5,-4.5 z"
             class="g3_1"
             id="path4183" />
          <path
             style="fill:#4db9f9;stroke:#ffffff;stroke-width:12;stroke-linecap:butt;stroke-linejoin:round;stroke-miterlimit:4;stroke-opacity:1;stroke-dasharray:none"
             inkscape:connector-curvature="0"
             d="m 430.8,1061.4 c -4.9,-3.4 -14.5,-3.8 -4.9,5.8 9.5,9.5 25.9,0.7 25.9,0.7 l -6.1,-2.7 -2.3,-0.3 c 0,0 -12.9,-0.4 -12.6,-3.5 z"
             class="g5_1"
             id="path4185" />
          <path
             style="fill:#000102;stroke:#ffffff;stroke-width:12;stroke-linecap:butt;stroke-linejoin:round;stroke-miterlimit:4;stroke-opacity:1;stroke-dasharray:none"
             inkscape:connector-curvature="0"
             d="m 442.3,1033.9 c 4.5,1.1 6.9,-1.1 8.8,3.5 2.7,0.7 5.7,0 4.6,-3.9 1.5,-6.5 12.9,-8.7 24,-8.7 11.1,0 5.8,-2 13.8,-2 3,-0.3 1.5,-1.9 -1.2,-1.9 -21.4,-1.5 -29,1.2 -34.7,5.8 -5,3 -14.2,2.6 -14.2,2.6 0,0 -6.1,3.5 -1.1,4.6 z"
             class="g6_1"
             id="path4187" />
          <path
             style="fill:#ffffff;stroke:#ffffff;stroke-width:12;stroke-linecap:butt;stroke-linejoin:round;stroke-miterlimit:4;stroke-opacity:1;stroke-dasharray:none"
             inkscape:connector-curvature="0"
             d="m 411,1015.2 c 4.9,0 10.7,1.5 10.7,1.5 2.3,0.8 0.7,2.7 -0.8,2.3 -1.5,-0.4 -7.3,-1.5 -7.3,-1.5 -4.2,-0.4 0,-2.3 0,-2.3 z"
             class="g3_1"
             id="path4189" />
          <path
             style="fill:#4db9f9;stroke:#ffffff;stroke-width:12;stroke-linecap:butt;stroke-linejoin:round;stroke-miterlimit:4;stroke-opacity:1;stroke-dasharray:none"
             inkscape:connector-curvature="0"
             d="m 507.2,1046.9 c 16.4,4.2 30.6,1.2 28.3,-11.1 -2.3,-12.2 -8.4,-9.5 -9.9,-3 -2,15.6 -18.4,14.1 -18.4,14.1 z"
             class="g7_1"
             id="path4191" />
          <path
             style="fill:#4db9f9;stroke:#ffffff;stroke-opacity:1;stroke-width:12;stroke-miterlimit:4;stroke-dasharray:none;stroke-linejoin:round"
             inkscape:connector-curvature="0"
             d="m 426.6,967.1 c 4.6,13 19.9,10.7 24.1,6.5 8,-11.1 1.1,-2.7 -3.8,-2.7 -5,0 -12.6,0.8 -17.2,-6.9 -4.6,-7.6 -3.1,3.1 -3.1,3.1 z"
             class="g8_1"
             id="path4193" />
          <path
             style="fill:#4db9f9;stroke:#ffffff;stroke-width:12;stroke-linecap:butt;stroke-linejoin:round;stroke-miterlimit:4;stroke-opacity:1;stroke-dasharray:none"
             inkscape:connector-curvature="0"
             d="m 456.4,982 c 1.9,-2.3 12.2,6.1 14.5,10.3 -3.8,0.8 -8,-1.2 -12.6,2.7 l -6.1,0.7 c 0,0 -2.3,-6.5 -4.6,-8.4 -1.5,-1.1 6.9,-3 8.8,-5.3 z"
             class="g5_1"
             id="path4195" />
          <path
             style="fill:#4db9f9;stroke:#ffffff;stroke-opacity:1;stroke-width:12;stroke-miterlimit:4;stroke-dasharray:none;stroke-linejoin:round"
             inkscape:connector-curvature="0"
             d="m 385.8,1009.1 c 8.4,7.3 18.3,6.1 23.6,-1.1 10.7,-14.9 -2.2,-0.4 -4.9,-2 -3.8,-0.3 -7.7,2.7 -15.7,-1.9 -6.9,-2.6 -3,5 -3,5 z"
             class="g8_1"
             id="path4197" />
          <path
             style="fill:#4db9f9;stroke:#ffffff;stroke-width:12;stroke-linecap:butt;stroke-linejoin:round;stroke-miterlimit:4;stroke-opacity:1;stroke-dasharray:none"
             inkscape:connector-curvature="0"
             d="m 434.7,1006.8 c -3.6,-3.4 -11.7,-3.8 -13.5,-2.3 -1.7,1.5 0.7,4.6 0.7,4.6 l 2.9,3.1 3.1,0.7 3.2,-0.4 2.5,-1.9 1.1,-3.8 z"
             class="g7_1"
             id="path4199" />
          <path
             style="fill:#4db9f9;stroke:#ffffff;stroke-opacity:1;stroke-width:12;stroke-miterlimit:4;stroke-dasharray:none;stroke-linejoin:round"
             inkscape:connector-curvature="0"
             d="m 370.1,1053 c 8,5.4 17.6,8.8 26,-3.8 8.4,-12.6 0.4,-1.9 -7.3,-1.5 -7.6,0.4 -14.9,1.5 -16.8,0.7 -4.2,-0.7 -1.9,4.6 -1.9,4.6 z"
             class="g8_1"
             id="path4201" />
          <path
             style="fill:#4db9f9;stroke:#ffffff;stroke-opacity:1;stroke-width:12;stroke-miterlimit:4;stroke-dasharray:none;stroke-linejoin:round"
             inkscape:connector-curvature="0"
             d="m 414,1030.9 c 0,0 -10.7,3 -11.8,11.4 4.6,5.8 2.7,6.5 2.7,6.5 l 4.2,2.7 c 0,0 0.3,-8 3.8,-9.6 l 1.1,-11 z"
             class="g8_1"
             id="path4203" />
          <path
             style="stroke:#ffffff;stroke-width:12;stroke-linecap:butt;stroke-linejoin:round;stroke-miterlimit:4;stroke-opacity:1;stroke-dasharray:none"
             inkscape:connector-curvature="0"
             d="m 720.9,1113 c 0,0 -0.3,3.3 0.2,12.2 5.6,26 55.3,30.6 56.3,1.3 l 0.2,-11.5 c 39.8,-12.2 15.3,-50.6 11.8,-51.2 0,0 -1.3,-6.8 0.5,-10.4 28.5,-10.7 25.2,-47.1 7.6,-50.7 -17.6,-3.5 -33.9,-0.5 -33.9,-0.5 9.7,-45.3 -29.8,-48.1 -51.4,-16.5 -6.4,13 -6.9,22.4 -6.9,22.4 -5.6,19.3 -8.6,21.1 -8.6,21.1 -5.9,25 -2.8,32.1 -2.6,33.9 0.3,1.8 0.5,5.8 -1,7.1 -1.5,11 0.5,27 5.1,33.4 2.3,2.8 0,3.8 0.8,5.3 0.7,1.5 20.8,5.4 21.9,4.1 z"
             class="g4_1"
             id="path4205" />
          <path
             style="fill:#ffffff;stroke:#ffffff;stroke-opacity:1;stroke-width:12;stroke-miterlimit:4;stroke-dasharray:none;stroke-linejoin:round"
             inkscape:connector-curvature="0"
             d="m 747.3,1032.8 c -2.3,1 -1.5,1.5 -1.5,1.5 0,0 -2.8,1.1 -4.6,0.8 -2.5,-0.5 -11.2,-12 -11.2,-12 30.3,-11.2 30.8,-23.9 30.8,-23.9 0,0 2.6,-15.3 -1,-20.1 -6.1,-13.8 -21.6,-5.9 -21.6,-5.9 -24.2,7.6 -26.8,30.3 -26.8,30.3 -1.5,19.6 -9.1,28.5 -11.7,38.4 -2.5,10 -1.8,23 6.1,37 -4,1.5 -8.1,-3.6 -8.1,-3.6 -0.5,20.4 -1.5,32.8 24.9,31.8 17.1,-34.3 19.1,-36.6 44.1,-42 l 0.2,-12.2 c -18.5,-7.6 -18.5,-11.2 -19.6,-20.1 m -6.6,28 c 0,0 -1,5.6 -1.3,9.2 -0.2,1 -3,2 -3,0.2 0,-1.8 -0.8,-4.6 -3.6,-5.6 -2.8,-1 -2.3,-3.8 -0.5,-4.1 1.8,-0.2 5.3,-4.7 6.4,-9.1 0.5,-2.1 3,-2.1 3,0.7 0,0 0.3,5.6 -1,8.7 z"
             class="g9_1"
             id="path4207" />
          <path
             style="fill:#4db9f9;stroke:#ffffff;stroke-opacity:1;stroke-width:12;stroke-miterlimit:4;stroke-dasharray:none;stroke-linejoin:round"
             inkscape:connector-curvature="0"
             d="m 708.4,1091.9 c -3.6,-1.1 -6.4,0.2 -1.3,6.8 5.1,6.6 14.8,8.7 14.8,8.7 0,0 1.8,-13.8 15.8,-14.5 0,0 -0.8,-13 3.8,-16.6 0.5,-2.5 -4.3,-2.3 -6.1,1 -10,18.4 -27,14.6 -27,14.6 z"
             class="g8_1"
             id="path4209" />
          <path
             style="fill:#4db9f9;stroke:#ffffff;stroke-opacity:1;stroke-width:12;stroke-miterlimit:4;stroke-dasharray:none;stroke-linejoin:round"
             inkscape:connector-curvature="0"
             d="m 748.6,1040.4 c 0.5,10.2 9.9,15.3 9.9,15.3 0,0 5.1,1 7.4,0 2.1,-0.5 1.6,-1.5 0.3,-3.8 -11.2,-2.6 -17.6,-11.5 -17.6,-11.5 z"
             class="g8_1"
             id="path4211" />
          <path
             style="fill:#4db9f9;stroke:#ffffff;stroke-opacity:1;stroke-width:12;stroke-miterlimit:4;stroke-dasharray:none;stroke-linejoin:round"
             inkscape:connector-curvature="0"
             d="m 746.8,1032.5 c 0,0 -2.5,-7.9 -3.8,-8.4 -6.4,2.8 -11.7,0 -12.5,-1 -5.3,1.3 -14.5,-2.5 -14.5,-2.5 0,0 8.4,15 28.8,15 l 2,-3.1 z"
             class="g8_1"
             id="path4213" />
          <path
             style="fill:#4db9f9;stroke:#ffffff;stroke-opacity:1;stroke-width:12;stroke-miterlimit:4;stroke-dasharray:none;stroke-linejoin:round"
             inkscape:connector-curvature="0"
             d="m 733.6,1018.3 c 14.5,-6.7 21.9,-14 24.2,-31.1 0.5,-4.3 -5.4,-5.6 -8.2,2 -3.5,14.3 -14,23.7 -16.5,25.2 -2.6,1.6 -3.8,4.4 -1,4.1 l 1.5,-0.2 z"
             class="g8_1"
             id="path4215" />
          <path
             style="fill:#ffffff;stroke:#ffffff;stroke-opacity:1;stroke-width:12;stroke-miterlimit:4;stroke-dasharray:none;stroke-linejoin:round"
             inkscape:connector-curvature="0"
             d="m 731.3,1101.3 c -3.1,3.5 -8.7,10.7 -2.5,25.2 6.1,14.5 37.1,21.9 44,-0.5 3.1,-11 0.5,-11.2 0.5,-11.2 0,0 -30.8,-2.6 -34.1,-14.3 -4.1,-3.8 -7.9,0.8 -7.9,0.8 z"
             class="g9_1"
             id="path4217" />
          <path
             style="fill:#4db9f9;stroke:#ffffff;stroke-opacity:1;stroke-width:12;stroke-miterlimit:4;stroke-dasharray:none;stroke-linejoin:round"
             inkscape:connector-curvature="0"
             d="m 733.6,1122.4 c 6.6,9.2 26.5,24.2 40.5,-3.6 l 0.5,-4.3 -7.4,-0.5 c -4.1,15.8 -33.6,8.4 -33.6,8.4 z"
             class="g8_1"
             id="path4219" />
          <path
             style="fill:#ffffff;stroke:#ffffff;stroke-opacity:1;stroke-width:12;stroke-miterlimit:4;stroke-dasharray:none;stroke-linejoin:round"
             inkscape:connector-curvature="0"
             d="m 774.6,1066.4 c -25.3,5.4 -29.3,14.5 -31.1,20.4 -1.8,5.8 -2.3,11.7 8.4,18 10.7,6.4 35.4,7.4 41.5,-8.1 6.1,-15.5 1.6,-34.6 -18.8,-30.3 z"
             class="g9_1"
             id="path4221" />
          <path
             style="fill:#4db9f9;stroke:#ffffff;stroke-opacity:1;stroke-width:12;stroke-miterlimit:4;stroke-dasharray:none;stroke-linejoin:round"
             inkscape:connector-curvature="0"
             d="m 750.9,1099.2 c 10.7,6.7 36.4,10.2 41,-7.6 1.5,-6.6 0.3,-11.2 0.3,-11.2 0,-2.8 -1.3,1.5 -2.8,3.8 -9.2,18.3 -38.5,15 -38.5,15 z"
             class="g8_1"
             id="path4223" />
          <path
             style="fill:#ffffff;stroke:#ffffff;stroke-opacity:1;stroke-width:12;stroke-miterlimit:4;stroke-dasharray:none;stroke-linejoin:round"
             inkscape:connector-curvature="0"
             d="m 776.1,1005.3 c -28.8,9.7 -30.5,30.5 -9.4,38.9 21.1,8.4 39.5,-1 40,-15.2 0.5,-14.3 -1.6,-19.9 -8.7,-22.7 -7.1,-2.8 -21.9,-1 -21.9,-1 z"
             class="g9_1"
             id="path4225" />
          <path
             style="fill:#4db9f9;stroke:#ffffff;stroke-opacity:1;stroke-width:12;stroke-miterlimit:4;stroke-dasharray:none;stroke-linejoin:round"
             inkscape:connector-curvature="0"
             d="m 759.6,1038.9 c 18.5,10.2 43.5,14.2 43.5,-18.9 -7.9,21.9 -17.3,21.4 -40,18.6 -3.5,-2.3 -5.1,-1 -3.5,0.3 z"
             class="g8_1"
             id="path4227" />
          <path
             style="fill:#4db9f9;stroke:#ffffff;stroke-opacity:1;stroke-width:12;stroke-miterlimit:4;stroke-dasharray:none;stroke-linejoin:round"
             inkscape:connector-curvature="0"
             d="m 772.3,1053.4 c -0.2,1.3 0.2,6.9 0.2,8.9 0,2.1 3.1,1.3 3.1,1.3 0,0 2,0.2 4.1,0.2 2,0 5.1,-0.7 5.3,-2.5 0.3,-1.8 0.3,-4.3 0.3,-5.6 0.2,-3.1 -2.3,-1.3 -3.6,-1.3 -1.3,0 -5.8,0 -5.8,0 -2.6,0 -1.1,-1.5 -1.1,-1.5 0,-1.3 -2.3,-1 -2.5,0.5 z"
             class="g8_1"
             id="path4229" />
          <path
             style="fill:#ffffff;stroke:#ffffff;stroke-opacity:1;stroke-width:12;stroke-miterlimit:4;stroke-dasharray:none;stroke-linejoin:round"
             inkscape:connector-curvature="0"
             d="m 749.4,1019.3 c 0,3.6 -3.1,1.8 -3.1,6.6 0,2 2.7,2.3 3.1,0.8 0.9,-4.1 1.8,-4.6 2.7,-7.2 0.9,-2 -2.7,-1 -2.7,-0.2 z"
             class="g9_1"
             id="path4231" />
          <path
             style="fill:#ffffff;stroke:#ffffff;stroke-width:12;stroke-linecap:butt;stroke-linejoin:round;stroke-miterlimit:4;stroke-opacity:1;stroke-dasharray:none"
             inkscape:connector-curvature="0"
             d="m 593.5,949.5 c -12.2,-7.2 -22.1,-11.4 -40.4,2.3 -9.2,13 3.8,9.2 9.1,5.4 5.4,-3.9 21.8,-10 29.4,-7.3 7.7,2.7 1.9,-0.4 1.9,-0.4 z"
             class="g3_1"
             id="path4233" />
          <path
             style="fill:#ffffff;stroke:#ffffff;stroke-opacity:1;stroke-width:12;stroke-miterlimit:4;stroke-dasharray:none;stroke-linejoin:round"
             inkscape:connector-curvature="0"
             d="m 704.3,970.1 c 7,2.8 13.4,-2.3 3.4,-5.3 -9.9,-3.1 -18.3,-2.3 -23.3,1.1 7.3,-0.7 18,3.5 19.9,4.2 z"
             class="g9_1"
             id="path4235" />
          <path
             style="fill:#ffffff;stroke:#ffffff;stroke-width:12;stroke-linecap:butt;stroke-linejoin:round;stroke-miterlimit:4;stroke-opacity:1;stroke-dasharray:none"
             inkscape:connector-curvature="0"
             d="m 613.8,947.6 c 8,1.5 16,0.4 16,0.4 l 5.4,-37.1 c 2.3,-5.7 -1.9,-18.7 -1.9,-18.7 0,0 -7.7,-2.3 -16.5,12.6 l -15.2,26.4 0,9.5 12.2,6.9 z"
             class="g3_1"
             id="path4237" />
          <path
             style="fill:#000102;stroke:#ffffff;stroke-width:12;stroke-linecap:butt;stroke-linejoin:round;stroke-miterlimit:4;stroke-opacity:1;stroke-dasharray:none"
             inkscape:connector-curvature="0"
             d="M 539.3,978.5 C 532,942.6 576,929.7 590.9,943 c 14.9,13.4 21.7,12.2 21.7,12.2 -1.1,-1.9 1.6,-3 4.6,-3 3.1,0 3.1,0 3.1,0 l 14.5,-1.9 c 3,-0.8 1.1,-2.7 -0.4,-2.7 -4.2,-0.8 -1.9,-3.8 -1.1,-6.5 2.6,-10.3 4.5,-29.4 4.2,-30.5 -1.2,-2.7 -3.1,0 -3.5,2.2 -1.1,8.1 -3,32.1 -5.7,33.3 -2.7,1.1 -5.7,2.3 -6.1,-4.2 0.8,-7.3 -1.2,-4.6 -5.4,-5.8 -4.2,-1.1 -8.7,-1.1 -11,-1.5 -2.3,-0.4 -2.7,-4.9 0.3,-5.3 4.2,-1.9 12.7,-4.6 15.3,-4.6 l 1.2,-10.3 c 0,0 -4.2,-6.1 -3.1,-12.2 1.2,-6.2 13.4,-10.4 18,-10.4 2.3,0 1.1,-3.4 -4.6,-2.6 -18,5.3 -31.7,31.7 -35.2,43.5 -0.3,13 -4.2,3.8 -5.3,3.1 -1.1,-0.8 -7.6,-3.1 10.7,-33.6 1.9,-3.1 -0.4,-3.9 -3.8,0.3 -3.5,4.2 -11.9,19.5 -13.8,26.4 -0.4,3.4 -3.8,2.3 -4.9,1.9 -38.2,-0.8 -47,24.4 -44,46.2 1.6,4.2 2.7,1.5 2.7,1.5 z"
             class="g6_1"
             id="path4239" />
          <path
             style="fill:#ffffff;stroke:#ffffff;stroke-width:12;stroke-linecap:butt;stroke-linejoin:round;stroke-miterlimit:4;stroke-opacity:1;stroke-dasharray:none"
             inkscape:connector-curvature="0"
             d="m 647.8,952.2 c 0.8,7 6.9,6.1 6.5,0.4 -2.7,-22.2 -3.8,-28.3 5.7,-42.4 -11.8,11.8 -15.3,15.6 -12.2,42 z"
             class="g3_1"
             id="path4241" />
          <path
             style="fill:#ffffff;stroke:#ffffff;stroke-opacity:1;stroke-width:12;stroke-miterlimit:4;stroke-dasharray:none;stroke-linejoin:round"
             inkscape:connector-curvature="0"
             d="m 665.3,935.4 -1.5,8.8 11.9,14.9 3.8,0.7 6.5,-3 1.5,-6.5 1.1,-25.6 -2.2,-11.5 -3.1,-7.2 c -6.1,-4.6 -8.4,0.4 -9.9,5.3 -1.6,5 -4.2,10.7 -4.2,10.7 l -3.9,13.4 z"
             class="g9_1"
             id="path4243" />
          <path
             style="stroke:#ffffff;stroke-opacity:1;stroke-width:12;stroke-miterlimit:4;stroke-dasharray:none;stroke-linejoin:round"
             inkscape:connector-curvature="0"
             d="m 642,975.5 c 19.9,1.5 22.2,-15.7 21.4,-18.3 -0.7,-2.7 1.6,-2.7 5.4,0 3.8,2.6 5,3 3.8,4.2 -1.1,1.1 -2.3,1.1 -4.2,1.9 -1.9,0.7 0.4,2.6 2.7,2.3 7.6,-2.3 39.7,-22.6 48.9,8.4 0.7,2.6 6.5,0.7 5.3,-3.5 -6.5,-13.7 -13.7,-19.1 -24,-19.5 0,0 1.9,-33.6 -4.3,-35.5 0,0 0.8,35.2 -1.5,36.3 -2.3,1.2 -4.6,3.1 -5.7,1.9 0,0 6.9,-47.7 -11.1,-57.7 -3.8,-1.9 -5.3,0 -1.5,5.4 3.8,5.3 12.2,6.5 8,48.5 -0.8,8.8 -6.9,9.2 -6.9,9.2 -2.6,-0.4 -0.7,-3.5 -0.7,-5 l 0.4,-8.8 c 0,-3 -2,-3 -10.4,-3.8 -3.4,-0.4 -0.3,-3.8 1.6,-4.2 1.9,-0.4 6.5,-3.1 6.5,-3.1 2.6,-1.1 -0.4,-16.8 -4.2,-19.1 l 3.8,-6.8 c 0,0 -0.8,-1.9 -1.2,-3.5 -1.1,-3.8 -0.7,0.4 -1.5,2.3 -0.8,1.9 -11.8,18.4 -13.7,36.3 -0.4,4.6 -6.5,3.1 -5.4,-4.2 0,-7.6 1.5,-17.9 3.4,-18.3 -14.1,7.6 -2.2,33.6 -7.2,24.4 0,0 -6.9,0.8 -10.7,7.3 -0.8,2.3 3,1.1 4.6,-1.2 1.5,-2.3 8.4,-4.6 12.2,0 3.8,4.6 3.8,15.3 -1.1,16.4 -5,1.2 -2.3,3.1 -13,2.7 -3.5,0 0.3,5 0.3,5 z"
             class="g10_1"
             id="path4245" />
        </g>
        <g
           transform="translate(752.56365,-431.33514)"
           id="g4265">
          <path
             id="path4144"
             class="g1_1"
             d="m 375,1178.3 c 39.9,-22.6 52.4,10.9 52.4,10.9 26.5,43.6 60.1,7.8 60.1,7.8 l 27.4,-18 c 34.4,-25.7 41.4,7.8 41.4,7.8 13.3,30.4 37.5,2.4 37.5,2.4 37.5,-39 39.9,-24.2 45.3,-12.5 5.5,11.7 29.7,21.8 44.6,-15.6 14.8,-37.4 54.7,-166 54.7,-166 3.1,-29.6 -3.9,-36.6 -14.9,-38.9 0,0 3.1,-85.8 -15.6,-106 15.6,-5.5 18,-0.8 18,-0.8 0,0 -3.9,-24.1 -47.7,-17.9 22.7,-22.6 35.2,-14.8 35.2,-14.8 0,0 -36,-38.2 -88.3,7 -39.9,-22.6 -48.5,-14.8 -48.5,-14.8 0,0 10.2,3.1 11.7,17.9 0,0 -53.9,12.5 -92.2,88.1 0,0 -20.3,-2.4 -46.9,47.5 l -31.2,118.4 -47.7,88.9 c -6.2,22.6 4.7,8.6 4.7,8.6 z"
             inkscape:connector-curvature="0"
             style="stroke:#000102;stroke-width:2;stroke-linecap:butt;stroke-linejoin:miter;stroke-miterlimit:4" />
          <path
             id="path4146"
             class="g2_1"
             d="m 721.9,954.9 c 0,0 3,-84.1 -15.3,-103.9 15.3,-5.4 17.6,-0.8 17.6,-0.8 0,0 -3.9,-23.7 -46.6,-17.6 22.1,-22.1 34.3,-14.5 34.3,-14.5 0,0 -35.1,-37.4 -86.3,6.9 -38.9,-22.2 -47.3,-14.5 -47.3,-14.5 0,0 9.9,3 11.4,17.6 0,0 -63,21.7 -101.6,116.4 0,0 -4.2,-4.9 6.6,-29.3 -7.4,2.3 -22.6,11.3 -40.9,45.8 l -30.6,116.1 -46.6,87.1 c -6.1,22.1 4.6,8.4 4.6,8.4 38.9,-22.2 51.2,10.7 51.2,10.7 25.9,42.7 58.8,7.6 58.8,7.6 l 26.7,-17.6 c 33.6,-25.2 40.5,7.7 40.5,7.7 13,29.8 36.7,2.3 36.7,2.3 36.6,-38.2 38.9,-23.7 44.3,-12.3 5.3,11.5 29,21.4 43.5,-15.2 14.5,-36.7 53.5,-162.7 53.5,-162.7 3,-29.1 -3.8,-35.9 -14.5,-38.2 M 647.4,847.5 c 1.5,7.7 0,17.6 0,17.6 -2.3,-20.2 -16,-5.7 -30.2,13 0,0 15.7,-50 30.2,-30.6 m -16.8,188.3 c -6.5,-0.3 -5.7,0.4 -19.1,2.7 -13.4,2.3 -21.8,-4.2 -24.1,-8.8 -2.3,-4.6 1.2,-8 4.2,-3.8 8.1,12.2 11.5,7.6 19.5,8 8,0.4 15.3,-3 19.9,-2.3 4.6,0.8 3.4,4.2 -0.4,4.2 m 32.8,-13.7 -6.8,-2.3 c -18.4,-9.6 -22.2,-4.6 -42.1,-1.9 -19.8,2.7 -37,-9.6 -38.5,-13.8 -1.6,-4.2 -5.8,-4.2 -6.5,-2.6 -0.8,1.5 -5,4.5 -6.1,-0.4 -1.2,-5 4.6,-10.7 7.6,-9.2 3.1,1.5 5,0 8.4,-0.8 3.4,-0.7 6.1,2.7 0.4,4.6 -5.7,1.9 -5.7,-0.4 -2.3,4.6 15.3,18.3 42.8,9.9 54.6,9.6 11.9,-0.4 15.7,3 20.6,5.7 5,2.7 6.5,1.1 10.4,1.5 3.8,0.4 4.2,5 0.3,5 m 38.2,-126.1 -1.1,0 c 0,-46.2 -23.7,-24.4 -23.7,-24.4 0,0 29,-58.1 24.8,24.4 z"
             inkscape:connector-curvature="0"
             style="fill:#4db9f9;stroke:#000102;stroke-width:2;stroke-linecap:butt;stroke-linejoin:miter;stroke-miterlimit:4" />
          <path
             id="path4148"
             class="g3_1"
             d="m 596.2,1027.8 c 1.9,1.9 9.2,4.6 16.8,1.9 3.1,-1.1 3.1,-1.1 3.1,-1.1 0,0 -14.2,-0.8 -17.2,-3.1 -3.1,-2.3 -3.8,1.2 -2.7,2.3 z"
             inkscape:connector-curvature="0"
             style="fill:#ffffff;stroke:#fcfcfc;stroke-width:2;stroke-linecap:butt;stroke-linejoin:miter;stroke-miterlimit:4" />
          <path
             id="path4150"
             class="g4_1"
             d="m 466.7,1075.2 c 8.8,2.6 17.2,4.2 33.3,-8.8 7.2,-8.8 11.4,-5.7 23.6,-5.4 12.3,0.4 35.9,-15.6 18,-48.8 -10.7,-20.3 -30.9,-2.3 -30.9,-2.3 0,0 -8.8,5.7 -10.7,5.7 l -1.2,-2.3 c 0,0 -6.9,0.8 -9.1,-26.4 -6.9,-26.7 -10,-27.1 -16.1,-39.3 -9.9,-16.8 -40.9,-9.9 -46.2,-3.8 -12.2,12.2 -11.8,23.7 -11.8,23.7 0,0 -25.6,-2.3 -39.4,21 -6.9,11 0.8,21.4 5,27.5 1.9,2.3 1.9,4.9 -0.8,6.8 -47.7,26.4 -4.6,60.4 19.1,36.7 3.1,-3.4 4.6,-0.4 5.7,1.2 1.2,1.5 8.8,11 8.8,11 0,0 5.8,8.1 16.1,11.5 10.3,3.4 24.4,-5 25.9,-6.9 3.5,-6.5 10.7,-1.1 10.7,-1.1 z"
             inkscape:connector-curvature="0"
             style="stroke:#000000;stroke-width:2;stroke-linecap:butt;stroke-linejoin:miter;stroke-miterlimit:4" />
          <path
             id="path4152"
             class="g3_1"
             d="m 442.7,1063 c 7.6,-0.4 10.7,-0.4 22.1,5.7 11.5,6.1 16.8,4.6 25.6,-3.1 8.8,-7.6 12.6,-12.6 27.5,-10.7 27.9,2.3 27.9,-27.9 19.9,-37.8 -8,-9.9 -13.4,-9.1 -24.8,-3 -11.5,6.1 -14.6,6.5 -14.6,6.5 -2.3,0 -1.1,-3.1 0,-3.5 l -1.9,-2.3 c 0,0 -4.6,1.9 -7.6,-10.3 -3.1,-12.2 -10.7,-47.3 -20.6,-52.7 -6.5,-7.6 -20.7,-13.7 -38.6,-2.3 -25.6,23.3 8.4,41.6 21,29.8 3.1,-2.7 6.9,0.8 3.4,3.8 -3.4,3.1 -4.6,4.2 -6.5,4.2 0,0 4.6,4.6 4.6,8.4 0,0 4.6,-1.5 8.8,-1.1 -7.2,3 -15.3,9.9 -15.3,9.9 -1.9,1.2 -2.6,-1.9 -0.7,-3.4 1.9,-1.6 6.1,-11.5 -10.3,-13 -16.5,-1.5 -18.8,-15.7 -18.8,-15.7 0,0 -21.7,-8.4 -37,21.8 -7.3,16.4 22.9,40.1 38.6,9.9 2.3,-5.3 3,-4.2 2.6,0.4 -0.3,4.6 5.4,14.9 17.2,2.3 2.7,-1.9 3.5,0 0.4,3.4 -3,3.5 -16.4,10 -22.1,30.2 -0.8,3.1 -2.7,4.2 -2.3,-2.7 0.3,-6.8 4.5,-10.3 4.5,-10.3 0,0 1.2,-8.4 -11.4,-6.5 -11.9,4.2 -22.5,3.1 -22.5,3.1 -10.7,4.2 -30.6,22.5 -14.9,34.4 16.8,12.6 32,-10.3 32,-13 0,-2.7 1.2,-3.8 3.5,3 8.4,5 11.8,15.7 11.8,15.7 3.1,8 9.6,10.3 12.6,11.1 3.1,0.7 8.8,4.9 22.6,-4.2 5.3,-0.8 3,-0.4 3,-0.4 0,0 2.7,-1.5 -2.3,-3.1 -4.9,-1.5 -9.5,-4.5 -9.5,-4.5 z"
             inkscape:connector-curvature="0"
             style="fill:#ffffff;stroke:#fcfcfc;stroke-width:2;stroke-linecap:butt;stroke-linejoin:miter;stroke-miterlimit:4" />
          <path
             id="path4154"
             class="g5_1"
             d="m 430.8,1061.4 c -4.9,-3.4 -14.5,-3.8 -4.9,5.8 9.5,9.5 25.9,0.7 25.9,0.7 l -6.1,-2.7 -2.3,-0.3 c 0,0 -12.9,-0.4 -12.6,-3.5 z"
             inkscape:connector-curvature="0"
             style="fill:#4db9f9;stroke:#fcfcfc;stroke-width:2;stroke-linecap:butt;stroke-linejoin:miter;stroke-miterlimit:4" />
          <path
             id="path4156"
             class="g6_1"
             d="m 442.3,1033.9 c 4.5,1.1 6.9,-1.1 8.8,3.5 2.7,0.7 5.7,0 4.6,-3.9 1.5,-6.5 12.9,-8.7 24,-8.7 11.1,0 5.8,-2 13.8,-2 3,-0.3 1.5,-1.9 -1.2,-1.9 -21.4,-1.5 -29,1.2 -34.7,5.8 -5,3 -14.2,2.6 -14.2,2.6 0,0 -6.1,3.5 -1.1,4.6 z"
             inkscape:connector-curvature="0"
             style="fill:#000102;stroke:#000000;stroke-width:2;stroke-linecap:butt;stroke-linejoin:miter;stroke-miterlimit:4" />
          <path
             id="path4158"
             class="g3_1"
             d="m 411,1015.2 c 4.9,0 10.7,1.5 10.7,1.5 2.3,0.8 0.7,2.7 -0.8,2.3 -1.5,-0.4 -7.3,-1.5 -7.3,-1.5 -4.2,-0.4 0,-2.3 0,-2.3 z"
             inkscape:connector-curvature="0"
             style="fill:#ffffff;stroke:#fcfcfc;stroke-width:2;stroke-linecap:butt;stroke-linejoin:miter;stroke-miterlimit:4" />
          <path
             id="path4160"
             class="g7_1"
             d="m 507.2,1046.9 c 16.4,4.2 30.6,1.2 28.3,-11.1 -2.3,-12.2 -8.4,-9.5 -9.9,-3 -2,15.6 -18.4,14.1 -18.4,14.1 z"
             inkscape:connector-curvature="0"
             style="fill:#4db9f9;stroke:#4db9f9;stroke-width:2;stroke-linecap:butt;stroke-linejoin:miter;stroke-miterlimit:4" />
          <path
             id="path4162"
             class="g8_1"
             d="m 426.6,967.1 c 4.6,13 19.9,10.7 24.1,6.5 8,-11.1 1.1,-2.7 -3.8,-2.7 -5,0 -12.6,0.8 -17.2,-6.9 -4.6,-7.6 -3.1,3.1 -3.1,3.1 z"
             inkscape:connector-curvature="0"
             style="fill:#4db9f9" />
          <path
             id="path4164"
             class="g5_1"
             d="m 456.4,982 c 1.9,-2.3 12.2,6.1 14.5,10.3 -3.8,0.8 -8,-1.2 -12.6,2.7 l -6.1,0.7 c 0,0 -2.3,-6.5 -4.6,-8.4 -1.5,-1.1 6.9,-3 8.8,-5.3 z"
             inkscape:connector-curvature="0"
             style="fill:#4db9f9;stroke:#fcfcfc;stroke-width:2;stroke-linecap:butt;stroke-linejoin:miter;stroke-miterlimit:4" />
          <path
             id="path4166"
             class="g8_1"
             d="m 385.8,1009.1 c 8.4,7.3 18.3,6.1 23.6,-1.1 10.7,-14.9 -2.2,-0.4 -4.9,-2 -3.8,-0.3 -7.7,2.7 -15.7,-1.9 -6.9,-2.6 -3,5 -3,5 z"
             inkscape:connector-curvature="0"
             style="fill:#4db9f9" />
          <path
             id="path4168"
             class="g7_1"
             d="m 434.7,1006.8 c -3.6,-3.4 -11.7,-3.8 -13.5,-2.3 -1.7,1.5 0.7,4.6 0.7,4.6 l 2.9,3.1 3.1,0.7 3.2,-0.4 2.5,-1.9 1.1,-3.8 z"
             inkscape:connector-curvature="0"
             style="fill:#4db9f9;stroke:#4db9f9;stroke-width:2;stroke-linecap:butt;stroke-linejoin:miter;stroke-miterlimit:4" />
          <path
             id="path4170"
             class="g8_1"
             d="m 370.1,1053 c 8,5.4 17.6,8.8 26,-3.8 8.4,-12.6 0.4,-1.9 -7.3,-1.5 -7.6,0.4 -14.9,1.5 -16.8,0.7 -4.2,-0.7 -1.9,4.6 -1.9,4.6 z"
             inkscape:connector-curvature="0"
             style="fill:#4db9f9" />
          <path
             id="path4172"
             class="g8_1"
             d="m 414,1030.9 c 0,0 -10.7,3 -11.8,11.4 4.6,5.8 2.7,6.5 2.7,6.5 l 4.2,2.7 c 0,0 0.3,-8 3.8,-9.6 l 1.1,-11 z"
             inkscape:connector-curvature="0"
             style="fill:#4db9f9" />
          <path
             id="path4174"
             class="g4_1"
             d="m 720.9,1113 c 0,0 -0.3,3.3 0.2,12.2 5.6,26 55.3,30.6 56.3,1.3 l 0.2,-11.5 c 39.8,-12.2 15.3,-50.6 11.8,-51.2 0,0 -1.3,-6.8 0.5,-10.4 28.5,-10.7 25.2,-47.1 7.6,-50.7 -17.6,-3.5 -33.9,-0.5 -33.9,-0.5 9.7,-45.3 -29.8,-48.1 -51.4,-16.5 -6.4,13 -6.9,22.4 -6.9,22.4 -5.6,19.3 -8.6,21.1 -8.6,21.1 -5.9,25 -2.8,32.1 -2.6,33.9 0.3,1.8 0.5,5.8 -1,7.1 -1.5,11 0.5,27 5.1,33.4 2.3,2.8 0,3.8 0.8,5.3 0.7,1.5 20.8,5.4 21.9,4.1 z"
             inkscape:connector-curvature="0"
             style="stroke:#000000;stroke-width:2;stroke-linecap:butt;stroke-linejoin:miter;stroke-miterlimit:4" />
          <path
             id="path4176"
             class="g9_1"
             d="m 747.3,1032.8 c -2.3,1 -1.5,1.5 -1.5,1.5 0,0 -2.8,1.1 -4.6,0.8 -2.5,-0.5 -11.2,-12 -11.2,-12 30.3,-11.2 30.8,-23.9 30.8,-23.9 0,0 2.6,-15.3 -1,-20.1 -6.1,-13.8 -21.6,-5.9 -21.6,-5.9 -24.2,7.6 -26.8,30.3 -26.8,30.3 -1.5,19.6 -9.1,28.5 -11.7,38.4 -2.5,10 -1.8,23 6.1,37 -4,1.5 -8.1,-3.6 -8.1,-3.6 -0.5,20.4 -1.5,32.8 24.9,31.8 17.1,-34.3 19.1,-36.6 44.1,-42 l 0.2,-12.2 c -18.5,-7.6 -18.5,-11.2 -19.6,-20.1 m -6.6,28 c 0,0 -1,5.6 -1.3,9.2 -0.2,1 -3,2 -3,0.2 0,-1.8 -0.8,-4.6 -3.6,-5.6 -2.8,-1 -2.3,-3.8 -0.5,-4.1 1.8,-0.2 5.3,-4.7 6.4,-9.1 0.5,-2.1 3,-2.1 3,0.7 0,0 0.3,5.6 -1,8.7 z"
             inkscape:connector-curvature="0"
             style="fill:#ffffff" />
          <path
             id="path4178"
             class="g8_1"
             d="m 708.4,1091.9 c -3.6,-1.1 -6.4,0.2 -1.3,6.8 5.1,6.6 14.8,8.7 14.8,8.7 0,0 1.8,-13.8 15.8,-14.5 0,0 -0.8,-13 3.8,-16.6 0.5,-2.5 -4.3,-2.3 -6.1,1 -10,18.4 -27,14.6 -27,14.6 z"
             inkscape:connector-curvature="0"
             style="fill:#4db9f9" />
          <path
             id="path4180"
             class="g8_1"
             d="m 748.6,1040.4 c 0.5,10.2 9.9,15.3 9.9,15.3 0,0 5.1,1 7.4,0 2.1,-0.5 1.6,-1.5 0.3,-3.8 -11.2,-2.6 -17.6,-11.5 -17.6,-11.5 z"
             inkscape:connector-curvature="0"
             style="fill:#4db9f9" />
          <path
             id="path4182"
             class="g8_1"
             d="m 746.8,1032.5 c 0,0 -2.5,-7.9 -3.8,-8.4 -6.4,2.8 -11.7,0 -12.5,-1 -5.3,1.3 -14.5,-2.5 -14.5,-2.5 0,0 8.4,15 28.8,15 l 2,-3.1 z"
             inkscape:connector-curvature="0"
             style="fill:#4db9f9" />
          <path
             id="path4184"
             class="g8_1"
             d="m 733.6,1018.3 c 14.5,-6.7 21.9,-14 24.2,-31.1 0.5,-4.3 -5.4,-5.6 -8.2,2 -3.5,14.3 -14,23.7 -16.5,25.2 -2.6,1.6 -3.8,4.4 -1,4.1 l 1.5,-0.2 z"
             inkscape:connector-curvature="0"
             style="fill:#4db9f9" />
          <path
             id="path4186"
             class="g9_1"
             d="m 731.3,1101.3 c -3.1,3.5 -8.7,10.7 -2.5,25.2 6.1,14.5 37.1,21.9 44,-0.5 3.1,-11 0.5,-11.2 0.5,-11.2 0,0 -30.8,-2.6 -34.1,-14.3 -4.1,-3.8 -7.9,0.8 -7.9,0.8 z"
             inkscape:connector-curvature="0"
             style="fill:#ffffff" />
          <path
             id="path4188"
             class="g8_1"
             d="m 733.6,1122.4 c 6.6,9.2 26.5,24.2 40.5,-3.6 l 0.5,-4.3 -7.4,-0.5 c -4.1,15.8 -33.6,8.4 -33.6,8.4 z"
             inkscape:connector-curvature="0"
             style="fill:#4db9f9" />
          <path
             id="path4190"
             class="g9_1"
             d="m 774.6,1066.4 c -25.3,5.4 -29.3,14.5 -31.1,20.4 -1.8,5.8 -2.3,11.7 8.4,18 10.7,6.4 35.4,7.4 41.5,-8.1 6.1,-15.5 1.6,-34.6 -18.8,-30.3 z"
             inkscape:connector-curvature="0"
             style="fill:#ffffff" />
          <path
             id="path4192"
             class="g8_1"
             d="m 750.9,1099.2 c 10.7,6.7 36.4,10.2 41,-7.6 1.5,-6.6 0.3,-11.2 0.3,-11.2 0,-2.8 -1.3,1.5 -2.8,3.8 -9.2,18.3 -38.5,15 -38.5,15 z"
             inkscape:connector-curvature="0"
             style="fill:#4db9f9" />
          <path
             id="path4194"
             class="g9_1"
             d="m 776.1,1005.3 c -28.8,9.7 -30.5,30.5 -9.4,38.9 21.1,8.4 39.5,-1 40,-15.2 0.5,-14.3 -1.6,-19.9 -8.7,-22.7 -7.1,-2.8 -21.9,-1 -21.9,-1 z"
             inkscape:connector-curvature="0"
             style="fill:#ffffff" />
          <path
             id="path4196"
             class="g8_1"
             d="m 759.6,1038.9 c 18.5,10.2 43.5,14.2 43.5,-18.9 -7.9,21.9 -17.3,21.4 -40,18.6 -3.5,-2.3 -5.1,-1 -3.5,0.3 z"
             inkscape:connector-curvature="0"
             style="fill:#4db9f9" />
          <path
             id="path4198"
             class="g8_1"
             d="m 772.3,1053.4 c -0.2,1.3 0.2,6.9 0.2,8.9 0,2.1 3.1,1.3 3.1,1.3 0,0 2,0.2 4.1,0.2 2,0 5.1,-0.7 5.3,-2.5 0.3,-1.8 0.3,-4.3 0.3,-5.6 0.2,-3.1 -2.3,-1.3 -3.6,-1.3 -1.3,0 -5.8,0 -5.8,0 -2.6,0 -1.1,-1.5 -1.1,-1.5 0,-1.3 -2.3,-1 -2.5,0.5 z"
             inkscape:connector-curvature="0"
             style="fill:#4db9f9" />
          <path
             id="path4200"
             class="g9_1"
             d="m 749.4,1019.3 c 0,3.6 -3.1,1.8 -3.1,6.6 0,2 2.7,2.3 3.1,0.8 0.9,-4.1 1.8,-4.6 2.7,-7.2 0.9,-2 -2.7,-1 -2.7,-0.2 z"
             inkscape:connector-curvature="0"
             style="fill:#ffffff" />
          <path
             id="path4202"
             class="g3_1"
             d="m 593.5,949.5 c -12.2,-7.2 -22.1,-11.4 -40.4,2.3 -9.2,13 3.8,9.2 9.1,5.4 5.4,-3.9 21.8,-10 29.4,-7.3 7.7,2.7 1.9,-0.4 1.9,-0.4 z"
             inkscape:connector-curvature="0"
             style="fill:#ffffff;stroke:#fcfcfc;stroke-width:2;stroke-linecap:butt;stroke-linejoin:miter;stroke-miterlimit:4" />
          <path
             id="path4204"
             class="g9_1"
             d="m 704.3,970.1 c 7,2.8 13.4,-2.3 3.4,-5.3 -9.9,-3.1 -18.3,-2.3 -23.3,1.1 7.3,-0.7 18,3.5 19.9,4.2 z"
             inkscape:connector-curvature="0"
             style="fill:#ffffff" />
          <path
             id="path4206"
             class="g3_1"
             d="m 613.8,947.6 c 8,1.5 16,0.4 16,0.4 l 5.4,-37.1 c 2.3,-5.7 -1.9,-18.7 -1.9,-18.7 0,0 -7.7,-2.3 -16.5,12.6 l -15.2,26.4 0,9.5 12.2,6.9 z"
             inkscape:connector-curvature="0"
             style="fill:#ffffff;stroke:#fcfcfc;stroke-width:2;stroke-linecap:butt;stroke-linejoin:miter;stroke-miterlimit:4" />
          <path
             id="path4208"
             class="g6_1"
             d="M 539.3,978.5 C 532,942.6 576,929.7 590.9,943 c 14.9,13.4 21.7,12.2 21.7,12.2 -1.1,-1.9 1.6,-3 4.6,-3 3.1,0 3.1,0 3.1,0 l 14.5,-1.9 c 3,-0.8 1.1,-2.7 -0.4,-2.7 -4.2,-0.8 -1.9,-3.8 -1.1,-6.5 2.6,-10.3 4.5,-29.4 4.2,-30.5 -1.2,-2.7 -3.1,0 -3.5,2.2 -1.1,8.1 -3,32.1 -5.7,33.3 -2.7,1.1 -5.7,2.3 -6.1,-4.2 0.8,-7.3 -1.2,-4.6 -5.4,-5.8 -4.2,-1.1 -8.7,-1.1 -11,-1.5 -2.3,-0.4 -2.7,-4.9 0.3,-5.3 4.2,-1.9 12.7,-4.6 15.3,-4.6 l 1.2,-10.3 c 0,0 -4.2,-6.1 -3.1,-12.2 1.2,-6.2 13.4,-10.4 18,-10.4 2.3,0 1.1,-3.4 -4.6,-2.6 -18,5.3 -31.7,31.7 -35.2,43.5 -0.3,13 -4.2,3.8 -5.3,3.1 -1.1,-0.8 -7.6,-3.1 10.7,-33.6 1.9,-3.1 -0.4,-3.9 -3.8,0.3 -3.5,4.2 -11.9,19.5 -13.8,26.4 -0.4,3.4 -3.8,2.3 -4.9,1.9 -38.2,-0.8 -47,24.4 -44,46.2 1.6,4.2 2.7,1.5 2.7,1.5 z"
             inkscape:connector-curvature="0"
             style="fill:#000102;stroke:#000000;stroke-width:2;stroke-linecap:butt;stroke-linejoin:miter;stroke-miterlimit:4" />
          <path
             id="path4210"
             class="g3_1"
             d="m 647.8,952.2 c 0.8,7 6.9,6.1 6.5,0.4 -2.7,-22.2 -3.8,-28.3 5.7,-42.4 -11.8,11.8 -15.3,15.6 -12.2,42 z"
             inkscape:connector-curvature="0"
             style="fill:#ffffff;stroke:#fcfcfc;stroke-width:2;stroke-linecap:butt;stroke-linejoin:miter;stroke-miterlimit:4" />
          <path
             id="path4212"
             class="g9_1"
             d="m 665.3,935.4 -1.5,8.8 11.9,14.9 3.8,0.7 6.5,-3 1.5,-6.5 1.1,-25.6 -2.2,-11.5 -3.1,-7.2 c -6.1,-4.6 -8.4,0.4 -9.9,5.3 -1.6,5 -4.2,10.7 -4.2,10.7 l -3.9,13.4 z"
             inkscape:connector-curvature="0"
             style="fill:#ffffff" />
          <path
             id="path4214"
             class="g10_1"
             d="m 642,975.5 c 19.9,1.5 22.2,-15.7 21.4,-18.3 -0.7,-2.7 1.6,-2.7 5.4,0 3.8,2.6 5,3 3.8,4.2 -1.1,1.1 -2.3,1.1 -4.2,1.9 -1.9,0.7 0.4,2.6 2.7,2.3 7.6,-2.3 39.7,-22.6 48.9,8.4 0.7,2.6 6.5,0.7 5.3,-3.5 -6.5,-13.7 -13.7,-19.1 -24,-19.5 0,0 1.9,-33.6 -4.3,-35.5 0,0 0.8,35.2 -1.5,36.3 -2.3,1.2 -4.6,3.1 -5.7,1.9 0,0 6.9,-47.7 -11.1,-57.7 -3.8,-1.9 -5.3,0 -1.5,5.4 3.8,5.3 12.2,6.5 8,48.5 -0.8,8.8 -6.9,9.2 -6.9,9.2 -2.6,-0.4 -0.7,-3.5 -0.7,-5 l 0.4,-8.8 c 0,-3 -2,-3 -10.4,-3.8 -3.4,-0.4 -0.3,-3.8 1.6,-4.2 1.9,-0.4 6.5,-3.1 6.5,-3.1 2.6,-1.1 -0.4,-16.8 -4.2,-19.1 l 3.8,-6.8 c 0,0 -0.8,-1.9 -1.2,-3.5 -1.1,-3.8 -0.7,0.4 -1.5,2.3 -0.8,1.9 -11.8,18.4 -13.7,36.3 -0.4,4.6 -6.5,3.1 -5.4,-4.2 0,-7.6 1.5,-17.9 3.4,-18.3 -14.1,7.6 -2.2,33.6 -7.2,24.4 0,0 -6.9,0.8 -10.7,7.3 -0.8,2.3 3,1.1 4.6,-1.2 1.5,-2.3 8.4,-4.6 12.2,0 3.8,4.6 3.8,15.3 -1.1,16.4 -5,1.2 -2.3,3.1 -13,2.7 -3.5,0 0.3,5 0.3,5 z"
             inkscape:connector-curvature="0" />
        </g>
      </g>
    </g>
  </g>
</svg>
