<?xml version="1.0" encoding="UTF-8" standalone="no"?>
<svg
   xmlns:dc="http://purl.org/dc/elements/1.1/"
   xmlns:cc="http://creativecommons.org/ns#"
   xmlns:rdf="http://www.w3.org/1999/02/22-rdf-syntax-ns#"
   xmlns:svg="http://www.w3.org/2000/svg"
   xmlns="http://www.w3.org/2000/svg"
   xmlns:sodipodi="http://sodipodi.sourceforge.net/DTD/sodipodi-0.dtd"
   xmlns:inkscape="http://www.inkscape.org/namespaces/inkscape"
   width="576pt"
   height="576pt"
   viewBox="0 0 576 576"
   version="1.1"
   id="svg2"
   inkscape:version="0.91 r13725"
   sodipodi:docname="kong_frontal.svg">
  <metadata
     id="metadata163">
    <rdf:RDF>
      <cc:Work
         rdf:about="">
        <dc:format>image/svg+xml</dc:format>
        <dc:type
           rdf:resource="http://purl.org/dc/dcmitype/StillImage" />
        <dc:title></dc:title>
      </cc:Work>
    </rdf:RDF>
  </metadata>
  <defs
     id="defs161" />
  <sodipodi:namedview
     pagecolor="#ffffff"
     bordercolor="#666666"
     borderopacity="1"
     objecttolerance="10"
     gridtolerance="10"
     guidetolerance="10"
     inkscape:pageopacity="0"
     inkscape:pageshadow="2"
     inkscape:window-width="1920"
     inkscape:window-height="1005"
     id="namedview159"
     showgrid="false"
     inkscape:zoom="1.3111111"
     inkscape:cx="355.35945"
     inkscape:cy="415.01554"
     inkscape:window-x="-9"
     inkscape:window-y="-9"
     inkscape:window-maximized="1"
     inkscape:current-layer="svg2" />
  <g
     id="g4447">
    <g
       style="stroke:#ffffff;stroke-opacity:1;stroke-width:9.6;stroke-miterlimit:4;stroke-dasharray:none"
       id="g4291">
      <path
         style="stroke:#ffffff;fill-rule:nonzero;fill:rgb(59%, 19%, 0%);fill-opacity:1;stroke-opacity:1;stroke-width:9.6;stroke-miterlimit:4;stroke-dasharray:none"
         d="M 470.476562 215.550781 L 470.476562 191.402344 L 462.425781 191.402344 L 462.425781 175.300781 L 446.324219 175.300781 L 446.324219 167.25 L 430.226562 167.25 L 430.226562 159.199219 L 398.027344 159.199219 L 398.027344 167.25 L 389.976562 167.25 L 389.976562 175.300781 L 381.925781 175.300781 L 381.925781 183.351562 L 389.976562 183.351562 L 389.976562 199.449219 L 398.027344 199.449219 L 398.027344 207.5 L 422.175781 207.5 L 422.175781 215.550781 L 373.875 215.550781 L 373.875 207.5 L 365.824219 207.5 L 365.824219 199.449219 L 357.777344 199.449219 L 357.777344 191.402344 L 341.675781 191.402344 L 341.675781 183.351562 L 333.625 183.351562 L 333.625 175.300781 L 325.574219 175.300781 L 325.574219 167.25 L 317.527344 167.25 L 317.527344 159.199219 L 261.175781 159.199219 L 261.175781 167.25 L 253.125 167.25 L 253.125 175.300781 L 245.074219 175.300781 L 245.074219 183.351562 L 237.027344 183.351562 L 237.027344 191.402344 L 212.875 191.402344 L 212.875 199.449219 L 204.824219 199.449219 L 204.824219 215.550781 L 188.726562 215.550781 L 188.726562 223.601562 L 172.625 223.601562 L 172.625 231.652344 L 164.574219 231.652344 L 164.574219 239.699219 L 148.476562 239.699219 L 148.476562 247.75 L 140.425781 247.75 L 140.425781 255.800781 L 132.375 255.800781 L 132.375 288 L 140.425781 288 L 140.425781 296.050781 L 148.476562 296.050781 L 148.476562 304.101562 L 156.527344 304.101562 L 156.527344 312.152344 L 180.675781 312.152344 L 180.675781 320.199219 L 164.574219 320.199219 L 164.574219 328.25 L 148.476562 328.25 L 148.476562 336.300781 L 140.425781 336.300781 L 140.425781 368.5 L 132.375 368.5 L 132.375 376.550781 L 116.277344 376.550781 L 116.277344 384.601562 L 108.226562 384.601562 L 108.226562 400.699219 L 196.777344 400.699219 L 196.777344 384.601562 L 204.824219 384.601562 L 204.824219 376.550781 L 237.027344 376.550781 L 237.027344 368.5 L 317.527344 368.5 L 317.527344 376.550781 L 325.574219 376.550781 L 325.574219 384.601562 L 333.625 384.601562 L 333.625 392.652344 L 341.675781 392.652344 L 341.675781 408.75 L 349.726562 408.75 L 349.726562 416.800781 L 446.324219 416.800781 L 446.324219 408.75 L 438.277344 408.75 L 438.277344 400.699219 L 430.226562 400.699219 L 430.226562 392.652344 L 414.125 392.652344 L 414.125 376.550781 L 422.175781 376.550781 L 422.175781 352.402344 L 414.125 352.402344 L 414.125 344.351562 L 406.074219 344.351562 L 406.074219 336.300781 L 398.027344 336.300781 L 398.027344 328.25 L 389.976562 328.25 L 389.976562 296.050781 L 398.027344 296.050781 L 398.027344 288 L 406.074219 288 L 406.074219 279.949219 L 422.175781 279.949219 L 422.175781 271.902344 L 438.277344 271.902344 L 438.277344 263.851562 L 446.324219 263.851562 L 446.324219 255.800781 L 462.425781 255.800781 L 462.425781 247.75 L 470.476562 247.75 L 470.476562 239.699219 L 478.527344 239.699219 L 478.527344 215.550781 Z M 470.476562 215.550781 "
         id="path4293" />
      <path
         style="stroke:#ffffff;fill-rule:nonzero;fill:rgb(72%, 0%, 0%);fill-opacity:1;stroke-opacity:1;stroke-width:9.6;stroke-miterlimit:4;stroke-dasharray:none"
         d="M 470.476562 215.550781 L 470.476562 191.402344 L 462.425781 191.402344 L 462.425781 175.300781 L 446.324219 175.300781 L 446.324219 167.25 L 430.226562 167.25 L 430.226562 159.199219 L 398.027344 159.199219 L 398.027344 167.25 L 389.976562 167.25 L 389.976562 175.300781 L 381.925781 175.300781 L 381.925781 183.351562 L 389.976562 183.351562 L 389.976562 199.449219 L 398.027344 199.449219 L 398.027344 207.5 L 422.175781 207.5 L 422.175781 215.550781 L 373.875 215.550781 L 373.875 207.5 L 365.824219 207.5 L 365.824219 199.449219 L 357.777344 199.449219 L 357.777344 191.402344 L 341.675781 191.402344 L 341.675781 183.351562 L 333.625 183.351562 L 333.625 175.300781 L 325.574219 175.300781 L 325.574219 167.25 L 317.527344 167.25 L 317.527344 159.199219 L 261.175781 159.199219 L 261.175781 167.25 L 253.125 167.25 L 253.125 175.300781 L 245.074219 175.300781 L 245.074219 183.351562 L 237.027344 183.351562 L 237.027344 191.402344 L 212.875 191.402344 L 212.875 199.449219 L 204.824219 199.449219 L 204.824219 215.550781 L 188.726562 215.550781 L 188.726562 223.601562 L 172.625 223.601562 L 172.625 231.652344 L 164.574219 231.652344 L 164.574219 239.699219 L 148.476562 239.699219 L 148.476562 247.75 L 140.425781 247.75 L 140.425781 255.800781 L 132.375 255.800781 L 132.375 288 L 140.425781 288 L 140.425781 296.050781 L 148.476562 296.050781 L 148.476562 304.101562 L 156.527344 304.101562 L 156.527344 312.152344 L 180.675781 312.152344 L 180.675781 320.199219 L 164.574219 320.199219 L 164.574219 328.25 L 148.476562 328.25 L 148.476562 336.300781 L 140.425781 336.300781 L 140.425781 368.5 L 132.375 368.5 L 132.375 376.550781 L 116.277344 376.550781 L 116.277344 384.601562 L 108.226562 384.601562 L 108.226562 400.699219 L 196.777344 400.699219 L 196.777344 384.601562 L 204.824219 384.601562 L 204.824219 376.550781 L 237.027344 376.550781 L 237.027344 368.5 L 317.527344 368.5 L 317.527344 376.550781 L 325.574219 376.550781 L 325.574219 384.601562 L 333.625 384.601562 L 333.625 392.652344 L 341.675781 392.652344 L 341.675781 408.75 L 349.726562 408.75 L 349.726562 416.800781 L 446.324219 416.800781 L 446.324219 408.75 L 438.277344 408.75 L 438.277344 400.699219 L 430.226562 400.699219 L 430.226562 392.652344 L 414.125 392.652344 L 414.125 376.550781 L 422.175781 376.550781 L 422.175781 352.402344 L 414.125 352.402344 L 414.125 344.351562 L 406.074219 344.351562 L 406.074219 336.300781 L 398.027344 336.300781 L 398.027344 328.25 L 389.976562 328.25 L 389.976562 296.050781 L 398.027344 296.050781 L 398.027344 288 L 406.074219 288 L 406.074219 279.949219 L 422.175781 279.949219 L 422.175781 271.902344 L 438.277344 271.902344 L 438.277344 263.851562 L 446.324219 263.851562 L 446.324219 255.800781 L 462.425781 255.800781 L 462.425781 247.75 L 470.476562 247.75 L 470.476562 239.699219 L 478.527344 239.699219 L 478.527344 215.550781 Z M 470.476562 215.550781 "
         id="path4295" />
      <path
         style="stroke:#ffffff;fill-rule:nonzero;fill:rgb(100%, 72%, 33%);fill-opacity:1;stroke-opacity:1;stroke-width:9.6;stroke-miterlimit:4;stroke-dasharray:none"
         d="M 357.777344 199.449219 L 357.777344 191.402344 L 341.675781 191.402344 L 341.675781 215.550781 L 325.574219 215.550781 L 325.574219 199.449219 L 333.625 199.449219 L 333.625 191.402344 L 325.574219 191.402344 L 325.574219 183.351562 L 317.527344 183.351562 L 317.527344 175.300781 L 301.425781 175.300781 L 301.425781 183.351562 L 293.375 183.351562 L 293.375 191.402344 L 309.476562 191.402344 L 309.476562 207.5 L 293.375 207.5 L 293.375 191.402344 L 285.324219 191.402344 L 285.324219 207.5 L 269.226562 207.5 L 269.226562 191.402344 L 285.324219 191.402344 L 285.324219 183.351562 L 277.277344 183.351562 L 277.277344 175.300781 L 261.175781 175.300781 L 261.175781 183.351562 L 253.125 183.351562 L 253.125 191.402344 L 245.074219 191.402344 L 245.074219 199.449219 L 253.125 199.449219 L 253.125 215.550781 L 228.976562 215.550781 L 228.976562 191.402344 L 212.875 191.402344 L 212.875 199.449219 L 204.824219 199.449219 L 204.824219 215.550781 L 220.925781 215.550781 L 220.925781 223.601562 L 212.875 223.601562 L 212.875 247.75 L 220.925781 247.75 L 220.925781 255.800781 L 228.976562 255.800781 L 228.976562 263.851562 L 253.125 263.851562 L 253.125 271.902344 L 325.574219 271.902344 L 325.574219 263.851562 L 341.675781 263.851562 L 341.675781 255.800781 L 317.527344 255.800781 L 317.527344 263.851562 L 293.375 263.851562 L 293.375 255.800781 L 285.324219 255.800781 L 285.324219 263.851562 L 261.175781 263.851562 L 261.175781 255.800781 L 237.027344 255.800781 L 237.027344 247.75 L 228.976562 247.75 L 228.976562 231.652344 L 237.027344 231.652344 L 237.027344 223.601562 L 253.125 223.601562 L 253.125 231.652344 L 325.574219 231.652344 L 325.574219 223.601562 L 341.675781 223.601562 L 341.675781 231.652344 L 349.726562 231.652344 L 349.726562 247.75 L 357.777344 247.75 L 357.777344 223.601562 L 349.726562 223.601562 L 349.726562 215.550781 L 365.824219 215.550781 L 365.824219 199.449219 L 357.777344 199.449219 M 293.375 223.601562 L 277.277344 223.601562 L 277.277344 215.550781 L 301.425781 215.550781 L 301.425781 223.601562 Z M 293.375 223.601562 "
         id="path4297" />
      <path
         style="stroke:#ffffff;fill-rule:nonzero;fill:rgb(100%, 72%, 33%);fill-opacity:1;stroke-opacity:1;stroke-width:9.6;stroke-miterlimit:4;stroke-dasharray:none"
         d="M 341.675781 255.800781 L 349.726562 255.800781 L 349.726562 247.75 L 341.675781 247.75 Z M 341.675781 255.800781 "
         id="path4299" />
      <path
         style="stroke:#ffffff;fill-rule:nonzero;fill:rgb(100%, 72%, 33%);fill-opacity:1;stroke-opacity:1;stroke-width:9.6;stroke-miterlimit:4;stroke-dasharray:none"
         d="M 269.226562 296.050781 L 269.226562 288 L 253.125 288 L 253.125 279.949219 L 228.976562 279.949219 L 228.976562 296.050781 L 237.027344 296.050781 L 237.027344 304.101562 L 245.074219 304.101562 L 245.074219 296.050781 L 253.125 296.050781 L 253.125 304.101562 L 245.074219 304.101562 L 245.074219 312.152344 L 253.125 312.152344 L 253.125 320.199219 L 245.074219 320.199219 L 245.074219 312.152344 L 237.027344 312.152344 L 237.027344 320.199219 L 228.976562 320.199219 L 228.976562 328.25 L 269.226562 328.25 L 269.226562 320.199219 L 277.277344 320.199219 L 277.277344 296.050781 Z M 269.226562 296.050781 "
         id="path4301" />
      <path
         style="stroke:#ffffff;fill-rule:nonzero;fill:rgb(100%, 72%, 33%);fill-opacity:1;stroke-opacity:1;stroke-width:9.6;stroke-miterlimit:4;stroke-dasharray:none"
         d="M 253.125 360.449219 L 261.175781 360.449219 L 261.175781 352.402344 L 253.125 352.402344 Z M 253.125 360.449219 "
         id="path4303" />
      <path
         style="stroke:#ffffff;fill-rule:nonzero;fill:rgb(100%, 72%, 33%);fill-opacity:1;stroke-opacity:1;stroke-width:9.6;stroke-miterlimit:4;stroke-dasharray:none"
         d="M 269.226562 360.449219 L 277.277344 360.449219 L 277.277344 352.402344 L 269.226562 352.402344 Z M 269.226562 360.449219 "
         id="path4305" />
      <path
         style="stroke:#ffffff;fill-rule:nonzero;fill:rgb(100%, 72%, 33%);fill-opacity:1;stroke-opacity:1;stroke-width:9.6;stroke-miterlimit:4;stroke-dasharray:none"
         d="M 309.476562 360.449219 L 317.527344 360.449219 L 317.527344 352.402344 L 309.476562 352.402344 Z M 309.476562 360.449219 "
         id="path4307" />
      <path
         style="stroke:#ffffff;fill-rule:nonzero;fill:rgb(100%, 72%, 33%);fill-opacity:1;stroke-opacity:1;stroke-width:9.6;stroke-miterlimit:4;stroke-dasharray:none"
         d="M 317.527344 336.300781 L 301.425781 336.300781 L 301.425781 328.25 L 293.375 328.25 L 293.375 320.199219 L 277.277344 320.199219 L 277.277344 328.25 L 269.226562 328.25 L 269.226562 336.300781 L 245.074219 336.300781 L 245.074219 352.402344 L 253.125 352.402344 L 253.125 344.351562 L 261.175781 344.351562 L 261.175781 352.402344 L 269.226562 352.402344 L 269.226562 344.351562 L 277.277344 344.351562 L 277.277344 352.402344 L 285.324219 352.402344 L 285.324219 360.449219 L 293.375 360.449219 L 293.375 344.351562 L 301.425781 344.351562 L 301.425781 352.402344 L 309.476562 352.402344 L 309.476562 344.351562 L 317.527344 344.351562 L 317.527344 352.402344 L 325.574219 352.402344 L 325.574219 336.300781 Z M 317.527344 336.300781 "
         id="path4309" />
      <path
         style="stroke:#ffffff;fill-rule:nonzero;fill:rgb(100%, 72%, 33%);fill-opacity:1;stroke-opacity:1;stroke-width:9.6;stroke-miterlimit:4;stroke-dasharray:none"
         d="M 341.675781 288 L 333.625 288 L 333.625 296.050781 L 341.675781 296.050781 Z M 341.675781 288 "
         id="path4311" />
      <path
         style="stroke:#ffffff;fill-rule:nonzero;fill:rgb(100%, 72%, 33%);fill-opacity:1;stroke-opacity:1;stroke-width:9.6;stroke-miterlimit:4;stroke-dasharray:none"
         d="M 325.574219 296.050781 L 325.574219 288 L 317.527344 288 L 317.527344 296.050781 L 309.476562 296.050781 L 309.476562 288 L 301.425781 288 L 301.425781 296.050781 L 293.375 296.050781 L 293.375 320.199219 L 301.425781 320.199219 L 301.425781 328.25 L 341.675781 328.25 L 341.675781 304.101562 L 333.625 304.101562 L 333.625 296.050781 L 325.574219 296.050781 M 317.527344 320.199219 L 317.527344 312.152344 L 325.574219 312.152344 L 325.574219 320.199219 Z M 317.527344 320.199219 "
         id="path4313" />
      <path
         style="stroke:#ffffff;fill-rule:nonzero;fill:rgb(100%, 72%, 33%);fill-opacity:1;stroke-opacity:1;stroke-width:9.6;stroke-miterlimit:4;stroke-dasharray:none"
         d="M 438.277344 408.75 L 438.277344 416.800781 L 446.324219 416.800781 L 446.324219 408.75 Z M 438.277344 408.75 "
         id="path4315" />
      <path
         style="stroke:#ffffff;fill-rule:nonzero;fill:rgb(100%, 72%, 33%);fill-opacity:1;stroke-opacity:1;stroke-width:9.6;stroke-miterlimit:4;stroke-dasharray:none"
         d="M 430.226562 400.699219 L 430.226562 408.75 L 438.277344 408.75 L 438.277344 400.699219 Z M 430.226562 400.699219 "
         id="path4317" />
      <path
         style="stroke:#ffffff;fill-rule:nonzero;fill:rgb(100%, 72%, 33%);fill-opacity:1;stroke-opacity:1;stroke-width:9.6;stroke-miterlimit:4;stroke-dasharray:none"
         d="M 430.226562 392.652344 L 422.175781 392.652344 L 422.175781 400.699219 L 430.226562 400.699219 Z M 430.226562 392.652344 "
         id="path4319" />
      <path
         style="stroke:#ffffff;fill-rule:nonzero;fill:rgb(100%, 72%, 33%);fill-opacity:1;stroke-opacity:1;stroke-width:9.6;stroke-miterlimit:4;stroke-dasharray:none"
         d="M 422.175781 400.699219 L 414.125 400.699219 L 414.125 392.652344 L 398.027344 392.652344 L 398.027344 400.699219 L 406.074219 400.699219 L 406.074219 408.75 L 398.027344 408.75 L 398.027344 400.699219 L 373.875 400.699219 L 373.875 392.652344 L 357.777344 392.652344 L 357.777344 400.699219 L 365.824219 400.699219 L 365.824219 408.75 L 357.777344 408.75 L 357.777344 400.699219 L 349.726562 400.699219 L 349.726562 392.652344 L 341.675781 392.652344 L 341.675781 408.75 L 349.726562 408.75 L 349.726562 416.800781 L 430.226562 416.800781 L 430.226562 408.75 L 422.175781 408.75 Z M 422.175781 400.699219 "
         id="path4321" />
      <path
         style="stroke:#ffffff;fill-rule:nonzero;fill:rgb(100%, 72%, 33%);fill-opacity:1;stroke-opacity:1;stroke-width:9.6;stroke-miterlimit:4;stroke-dasharray:none"
         d="M 156.527344 384.601562 L 140.425781 384.601562 L 140.425781 392.652344 L 132.375 392.652344 L 132.375 384.601562 L 140.425781 384.601562 L 140.425781 376.550781 L 116.277344 376.550781 L 116.277344 384.601562 L 108.226562 384.601562 L 108.226562 400.699219 L 156.527344 400.699219 L 156.527344 392.652344 L 164.574219 392.652344 L 164.574219 384.601562 Z M 156.527344 384.601562 "
         id="path4323" />
      <path
         style="stroke:#ffffff;fill-rule:nonzero;fill:rgb(100%, 72%, 33%);fill-opacity:1;stroke-opacity:1;stroke-width:9.6;stroke-miterlimit:4;stroke-dasharray:none"
         d="M 188.726562 392.652344 L 164.574219 392.652344 L 164.574219 400.699219 L 196.777344 400.699219 L 196.777344 392.652344 Z M 188.726562 392.652344 "
         id="path4325" />
      <path
         style="stroke:#ffffff;fill-rule:nonzero;fill:rgb(100%, 72%, 33%);fill-opacity:1;stroke-opacity:1;stroke-width:9.6;stroke-miterlimit:4;stroke-dasharray:none"
         d="M 454.375 175.300781 L 446.324219 175.300781 L 446.324219 167.25 L 430.226562 167.25 L 430.226562 159.199219 L 398.027344 159.199219 L 398.027344 167.25 L 389.976562 167.25 L 389.976562 175.300781 L 381.925781 175.300781 L 381.925781 183.351562 L 389.976562 183.351562 L 389.976562 199.449219 L 398.027344 199.449219 L 398.027344 207.5 L 454.375 207.5 L 454.375 199.449219 L 462.425781 199.449219 L 462.425781 175.300781 Z M 454.375 175.300781 "
         id="path4327" />
      <path
         style="stroke:#ffffff;fill-rule:nonzero;fill:rgb(100%, 40%, 0%);fill-opacity:1;stroke-opacity:1;stroke-width:9.6;stroke-miterlimit:4;stroke-dasharray:none"
         d="M 220.925781 352.402344 L 212.875 352.402344 L 212.875 344.351562 L 220.925781 344.351562 Z M 220.925781 352.402344 "
         id="path4329" />
      <path
         style="stroke:#ffffff;fill-rule:nonzero;fill:rgb(100%, 40%, 0%);fill-opacity:1;stroke-opacity:1;stroke-width:9.6;stroke-miterlimit:4;stroke-dasharray:none"
         d="M 220.925781 320.199219 L 212.875 320.199219 L 212.875 328.25 L 228.976562 328.25 L 228.976562 320.199219 Z M 220.925781 320.199219 "
         id="path4331" />
      <path
         style="stroke:#ffffff;fill-rule:nonzero;fill:rgb(100%, 40%, 0%);fill-opacity:1;stroke-opacity:1;stroke-width:9.6;stroke-miterlimit:4;stroke-dasharray:none"
         d="M 188.726562 320.199219 L 164.574219 320.199219 L 164.574219 328.25 L 196.777344 328.25 L 196.777344 320.199219 Z M 188.726562 320.199219 "
         id="path4333" />
      <path
         style="stroke:#ffffff;fill-rule:nonzero;fill:rgb(100%, 40%, 0%);fill-opacity:1;stroke-opacity:1;stroke-width:9.6;stroke-miterlimit:4;stroke-dasharray:none"
         d="M 156.527344 328.25 L 148.476562 328.25 L 148.476562 336.300781 L 164.574219 336.300781 L 164.574219 328.25 Z M 156.527344 328.25 "
         id="path4335" />
      <path
         style="stroke:#ffffff;fill-rule:nonzero;fill:rgb(100%, 40%, 0%);fill-opacity:1;stroke-opacity:1;stroke-width:9.6;stroke-miterlimit:4;stroke-dasharray:none"
         d="M 140.425781 336.300781 L 140.425781 352.402344 L 148.476562 352.402344 L 148.476562 336.300781 Z M 140.425781 336.300781 "
         id="path4337" />
      <path
         style="stroke:#ffffff;fill-rule:nonzero;fill:rgb(100%, 40%, 0%);fill-opacity:1;stroke-opacity:1;stroke-width:9.6;stroke-miterlimit:4;stroke-dasharray:none"
         d="M 180.675781 263.851562 L 172.625 263.851562 L 172.625 255.800781 L 180.675781 255.800781 Z M 180.675781 263.851562 "
         id="path4339" />
      <path
         style="stroke:#ffffff;fill-rule:nonzero;fill:rgb(100%, 40%, 0%);fill-opacity:1;stroke-opacity:1;stroke-width:9.6;stroke-miterlimit:4;stroke-dasharray:none"
         d="M 212.875 279.949219 L 212.875 271.902344 L 196.777344 271.902344 L 196.777344 263.851562 L 180.675781 263.851562 L 180.675781 271.902344 L 188.726562 271.902344 L 188.726562 279.949219 L 196.777344 279.949219 L 196.777344 288 L 220.925781 288 L 220.925781 279.949219 Z M 212.875 279.949219 "
         id="path4341" />
      <path
         style="stroke:#ffffff;fill-rule:nonzero;fill:rgb(100%, 40%, 0%);fill-opacity:1;stroke-opacity:1;stroke-width:9.6;stroke-miterlimit:4;stroke-dasharray:none"
         d="M 261.175781 328.25 L 228.976562 328.25 L 228.976562 336.300781 L 237.027344 336.300781 L 237.027344 352.402344 L 245.074219 352.402344 L 245.074219 336.300781 L 269.226562 336.300781 L 269.226562 328.25 Z M 261.175781 328.25 "
         id="path4343" />
      <path
         style="stroke:#ffffff;fill-rule:nonzero;fill:rgb(100%, 40%, 0%);fill-opacity:1;stroke-opacity:1;stroke-width:9.6;stroke-miterlimit:4;stroke-dasharray:none"
         d="M 245.074219 368.5 L 237.027344 368.5 L 237.027344 360.449219 L 245.074219 360.449219 Z M 245.074219 368.5 "
         id="path4345" />
      <path
         style="stroke:#ffffff;fill-rule:nonzero;fill:rgb(100%, 40%, 0%);fill-opacity:1;stroke-opacity:1;stroke-width:9.6;stroke-miterlimit:4;stroke-dasharray:none"
         d="M 253.125 360.449219 L 245.074219 360.449219 L 245.074219 352.402344 L 253.125 352.402344 Z M 253.125 360.449219 "
         id="path4347" />
      <path
         style="stroke:#ffffff;fill-rule:nonzero;fill:rgb(100%, 40%, 0%);fill-opacity:1;stroke-opacity:1;stroke-width:9.6;stroke-miterlimit:4;stroke-dasharray:none"
         d="M 261.175781 352.402344 L 253.125 352.402344 L 253.125 344.351562 L 261.175781 344.351562 Z M 261.175781 352.402344 "
         id="path4349" />
      <path
         style="stroke:#ffffff;fill-rule:nonzero;fill:rgb(100%, 40%, 0%);fill-opacity:1;stroke-opacity:1;stroke-width:9.6;stroke-miterlimit:4;stroke-dasharray:none"
         d="M 261.175781 352.402344 L 261.175781 368.5 L 269.226562 368.5 L 269.226562 352.402344 Z M 261.175781 352.402344 "
         id="path4351" />
      <path
         style="stroke:#ffffff;fill-rule:nonzero;fill:rgb(100%, 40%, 0%);fill-opacity:1;stroke-opacity:1;stroke-width:9.6;stroke-miterlimit:4;stroke-dasharray:none"
         d="M 277.277344 352.402344 L 269.226562 352.402344 L 269.226562 344.351562 L 277.277344 344.351562 Z M 277.277344 352.402344 "
         id="path4353" />
      <path
         style="stroke:#ffffff;fill-rule:nonzero;fill:rgb(100%, 40%, 0%);fill-opacity:1;stroke-opacity:1;stroke-width:9.6;stroke-miterlimit:4;stroke-dasharray:none"
         d="M 277.277344 328.25 L 269.226562 328.25 L 269.226562 320.199219 L 277.277344 320.199219 Z M 277.277344 328.25 "
         id="path4355" />
      <path
         style="stroke:#ffffff;fill-rule:nonzero;fill:rgb(100%, 40%, 0%);fill-opacity:1;stroke-opacity:1;stroke-width:9.6;stroke-miterlimit:4;stroke-dasharray:none"
         d="M 285.324219 296.050781 L 277.277344 296.050781 L 277.277344 320.199219 L 293.375 320.199219 L 293.375 296.050781 Z M 285.324219 296.050781 "
         id="path4357" />
      <path
         style="stroke:#ffffff;fill-rule:nonzero;fill:rgb(100%, 40%, 0%);fill-opacity:1;stroke-opacity:1;stroke-width:9.6;stroke-miterlimit:4;stroke-dasharray:none"
         d="M 277.277344 296.050781 L 269.226562 296.050781 L 269.226562 288 L 277.277344 288 Z M 277.277344 296.050781 "
         id="path4359" />
      <path
         style="stroke:#ffffff;fill-rule:nonzero;fill:rgb(100%, 40%, 0%);fill-opacity:1;stroke-opacity:1;stroke-width:9.6;stroke-miterlimit:4;stroke-dasharray:none"
         d="M 301.425781 296.050781 L 293.375 296.050781 L 293.375 288 L 301.425781 288 Z M 301.425781 296.050781 "
         id="path4361" />
      <path
         style="stroke:#ffffff;fill-rule:nonzero;fill:rgb(100%, 40%, 0%);fill-opacity:1;stroke-opacity:1;stroke-width:9.6;stroke-miterlimit:4;stroke-dasharray:none"
         d="M 301.425781 328.25 L 293.375 328.25 L 293.375 320.199219 L 301.425781 320.199219 Z M 301.425781 328.25 "
         id="path4363" />
      <path
         style="stroke:#ffffff;fill-rule:nonzero;fill:rgb(100%, 40%, 0%);fill-opacity:1;stroke-opacity:1;stroke-width:9.6;stroke-miterlimit:4;stroke-dasharray:none"
         d="M 301.425781 352.402344 L 293.375 352.402344 L 293.375 344.351562 L 301.425781 344.351562 Z M 301.425781 352.402344 "
         id="path4365" />
      <path
         style="stroke:#ffffff;fill-rule:nonzero;fill:rgb(100%, 40%, 0%);fill-opacity:1;stroke-opacity:1;stroke-width:9.6;stroke-miterlimit:4;stroke-dasharray:none"
         d="M 277.277344 360.449219 L 277.277344 368.5 L 285.324219 368.5 L 285.324219 352.402344 L 277.277344 352.402344 Z M 277.277344 360.449219 "
         id="path4367" />
      <path
         style="stroke:#ffffff;fill-rule:nonzero;fill:rgb(100%, 40%, 0%);fill-opacity:1;stroke-opacity:1;stroke-width:9.6;stroke-miterlimit:4;stroke-dasharray:none"
         d="M 301.425781 352.402344 L 301.425781 368.5 L 309.476562 368.5 L 309.476562 352.402344 Z M 301.425781 352.402344 "
         id="path4369" />
      <path
         style="stroke:#ffffff;fill-rule:nonzero;fill:rgb(100%, 40%, 0%);fill-opacity:1;stroke-opacity:1;stroke-width:9.6;stroke-miterlimit:4;stroke-dasharray:none"
         d="M 317.527344 352.402344 L 309.476562 352.402344 L 309.476562 344.351562 L 317.527344 344.351562 Z M 317.527344 352.402344 "
         id="path4371" />
      <path
         style="stroke:#ffffff;fill-rule:nonzero;fill:rgb(100%, 40%, 0%);fill-opacity:1;stroke-opacity:1;stroke-width:9.6;stroke-miterlimit:4;stroke-dasharray:none"
         d="M 325.574219 360.449219 L 317.527344 360.449219 L 317.527344 352.402344 L 325.574219 352.402344 Z M 325.574219 360.449219 "
         id="path4373" />
      <path
         style="stroke:#ffffff;fill-rule:nonzero;fill:rgb(100%, 40%, 0%);fill-opacity:1;stroke-opacity:1;stroke-width:9.6;stroke-miterlimit:4;stroke-dasharray:none"
         d="M 333.625 368.5 L 325.574219 368.5 L 325.574219 360.449219 L 333.625 360.449219 Z M 333.625 368.5 "
         id="path4375" />
      <path
         style="stroke:#ffffff;fill-rule:nonzero;fill:rgb(100%, 40%, 0%);fill-opacity:1;stroke-opacity:1;stroke-width:9.6;stroke-miterlimit:4;stroke-dasharray:none"
         d="M 317.527344 296.050781 L 309.476562 296.050781 L 309.476562 288 L 317.527344 288 Z M 317.527344 296.050781 "
         id="path4377" />
      <path
         style="stroke:#ffffff;fill-rule:nonzero;fill:rgb(100%, 40%, 0%);fill-opacity:1;stroke-opacity:1;stroke-width:9.6;stroke-miterlimit:4;stroke-dasharray:none"
         d="M 333.625 296.050781 L 325.574219 296.050781 L 325.574219 288 L 333.625 288 Z M 333.625 296.050781 "
         id="path4379" />
      <path
         style="stroke:#ffffff;fill-rule:nonzero;fill:rgb(100%, 40%, 0%);fill-opacity:1;stroke-opacity:1;stroke-width:9.6;stroke-miterlimit:4;stroke-dasharray:none"
         d="M 341.675781 304.101562 L 333.625 304.101562 L 333.625 296.050781 L 341.675781 296.050781 Z M 341.675781 304.101562 "
         id="path4381" />
      <path
         style="stroke:#ffffff;fill-rule:nonzero;fill:rgb(100%, 40%, 0%);fill-opacity:1;stroke-opacity:1;stroke-width:9.6;stroke-miterlimit:4;stroke-dasharray:none"
         d="M 349.726562 304.101562 L 341.675781 304.101562 L 341.675781 328.25 L 349.726562 328.25 L 349.726562 320.199219 L 357.777344 320.199219 L 357.777344 304.101562 Z M 349.726562 304.101562 "
         id="path4383" />
      <path
         style="stroke:#ffffff;fill-rule:nonzero;fill:rgb(100%, 40%, 0%);fill-opacity:1;stroke-opacity:1;stroke-width:9.6;stroke-miterlimit:4;stroke-dasharray:none"
         d="M 357.777344 296.050781 L 349.726562 296.050781 L 349.726562 288 L 357.777344 288 Z M 357.777344 296.050781 "
         id="path4385" />
      <path
         style="stroke:#ffffff;fill-rule:nonzero;fill:rgb(100%, 40%, 0%);fill-opacity:1;stroke-opacity:1;stroke-width:9.6;stroke-miterlimit:4;stroke-dasharray:none"
         d="M 365.824219 304.101562 L 357.777344 304.101562 L 357.777344 296.050781 L 365.824219 296.050781 Z M 365.824219 304.101562 "
         id="path4387" />
      <path
         style="stroke:#ffffff;fill-rule:nonzero;fill:rgb(100%, 40%, 0%);fill-opacity:1;stroke-opacity:1;stroke-width:9.6;stroke-miterlimit:4;stroke-dasharray:none"
         d="M 365.824219 328.25 L 357.777344 328.25 L 357.777344 320.199219 L 365.824219 320.199219 Z M 365.824219 328.25 "
         id="path4389" />
      <path
         style="stroke:#ffffff;fill-rule:nonzero;fill:rgb(100%, 40%, 0%);fill-opacity:1;stroke-opacity:1;stroke-width:9.6;stroke-miterlimit:4;stroke-dasharray:none"
         d="M 357.777344 336.300781 L 349.726562 336.300781 L 349.726562 328.25 L 357.777344 328.25 Z M 357.777344 336.300781 "
         id="path4391" />
      <path
         style="stroke:#ffffff;fill-rule:nonzero;fill:rgb(100%, 40%, 0%);fill-opacity:1;stroke-opacity:1;stroke-width:9.6;stroke-miterlimit:4;stroke-dasharray:none"
         d="M 333.625 328.25 L 301.425781 328.25 L 301.425781 336.300781 L 325.574219 336.300781 L 325.574219 352.402344 L 333.625 352.402344 L 333.625 336.300781 L 341.675781 336.300781 L 341.675781 328.25 Z M 333.625 328.25 "
         id="path4393" />
      <path
         style="stroke:#ffffff;fill-rule:nonzero;fill:rgb(100%, 40%, 0%);fill-opacity:1;stroke-opacity:1;stroke-width:9.6;stroke-miterlimit:4;stroke-dasharray:none"
         d="M 389.976562 328.25 L 381.925781 328.25 L 381.925781 320.199219 L 389.976562 320.199219 Z M 389.976562 328.25 "
         id="path4395" />
      <path
         style="stroke:#ffffff;fill-rule:nonzero;fill:rgb(100%, 40%, 0%);fill-opacity:1;stroke-opacity:1;stroke-width:9.6;stroke-miterlimit:4;stroke-dasharray:none"
         d="M 398.027344 336.300781 L 389.976562 336.300781 L 389.976562 328.25 L 398.027344 328.25 Z M 398.027344 336.300781 "
         id="path4397" />
      <path
         style="stroke:#ffffff;fill-rule:nonzero;fill:rgb(100%, 40%, 0%);fill-opacity:1;stroke-opacity:1;stroke-width:9.6;stroke-miterlimit:4;stroke-dasharray:none"
         d="M 406.074219 344.351562 L 398.027344 344.351562 L 398.027344 336.300781 L 406.074219 336.300781 Z M 406.074219 344.351562 "
         id="path4399" />
      <path
         style="stroke:#ffffff;fill-rule:nonzero;fill:rgb(100%, 40%, 0%);fill-opacity:1;stroke-opacity:1;stroke-width:9.6;stroke-miterlimit:4;stroke-dasharray:none"
         d="M 414.125 352.402344 L 414.125 376.550781 L 422.175781 376.550781 L 422.175781 352.402344 Z M 414.125 352.402344 "
         id="path4401" />
      <path
         style="stroke:#ffffff;fill-rule:nonzero;fill:rgb(100%, 40%, 0%);fill-opacity:1;stroke-opacity:1;stroke-width:9.6;stroke-miterlimit:4;stroke-dasharray:none"
         d="M 414.125 352.402344 L 406.074219 352.402344 L 406.074219 344.351562 L 414.125 344.351562 Z M 414.125 352.402344 "
         id="path4403" />
      <path
         style="stroke:#ffffff;fill-rule:nonzero;fill:rgb(100%, 40%, 0%);fill-opacity:1;stroke-opacity:1;stroke-width:9.6;stroke-miterlimit:4;stroke-dasharray:none"
         d="M 430.226562 408.75 L 422.175781 408.75 L 422.175781 400.699219 L 430.226562 400.699219 Z M 430.226562 408.75 "
         id="path4405" />
      <path
         style="stroke:#ffffff;fill-rule:nonzero;fill:rgb(100%, 40%, 0%);fill-opacity:1;stroke-opacity:1;stroke-width:9.6;stroke-miterlimit:4;stroke-dasharray:none"
         d="M 438.277344 416.800781 L 430.226562 416.800781 L 430.226562 408.75 L 438.277344 408.75 Z M 438.277344 416.800781 "
         id="path4407" />
      <path
         style="stroke:#ffffff;fill-rule:nonzero;fill:rgb(100%, 40%, 0%);fill-opacity:1;stroke-opacity:1;stroke-width:9.6;stroke-miterlimit:4;stroke-dasharray:none"
         d="M 446.324219 239.699219 L 438.277344 239.699219 L 438.277344 231.652344 L 446.324219 231.652344 Z M 446.324219 239.699219 "
         id="path4409" />
      <path
         style="stroke:#ffffff;fill-rule:nonzero;fill:rgb(100%, 40%, 0%);fill-opacity:1;stroke-opacity:1;stroke-width:9.6;stroke-miterlimit:4;stroke-dasharray:none"
         d="M 430.226562 191.402344 L 422.175781 191.402344 L 422.175781 183.351562 L 430.226562 183.351562 Z M 430.226562 191.402344 "
         id="path4411" />
      <path
         style="stroke:#ffffff;fill-rule:nonzero;fill:rgb(100%, 40%, 0%);fill-opacity:1;stroke-opacity:1;stroke-width:9.6;stroke-miterlimit:4;stroke-dasharray:none"
         d="M 438.277344 183.351562 L 430.226562 183.351562 L 430.226562 175.300781 L 438.277344 175.300781 Z M 438.277344 183.351562 "
         id="path4413" />
      <path
         style="stroke:#ffffff;fill-rule:nonzero;fill:rgb(100%, 40%, 0%);fill-opacity:1;stroke-opacity:1;stroke-width:9.6;stroke-miterlimit:4;stroke-dasharray:none"
         d="M 414.125 175.300781 L 406.074219 175.300781 L 406.074219 167.25 L 414.125 167.25 Z M 414.125 175.300781 "
         id="path4415" />
      <path
         style="stroke:#ffffff;fill-rule:nonzero;fill:rgb(100%, 40%, 0%);fill-opacity:1;stroke-opacity:1;stroke-width:9.6;stroke-miterlimit:4;stroke-dasharray:none"
         d="M 422.175781 199.449219 L 414.125 199.449219 L 414.125 191.402344 L 422.175781 191.402344 Z M 422.175781 199.449219 "
         id="path4417" />
      <path
         style="stroke:#ffffff;fill-rule:nonzero;fill:rgb(100%, 40%, 0%);fill-opacity:1;stroke-opacity:1;stroke-width:9.6;stroke-miterlimit:4;stroke-dasharray:none"
         d="M 196.777344 223.601562 L 188.726562 223.601562 L 188.726562 215.550781 L 196.777344 215.550781 Z M 196.777344 223.601562 "
         id="path4419" />
      <path
         style="stroke:#ffffff;fill-rule:nonzero;fill:rgb(100%, 40%, 0%);fill-opacity:1;stroke-opacity:1;stroke-width:9.6;stroke-miterlimit:4;stroke-dasharray:none"
         d="M 172.625 239.699219 L 164.574219 239.699219 L 164.574219 231.652344 L 172.625 231.652344 Z M 172.625 239.699219 "
         id="path4421" />
      <path
         style="stroke:#ffffff;fill-rule:nonzero;fill:rgb(100%, 40%, 0%);fill-opacity:1;stroke-opacity:1;stroke-width:9.6;stroke-miterlimit:4;stroke-dasharray:none"
         d="M 148.476562 255.800781 L 140.425781 255.800781 L 140.425781 247.75 L 148.476562 247.75 Z M 148.476562 255.800781 "
         id="path4423" />
      <path
         style="stroke:#ffffff;fill-rule:nonzero;fill:rgb(100%, 40%, 0%);fill-opacity:1;stroke-opacity:1;stroke-width:9.6;stroke-miterlimit:4;stroke-dasharray:none"
         d="M 172.625 223.601562 L 172.625 231.652344 L 188.726562 231.652344 L 188.726562 223.601562 Z M 172.625 223.601562 "
         id="path4425" />
      <path
         style="stroke:#ffffff;fill-rule:nonzero;fill:rgb(100%, 40%, 0%);fill-opacity:1;stroke-opacity:1;stroke-width:9.6;stroke-miterlimit:4;stroke-dasharray:none"
         d="M 446.324219 191.402344 L 446.324219 199.449219 L 438.277344 199.449219 L 438.277344 207.5 L 454.375 207.5 L 454.375 191.402344 Z M 446.324219 191.402344 "
         id="path4427" />
      <path
         style="stroke:#ffffff;fill-rule:nonzero;fill:rgb(100%, 40%, 0%);fill-opacity:1;stroke-opacity:1;stroke-width:9.6;stroke-miterlimit:4;stroke-dasharray:none"
         d="M 422.175781 207.5 L 422.175781 223.601562 L 430.226562 223.601562 L 430.226562 231.652344 L 438.277344 231.652344 L 438.277344 207.5 Z M 422.175781 207.5 "
         id="path4429" />
      <path
         style="stroke:#ffffff;fill-rule:nonzero;fill:rgb(100%, 40%, 0%);fill-opacity:1;stroke-opacity:1;stroke-width:9.6;stroke-miterlimit:4;stroke-dasharray:none"
         d="M 406.074219 175.300781 L 398.027344 175.300781 L 398.027344 183.351562 L 389.976562 183.351562 L 389.976562 191.402344 L 414.125 191.402344 L 414.125 183.351562 L 406.074219 183.351562 Z M 406.074219 175.300781 "
         id="path4431" />
      <path
         style="stroke:#ffffff;fill-rule:nonzero;fill:rgb(100%, 40%, 0%);fill-opacity:1;stroke-opacity:1;stroke-width:9.6;stroke-miterlimit:4;stroke-dasharray:none"
         d="M 148.476562 239.699219 L 148.476562 247.75 L 164.574219 247.75 L 164.574219 239.699219 Z M 148.476562 239.699219 "
         id="path4433" />
      <path
         style="stroke:#ffffff;fill-rule:nonzero;fill:rgb(100%, 100%, 100%);fill-opacity:1;stroke-opacity:1;stroke-width:9.6;stroke-miterlimit:4;stroke-dasharray:none"
         d="M 269.226562 191.402344 L 269.226562 207.5 L 277.277344 207.5 L 277.277344 199.449219 L 285.324219 199.449219 L 285.324219 191.402344 Z M 269.226562 191.402344 "
         id="path4435" />
      <path
         style="stroke:#ffffff;fill-rule:nonzero;fill:rgb(100%, 100%, 100%);fill-opacity:1;stroke-opacity:1;stroke-width:9.6;stroke-miterlimit:4;stroke-dasharray:none"
         d="M 301.425781 207.5 L 309.476562 207.5 L 309.476562 191.402344 L 293.375 191.402344 L 293.375 199.449219 L 301.425781 199.449219 Z M 301.425781 207.5 "
         id="path4437" />
      <path
         style="stroke:#ffffff;fill-rule:nonzero;fill:rgb(100%, 100%, 100%);fill-opacity:1;stroke-opacity:1;stroke-width:9.6;stroke-miterlimit:4;stroke-dasharray:none"
         d="M 341.675781 231.652344 L 341.675781 223.601562 L 325.574219 223.601562 L 325.574219 239.699219 L 333.625 239.699219 L 333.625 247.75 L 325.574219 247.75 L 325.574219 255.800781 L 341.675781 255.800781 L 341.675781 239.699219 L 349.726562 239.699219 L 349.726562 231.652344 Z M 341.675781 231.652344 "
         id="path4439" />
      <path
         style="stroke:#ffffff;fill-rule:nonzero;fill:rgb(100%, 100%, 100%);fill-opacity:1;stroke-opacity:1;stroke-width:9.6;stroke-miterlimit:4;stroke-dasharray:none"
         d="M 237.027344 231.652344 L 237.027344 223.601562 L 253.125 223.601562 L 253.125 239.699219 L 245.074219 239.699219 L 245.074219 247.75 L 253.125 247.75 L 253.125 255.800781 L 237.027344 255.800781 L 237.027344 239.699219 L 228.976562 239.699219 L 228.976562 231.652344 Z M 237.027344 231.652344 "
         id="path4441" />
      <path
         style="stroke:#ffffff;fill-rule:nonzero;fill:rgb(100%, 100%, 100%);fill-opacity:1;stroke-opacity:1;stroke-width:9.6;stroke-miterlimit:4;stroke-dasharray:none"
         d="M 301.425781 231.652344 L 293.375 231.652344 L 293.375 239.699219 L 301.425781 239.699219 L 301.425781 247.75 L 293.375 247.75 L 293.375 263.851562 L 317.527344 263.851562 L 317.527344 247.75 L 309.476562 247.75 L 309.476562 239.699219 L 317.527344 239.699219 L 317.527344 231.652344 Z M 301.425781 231.652344 "
         id="path4443" />
      <path
         style="stroke:#ffffff;fill-rule:nonzero;fill:rgb(100%, 100%, 100%);fill-opacity:1;stroke-opacity:1;stroke-width:9.6;stroke-miterlimit:4;stroke-dasharray:none"
         d="M 269.226562 231.652344 L 261.175781 231.652344 L 261.175781 239.699219 L 269.226562 239.699219 L 269.226562 247.75 L 261.175781 247.75 L 261.175781 263.851562 L 285.324219 263.851562 L 285.324219 247.75 L 277.277344 247.75 L 277.277344 239.699219 L 285.324219 239.699219 L 285.324219 231.652344 Z M 269.226562 231.652344 "
         id="path4445" />
    </g>
    <g
       id="surface1">
      <path
         id="path5"
         d="M 470.476562 215.550781 L 470.476562 191.402344 L 462.425781 191.402344 L 462.425781 175.300781 L 446.324219 175.300781 L 446.324219 167.25 L 430.226562 167.25 L 430.226562 159.199219 L 398.027344 159.199219 L 398.027344 167.25 L 389.976562 167.25 L 389.976562 175.300781 L 381.925781 175.300781 L 381.925781 183.351562 L 389.976562 183.351562 L 389.976562 199.449219 L 398.027344 199.449219 L 398.027344 207.5 L 422.175781 207.5 L 422.175781 215.550781 L 373.875 215.550781 L 373.875 207.5 L 365.824219 207.5 L 365.824219 199.449219 L 357.777344 199.449219 L 357.777344 191.402344 L 341.675781 191.402344 L 341.675781 183.351562 L 333.625 183.351562 L 333.625 175.300781 L 325.574219 175.300781 L 325.574219 167.25 L 317.527344 167.25 L 317.527344 159.199219 L 261.175781 159.199219 L 261.175781 167.25 L 253.125 167.25 L 253.125 175.300781 L 245.074219 175.300781 L 245.074219 183.351562 L 237.027344 183.351562 L 237.027344 191.402344 L 212.875 191.402344 L 212.875 199.449219 L 204.824219 199.449219 L 204.824219 215.550781 L 188.726562 215.550781 L 188.726562 223.601562 L 172.625 223.601562 L 172.625 231.652344 L 164.574219 231.652344 L 164.574219 239.699219 L 148.476562 239.699219 L 148.476562 247.75 L 140.425781 247.75 L 140.425781 255.800781 L 132.375 255.800781 L 132.375 288 L 140.425781 288 L 140.425781 296.050781 L 148.476562 296.050781 L 148.476562 304.101562 L 156.527344 304.101562 L 156.527344 312.152344 L 180.675781 312.152344 L 180.675781 320.199219 L 164.574219 320.199219 L 164.574219 328.25 L 148.476562 328.25 L 148.476562 336.300781 L 140.425781 336.300781 L 140.425781 368.5 L 132.375 368.5 L 132.375 376.550781 L 116.277344 376.550781 L 116.277344 384.601562 L 108.226562 384.601562 L 108.226562 400.699219 L 196.777344 400.699219 L 196.777344 384.601562 L 204.824219 384.601562 L 204.824219 376.550781 L 237.027344 376.550781 L 237.027344 368.5 L 317.527344 368.5 L 317.527344 376.550781 L 325.574219 376.550781 L 325.574219 384.601562 L 333.625 384.601562 L 333.625 392.652344 L 341.675781 392.652344 L 341.675781 408.75 L 349.726562 408.75 L 349.726562 416.800781 L 446.324219 416.800781 L 446.324219 408.75 L 438.277344 408.75 L 438.277344 400.699219 L 430.226562 400.699219 L 430.226562 392.652344 L 414.125 392.652344 L 414.125 376.550781 L 422.175781 376.550781 L 422.175781 352.402344 L 414.125 352.402344 L 414.125 344.351562 L 406.074219 344.351562 L 406.074219 336.300781 L 398.027344 336.300781 L 398.027344 328.25 L 389.976562 328.25 L 389.976562 296.050781 L 398.027344 296.050781 L 398.027344 288 L 406.074219 288 L 406.074219 279.949219 L 422.175781 279.949219 L 422.175781 271.902344 L 438.277344 271.902344 L 438.277344 263.851562 L 446.324219 263.851562 L 446.324219 255.800781 L 462.425781 255.800781 L 462.425781 247.75 L 470.476562 247.75 L 470.476562 239.699219 L 478.527344 239.699219 L 478.527344 215.550781 Z M 470.476562 215.550781 "
         style=" stroke:none;fill-rule:nonzero;fill:rgb(59.999084%,19.999695%,0%);fill-opacity:1;" />
      <path
         id="path7"
         d="M 470.476562 215.550781 L 470.476562 191.402344 L 462.425781 191.402344 L 462.425781 175.300781 L 446.324219 175.300781 L 446.324219 167.25 L 430.226562 167.25 L 430.226562 159.199219 L 398.027344 159.199219 L 398.027344 167.25 L 389.976562 167.25 L 389.976562 175.300781 L 381.925781 175.300781 L 381.925781 183.351562 L 389.976562 183.351562 L 389.976562 199.449219 L 398.027344 199.449219 L 398.027344 207.5 L 422.175781 207.5 L 422.175781 215.550781 L 373.875 215.550781 L 373.875 207.5 L 365.824219 207.5 L 365.824219 199.449219 L 357.777344 199.449219 L 357.777344 191.402344 L 341.675781 191.402344 L 341.675781 183.351562 L 333.625 183.351562 L 333.625 175.300781 L 325.574219 175.300781 L 325.574219 167.25 L 317.527344 167.25 L 317.527344 159.199219 L 261.175781 159.199219 L 261.175781 167.25 L 253.125 167.25 L 253.125 175.300781 L 245.074219 175.300781 L 245.074219 183.351562 L 237.027344 183.351562 L 237.027344 191.402344 L 212.875 191.402344 L 212.875 199.449219 L 204.824219 199.449219 L 204.824219 215.550781 L 188.726562 215.550781 L 188.726562 223.601562 L 172.625 223.601562 L 172.625 231.652344 L 164.574219 231.652344 L 164.574219 239.699219 L 148.476562 239.699219 L 148.476562 247.75 L 140.425781 247.75 L 140.425781 255.800781 L 132.375 255.800781 L 132.375 288 L 140.425781 288 L 140.425781 296.050781 L 148.476562 296.050781 L 148.476562 304.101562 L 156.527344 304.101562 L 156.527344 312.152344 L 180.675781 312.152344 L 180.675781 320.199219 L 164.574219 320.199219 L 164.574219 328.25 L 148.476562 328.25 L 148.476562 336.300781 L 140.425781 336.300781 L 140.425781 368.5 L 132.375 368.5 L 132.375 376.550781 L 116.277344 376.550781 L 116.277344 384.601562 L 108.226562 384.601562 L 108.226562 400.699219 L 196.777344 400.699219 L 196.777344 384.601562 L 204.824219 384.601562 L 204.824219 376.550781 L 237.027344 376.550781 L 237.027344 368.5 L 317.527344 368.5 L 317.527344 376.550781 L 325.574219 376.550781 L 325.574219 384.601562 L 333.625 384.601562 L 333.625 392.652344 L 341.675781 392.652344 L 341.675781 408.75 L 349.726562 408.75 L 349.726562 416.800781 L 446.324219 416.800781 L 446.324219 408.75 L 438.277344 408.75 L 438.277344 400.699219 L 430.226562 400.699219 L 430.226562 392.652344 L 414.125 392.652344 L 414.125 376.550781 L 422.175781 376.550781 L 422.175781 352.402344 L 414.125 352.402344 L 414.125 344.351562 L 406.074219 344.351562 L 406.074219 336.300781 L 398.027344 336.300781 L 398.027344 328.25 L 389.976562 328.25 L 389.976562 296.050781 L 398.027344 296.050781 L 398.027344 288 L 406.074219 288 L 406.074219 279.949219 L 422.175781 279.949219 L 422.175781 271.902344 L 438.277344 271.902344 L 438.277344 263.851562 L 446.324219 263.851562 L 446.324219 255.800781 L 462.425781 255.800781 L 462.425781 247.75 L 470.476562 247.75 L 470.476562 239.699219 L 478.527344 239.699219 L 478.527344 215.550781 Z M 470.476562 215.550781 "
         style=" stroke:none;fill-rule:nonzero;fill:rgb(72.158813%,0%,0%);fill-opacity:1;" />
      <path
         id="path9"
         d="M 357.777344 199.449219 L 357.777344 191.402344 L 341.675781 191.402344 L 341.675781 215.550781 L 325.574219 215.550781 L 325.574219 199.449219 L 333.625 199.449219 L 333.625 191.402344 L 325.574219 191.402344 L 325.574219 183.351562 L 317.527344 183.351562 L 317.527344 175.300781 L 301.425781 175.300781 L 301.425781 183.351562 L 293.375 183.351562 L 293.375 191.402344 L 309.476562 191.402344 L 309.476562 207.5 L 293.375 207.5 L 293.375 191.402344 L 285.324219 191.402344 L 285.324219 207.5 L 269.226562 207.5 L 269.226562 191.402344 L 285.324219 191.402344 L 285.324219 183.351562 L 277.277344 183.351562 L 277.277344 175.300781 L 261.175781 175.300781 L 261.175781 183.351562 L 253.125 183.351562 L 253.125 191.402344 L 245.074219 191.402344 L 245.074219 199.449219 L 253.125 199.449219 L 253.125 215.550781 L 228.976562 215.550781 L 228.976562 191.402344 L 212.875 191.402344 L 212.875 199.449219 L 204.824219 199.449219 L 204.824219 215.550781 L 220.925781 215.550781 L 220.925781 223.601562 L 212.875 223.601562 L 212.875 247.75 L 220.925781 247.75 L 220.925781 255.800781 L 228.976562 255.800781 L 228.976562 263.851562 L 253.125 263.851562 L 253.125 271.902344 L 325.574219 271.902344 L 325.574219 263.851562 L 341.675781 263.851562 L 341.675781 255.800781 L 317.527344 255.800781 L 317.527344 263.851562 L 293.375 263.851562 L 293.375 255.800781 L 285.324219 255.800781 L 285.324219 263.851562 L 261.175781 263.851562 L 261.175781 255.800781 L 237.027344 255.800781 L 237.027344 247.75 L 228.976562 247.75 L 228.976562 231.652344 L 237.027344 231.652344 L 237.027344 223.601562 L 253.125 223.601562 L 253.125 231.652344 L 325.574219 231.652344 L 325.574219 223.601562 L 341.675781 223.601562 L 341.675781 231.652344 L 349.726562 231.652344 L 349.726562 247.75 L 357.777344 247.75 L 357.777344 223.601562 L 349.726562 223.601562 L 349.726562 215.550781 L 365.824219 215.550781 L 365.824219 199.449219 L 357.777344 199.449219 M 293.375 223.601562 L 277.277344 223.601562 L 277.277344 215.550781 L 301.425781 215.550781 L 301.425781 223.601562 Z M 293.375 223.601562 "
         style=" stroke:none;fill-rule:nonzero;fill:rgb(100%,72.158813%,33.329773%);fill-opacity:1;" />
      <path
         id="path11"
         d="M 341.675781 255.800781 L 349.726562 255.800781 L 349.726562 247.75 L 341.675781 247.75 Z M 341.675781 255.800781 "
         style=" stroke:none;fill-rule:nonzero;fill:rgb(100%,72.158813%,33.329773%);fill-opacity:1;" />
      <path
         id="path13"
         d="M 269.226562 296.050781 L 269.226562 288 L 253.125 288 L 253.125 279.949219 L 228.976562 279.949219 L 228.976562 296.050781 L 237.027344 296.050781 L 237.027344 304.101562 L 245.074219 304.101562 L 245.074219 296.050781 L 253.125 296.050781 L 253.125 304.101562 L 245.074219 304.101562 L 245.074219 312.152344 L 253.125 312.152344 L 253.125 320.199219 L 245.074219 320.199219 L 245.074219 312.152344 L 237.027344 312.152344 L 237.027344 320.199219 L 228.976562 320.199219 L 228.976562 328.25 L 269.226562 328.25 L 269.226562 320.199219 L 277.277344 320.199219 L 277.277344 296.050781 Z M 269.226562 296.050781 "
         style=" stroke:none;fill-rule:nonzero;fill:rgb(100%,72.158813%,33.329773%);fill-opacity:1;" />
      <path
         id="path15"
         d="M 253.125 360.449219 L 261.175781 360.449219 L 261.175781 352.402344 L 253.125 352.402344 Z M 253.125 360.449219 "
         style=" stroke:none;fill-rule:nonzero;fill:rgb(100%,72.158813%,33.329773%);fill-opacity:1;" />
      <path
         id="path17"
         d="M 269.226562 360.449219 L 277.277344 360.449219 L 277.277344 352.402344 L 269.226562 352.402344 Z M 269.226562 360.449219 "
         style=" stroke:none;fill-rule:nonzero;fill:rgb(100%,72.158813%,33.329773%);fill-opacity:1;" />
      <path
         id="path19"
         d="M 309.476562 360.449219 L 317.527344 360.449219 L 317.527344 352.402344 L 309.476562 352.402344 Z M 309.476562 360.449219 "
         style=" stroke:none;fill-rule:nonzero;fill:rgb(100%,72.158813%,33.329773%);fill-opacity:1;" />
      <path
         id="path21"
         d="M 317.527344 336.300781 L 301.425781 336.300781 L 301.425781 328.25 L 293.375 328.25 L 293.375 320.199219 L 277.277344 320.199219 L 277.277344 328.25 L 269.226562 328.25 L 269.226562 336.300781 L 245.074219 336.300781 L 245.074219 352.402344 L 253.125 352.402344 L 253.125 344.351562 L 261.175781 344.351562 L 261.175781 352.402344 L 269.226562 352.402344 L 269.226562 344.351562 L 277.277344 344.351562 L 277.277344 352.402344 L 285.324219 352.402344 L 285.324219 360.449219 L 293.375 360.449219 L 293.375 344.351562 L 301.425781 344.351562 L 301.425781 352.402344 L 309.476562 352.402344 L 309.476562 344.351562 L 317.527344 344.351562 L 317.527344 352.402344 L 325.574219 352.402344 L 325.574219 336.300781 Z M 317.527344 336.300781 "
         style=" stroke:none;fill-rule:nonzero;fill:rgb(100%,72.158813%,33.329773%);fill-opacity:1;" />
      <path
         id="path23"
         d="M 341.675781 288 L 333.625 288 L 333.625 296.050781 L 341.675781 296.050781 Z M 341.675781 288 "
         style=" stroke:none;fill-rule:nonzero;fill:rgb(100%,72.158813%,33.329773%);fill-opacity:1;" />
      <path
         id="path25"
         d="M 325.574219 296.050781 L 325.574219 288 L 317.527344 288 L 317.527344 296.050781 L 309.476562 296.050781 L 309.476562 288 L 301.425781 288 L 301.425781 296.050781 L 293.375 296.050781 L 293.375 320.199219 L 301.425781 320.199219 L 301.425781 328.25 L 341.675781 328.25 L 341.675781 304.101562 L 333.625 304.101562 L 333.625 296.050781 L 325.574219 296.050781 M 317.527344 320.199219 L 317.527344 312.152344 L 325.574219 312.152344 L 325.574219 320.199219 Z M 317.527344 320.199219 "
         style=" stroke:none;fill-rule:nonzero;fill:rgb(100%,72.158813%,33.329773%);fill-opacity:1;" />
      <path
         id="path27"
         d="M 438.277344 408.75 L 438.277344 416.800781 L 446.324219 416.800781 L 446.324219 408.75 Z M 438.277344 408.75 "
         style=" stroke:none;fill-rule:nonzero;fill:rgb(100%,72.158813%,33.329773%);fill-opacity:1;" />
      <path
         id="path29"
         d="M 430.226562 400.699219 L 430.226562 408.75 L 438.277344 408.75 L 438.277344 400.699219 Z M 430.226562 400.699219 "
         style=" stroke:none;fill-rule:nonzero;fill:rgb(100%,72.158813%,33.329773%);fill-opacity:1;" />
      <path
         id="path31"
         d="M 430.226562 392.652344 L 422.175781 392.652344 L 422.175781 400.699219 L 430.226562 400.699219 Z M 430.226562 392.652344 "
         style=" stroke:none;fill-rule:nonzero;fill:rgb(100%,72.158813%,33.329773%);fill-opacity:1;" />
      <path
         id="path33"
         d="M 422.175781 400.699219 L 414.125 400.699219 L 414.125 392.652344 L 398.027344 392.652344 L 398.027344 400.699219 L 406.074219 400.699219 L 406.074219 408.75 L 398.027344 408.75 L 398.027344 400.699219 L 373.875 400.699219 L 373.875 392.652344 L 357.777344 392.652344 L 357.777344 400.699219 L 365.824219 400.699219 L 365.824219 408.75 L 357.777344 408.75 L 357.777344 400.699219 L 349.726562 400.699219 L 349.726562 392.652344 L 341.675781 392.652344 L 341.675781 408.75 L 349.726562 408.75 L 349.726562 416.800781 L 430.226562 416.800781 L 430.226562 408.75 L 422.175781 408.75 Z M 422.175781 400.699219 "
         style=" stroke:none;fill-rule:nonzero;fill:rgb(100%,72.158813%,33.329773%);fill-opacity:1;" />
      <path
         id="path35"
         d="M 156.527344 384.601562 L 140.425781 384.601562 L 140.425781 392.652344 L 132.375 392.652344 L 132.375 384.601562 L 140.425781 384.601562 L 140.425781 376.550781 L 116.277344 376.550781 L 116.277344 384.601562 L 108.226562 384.601562 L 108.226562 400.699219 L 156.527344 400.699219 L 156.527344 392.652344 L 164.574219 392.652344 L 164.574219 384.601562 Z M 156.527344 384.601562 "
         style=" stroke:none;fill-rule:nonzero;fill:rgb(100%,72.158813%,33.329773%);fill-opacity:1;" />
      <path
         id="path37"
         d="M 188.726562 392.652344 L 164.574219 392.652344 L 164.574219 400.699219 L 196.777344 400.699219 L 196.777344 392.652344 Z M 188.726562 392.652344 "
         style=" stroke:none;fill-rule:nonzero;fill:rgb(100%,72.158813%,33.329773%);fill-opacity:1;" />
      <path
         id="path39"
         d="M 454.375 175.300781 L 446.324219 175.300781 L 446.324219 167.25 L 430.226562 167.25 L 430.226562 159.199219 L 398.027344 159.199219 L 398.027344 167.25 L 389.976562 167.25 L 389.976562 175.300781 L 381.925781 175.300781 L 381.925781 183.351562 L 389.976562 183.351562 L 389.976562 199.449219 L 398.027344 199.449219 L 398.027344 207.5 L 454.375 207.5 L 454.375 199.449219 L 462.425781 199.449219 L 462.425781 175.300781 Z M 454.375 175.300781 "
         style=" stroke:none;fill-rule:nonzero;fill:rgb(100%,72.158813%,33.329773%);fill-opacity:1;" />
      <path
         id="path41"
         d="M 220.925781 352.402344 L 212.875 352.402344 L 212.875 344.351562 L 220.925781 344.351562 Z M 220.925781 352.402344 "
         style=" stroke:none;fill-rule:nonzero;fill:rgb(100%,40.779114%,0%);fill-opacity:1;" />
      <path
         id="path43"
         d="M 220.925781 320.199219 L 212.875 320.199219 L 212.875 328.25 L 228.976562 328.25 L 228.976562 320.199219 Z M 220.925781 320.199219 "
         style=" stroke:none;fill-rule:nonzero;fill:rgb(100%,40.779114%,0%);fill-opacity:1;" />
      <path
         id="path45"
         d="M 188.726562 320.199219 L 164.574219 320.199219 L 164.574219 328.25 L 196.777344 328.25 L 196.777344 320.199219 Z M 188.726562 320.199219 "
         style=" stroke:none;fill-rule:nonzero;fill:rgb(100%,40.779114%,0%);fill-opacity:1;" />
      <path
         id="path47"
         d="M 156.527344 328.25 L 148.476562 328.25 L 148.476562 336.300781 L 164.574219 336.300781 L 164.574219 328.25 Z M 156.527344 328.25 "
         style=" stroke:none;fill-rule:nonzero;fill:rgb(100%,40.779114%,0%);fill-opacity:1;" />
      <path
         id="path49"
         d="M 140.425781 336.300781 L 140.425781 352.402344 L 148.476562 352.402344 L 148.476562 336.300781 Z M 140.425781 336.300781 "
         style=" stroke:none;fill-rule:nonzero;fill:rgb(100%,40.779114%,0%);fill-opacity:1;" />
      <path
         id="path51"
         d="M 180.675781 263.851562 L 172.625 263.851562 L 172.625 255.800781 L 180.675781 255.800781 Z M 180.675781 263.851562 "
         style=" stroke:none;fill-rule:nonzero;fill:rgb(100%,40.779114%,0%);fill-opacity:1;" />
      <path
         id="path53"
         d="M 212.875 279.949219 L 212.875 271.902344 L 196.777344 271.902344 L 196.777344 263.851562 L 180.675781 263.851562 L 180.675781 271.902344 L 188.726562 271.902344 L 188.726562 279.949219 L 196.777344 279.949219 L 196.777344 288 L 220.925781 288 L 220.925781 279.949219 Z M 212.875 279.949219 "
         style=" stroke:none;fill-rule:nonzero;fill:rgb(100%,40.779114%,0%);fill-opacity:1;" />
      <path
         id="path55"
         d="M 261.175781 328.25 L 228.976562 328.25 L 228.976562 336.300781 L 237.027344 336.300781 L 237.027344 352.402344 L 245.074219 352.402344 L 245.074219 336.300781 L 269.226562 336.300781 L 269.226562 328.25 Z M 261.175781 328.25 "
         style=" stroke:none;fill-rule:nonzero;fill:rgb(100%,40.779114%,0%);fill-opacity:1;" />
      <path
         id="path57"
         d="M 245.074219 368.5 L 237.027344 368.5 L 237.027344 360.449219 L 245.074219 360.449219 Z M 245.074219 368.5 "
         style=" stroke:none;fill-rule:nonzero;fill:rgb(100%,40.779114%,0%);fill-opacity:1;" />
      <path
         id="path59"
         d="M 253.125 360.449219 L 245.074219 360.449219 L 245.074219 352.402344 L 253.125 352.402344 Z M 253.125 360.449219 "
         style=" stroke:none;fill-rule:nonzero;fill:rgb(100%,40.779114%,0%);fill-opacity:1;" />
      <path
         id="path61"
         d="M 261.175781 352.402344 L 253.125 352.402344 L 253.125 344.351562 L 261.175781 344.351562 Z M 261.175781 352.402344 "
         style=" stroke:none;fill-rule:nonzero;fill:rgb(100%,40.779114%,0%);fill-opacity:1;" />
      <path
         id="path63"
         d="M 261.175781 352.402344 L 261.175781 368.5 L 269.226562 368.5 L 269.226562 352.402344 Z M 261.175781 352.402344 "
         style=" stroke:none;fill-rule:nonzero;fill:rgb(100%,40.779114%,0%);fill-opacity:1;" />
      <path
         id="path65"
         d="M 277.277344 352.402344 L 269.226562 352.402344 L 269.226562 344.351562 L 277.277344 344.351562 Z M 277.277344 352.402344 "
         style=" stroke:none;fill-rule:nonzero;fill:rgb(100%,40.779114%,0%);fill-opacity:1;" />
      <path
         id="path67"
         d="M 277.277344 328.25 L 269.226562 328.25 L 269.226562 320.199219 L 277.277344 320.199219 Z M 277.277344 328.25 "
         style=" stroke:none;fill-rule:nonzero;fill:rgb(100%,40.779114%,0%);fill-opacity:1;" />
      <path
         id="path69"
         d="M 285.324219 296.050781 L 277.277344 296.050781 L 277.277344 320.199219 L 293.375 320.199219 L 293.375 296.050781 Z M 285.324219 296.050781 "
         style=" stroke:none;fill-rule:nonzero;fill:rgb(100%,40.779114%,0%);fill-opacity:1;" />
      <path
         id="path71"
         d="M 277.277344 296.050781 L 269.226562 296.050781 L 269.226562 288 L 277.277344 288 Z M 277.277344 296.050781 "
         style=" stroke:none;fill-rule:nonzero;fill:rgb(100%,40.779114%,0%);fill-opacity:1;" />
      <path
         id="path73"
         d="M 301.425781 296.050781 L 293.375 296.050781 L 293.375 288 L 301.425781 288 Z M 301.425781 296.050781 "
         style=" stroke:none;fill-rule:nonzero;fill:rgb(100%,40.779114%,0%);fill-opacity:1;" />
      <path
         id="path75"
         d="M 301.425781 328.25 L 293.375 328.25 L 293.375 320.199219 L 301.425781 320.199219 Z M 301.425781 328.25 "
         style=" stroke:none;fill-rule:nonzero;fill:rgb(100%,40.779114%,0%);fill-opacity:1;" />
      <path
         id="path77"
         d="M 301.425781 352.402344 L 293.375 352.402344 L 293.375 344.351562 L 301.425781 344.351562 Z M 301.425781 352.402344 "
         style=" stroke:none;fill-rule:nonzero;fill:rgb(100%,40.779114%,0%);fill-opacity:1;" />
      <path
         id="path79"
         d="M 277.277344 360.449219 L 277.277344 368.5 L 285.324219 368.5 L 285.324219 352.402344 L 277.277344 352.402344 Z M 277.277344 360.449219 "
         style=" stroke:none;fill-rule:nonzero;fill:rgb(100%,40.779114%,0%);fill-opacity:1;" />
      <path
         id="path81"
         d="M 301.425781 352.402344 L 301.425781 368.5 L 309.476562 368.5 L 309.476562 352.402344 Z M 301.425781 352.402344 "
         style=" stroke:none;fill-rule:nonzero;fill:rgb(100%,40.779114%,0%);fill-opacity:1;" />
      <path
         id="path83"
         d="M 317.527344 352.402344 L 309.476562 352.402344 L 309.476562 344.351562 L 317.527344 344.351562 Z M 317.527344 352.402344 "
         style=" stroke:none;fill-rule:nonzero;fill:rgb(100%,40.779114%,0%);fill-opacity:1;" />
      <path
         id="path85"
         d="M 325.574219 360.449219 L 317.527344 360.449219 L 317.527344 352.402344 L 325.574219 352.402344 Z M 325.574219 360.449219 "
         style=" stroke:none;fill-rule:nonzero;fill:rgb(100%,40.779114%,0%);fill-opacity:1;" />
      <path
         id="path87"
         d="M 333.625 368.5 L 325.574219 368.5 L 325.574219 360.449219 L 333.625 360.449219 Z M 333.625 368.5 "
         style=" stroke:none;fill-rule:nonzero;fill:rgb(100%,40.779114%,0%);fill-opacity:1;" />
      <path
         id="path89"
         d="M 317.527344 296.050781 L 309.476562 296.050781 L 309.476562 288 L 317.527344 288 Z M 317.527344 296.050781 "
         style=" stroke:none;fill-rule:nonzero;fill:rgb(100%,40.779114%,0%);fill-opacity:1;" />
      <path
         id="path91"
         d="M 333.625 296.050781 L 325.574219 296.050781 L 325.574219 288 L 333.625 288 Z M 333.625 296.050781 "
         style=" stroke:none;fill-rule:nonzero;fill:rgb(100%,40.779114%,0%);fill-opacity:1;" />
      <path
         id="path93"
         d="M 341.675781 304.101562 L 333.625 304.101562 L 333.625 296.050781 L 341.675781 296.050781 Z M 341.675781 304.101562 "
         style=" stroke:none;fill-rule:nonzero;fill:rgb(100%,40.779114%,0%);fill-opacity:1;" />
      <path
         id="path95"
         d="M 349.726562 304.101562 L 341.675781 304.101562 L 341.675781 328.25 L 349.726562 328.25 L 349.726562 320.199219 L 357.777344 320.199219 L 357.777344 304.101562 Z M 349.726562 304.101562 "
         style=" stroke:none;fill-rule:nonzero;fill:rgb(100%,40.779114%,0%);fill-opacity:1;" />
      <path
         id="path97"
         d="M 357.777344 296.050781 L 349.726562 296.050781 L 349.726562 288 L 357.777344 288 Z M 357.777344 296.050781 "
         style=" stroke:none;fill-rule:nonzero;fill:rgb(100%,40.779114%,0%);fill-opacity:1;" />
      <path
         id="path99"
         d="M 365.824219 304.101562 L 357.777344 304.101562 L 357.777344 296.050781 L 365.824219 296.050781 Z M 365.824219 304.101562 "
         style=" stroke:none;fill-rule:nonzero;fill:rgb(100%,40.779114%,0%);fill-opacity:1;" />
      <path
         id="path101"
         d="M 365.824219 328.25 L 357.777344 328.25 L 357.777344 320.199219 L 365.824219 320.199219 Z M 365.824219 328.25 "
         style=" stroke:none;fill-rule:nonzero;fill:rgb(100%,40.779114%,0%);fill-opacity:1;" />
      <path
         id="path103"
         d="M 357.777344 336.300781 L 349.726562 336.300781 L 349.726562 328.25 L 357.777344 328.25 Z M 357.777344 336.300781 "
         style=" stroke:none;fill-rule:nonzero;fill:rgb(100%,40.779114%,0%);fill-opacity:1;" />
      <path
         id="path105"
         d="M 333.625 328.25 L 301.425781 328.25 L 301.425781 336.300781 L 325.574219 336.300781 L 325.574219 352.402344 L 333.625 352.402344 L 333.625 336.300781 L 341.675781 336.300781 L 341.675781 328.25 Z M 333.625 328.25 "
         style=" stroke:none;fill-rule:nonzero;fill:rgb(100%,40.779114%,0%);fill-opacity:1;" />
      <path
         id="path107"
         d="M 389.976562 328.25 L 381.925781 328.25 L 381.925781 320.199219 L 389.976562 320.199219 Z M 389.976562 328.25 "
         style=" stroke:none;fill-rule:nonzero;fill:rgb(100%,40.779114%,0%);fill-opacity:1;" />
      <path
         id="path109"
         d="M 398.027344 336.300781 L 389.976562 336.300781 L 389.976562 328.25 L 398.027344 328.25 Z M 398.027344 336.300781 "
         style=" stroke:none;fill-rule:nonzero;fill:rgb(100%,40.779114%,0%);fill-opacity:1;" />
      <path
         id="path111"
         d="M 406.074219 344.351562 L 398.027344 344.351562 L 398.027344 336.300781 L 406.074219 336.300781 Z M 406.074219 344.351562 "
         style=" stroke:none;fill-rule:nonzero;fill:rgb(100%,40.779114%,0%);fill-opacity:1;" />
      <path
         id="path113"
         d="M 414.125 352.402344 L 414.125 376.550781 L 422.175781 376.550781 L 422.175781 352.402344 Z M 414.125 352.402344 "
         style=" stroke:none;fill-rule:nonzero;fill:rgb(100%,40.779114%,0%);fill-opacity:1;" />
      <path
         id="path115"
         d="M 414.125 352.402344 L 406.074219 352.402344 L 406.074219 344.351562 L 414.125 344.351562 Z M 414.125 352.402344 "
         style=" stroke:none;fill-rule:nonzero;fill:rgb(100%,40.779114%,0%);fill-opacity:1;" />
      <path
         id="path117"
         d="M 430.226562 408.75 L 422.175781 408.75 L 422.175781 400.699219 L 430.226562 400.699219 Z M 430.226562 408.75 "
         style=" stroke:none;fill-rule:nonzero;fill:rgb(100%,40.779114%,0%);fill-opacity:1;" />
      <path
         id="path119"
         d="M 438.277344 416.800781 L 430.226562 416.800781 L 430.226562 408.75 L 438.277344 408.75 Z M 438.277344 416.800781 "
         style=" stroke:none;fill-rule:nonzero;fill:rgb(100%,40.779114%,0%);fill-opacity:1;" />
      <path
         id="path121"
         d="M 446.324219 239.699219 L 438.277344 239.699219 L 438.277344 231.652344 L 446.324219 231.652344 Z M 446.324219 239.699219 "
         style=" stroke:none;fill-rule:nonzero;fill:rgb(100%,40.779114%,0%);fill-opacity:1;" />
      <path
         id="path123"
         d="M 430.226562 191.402344 L 422.175781 191.402344 L 422.175781 183.351562 L 430.226562 183.351562 Z M 430.226562 191.402344 "
         style=" stroke:none;fill-rule:nonzero;fill:rgb(100%,40.779114%,0%);fill-opacity:1;" />
      <path
         id="path125"
         d="M 438.277344 183.351562 L 430.226562 183.351562 L 430.226562 175.300781 L 438.277344 175.300781 Z M 438.277344 183.351562 "
         style=" stroke:none;fill-rule:nonzero;fill:rgb(100%,40.779114%,0%);fill-opacity:1;" />
      <path
         id="path127"
         d="M 414.125 175.300781 L 406.074219 175.300781 L 406.074219 167.25 L 414.125 167.25 Z M 414.125 175.300781 "
         style=" stroke:none;fill-rule:nonzero;fill:rgb(100%,40.779114%,0%);fill-opacity:1;" />
      <path
         id="path129"
         d="M 422.175781 199.449219 L 414.125 199.449219 L 414.125 191.402344 L 422.175781 191.402344 Z M 422.175781 199.449219 "
         style=" stroke:none;fill-rule:nonzero;fill:rgb(100%,40.779114%,0%);fill-opacity:1;" />
      <path
         id="path131"
         d="M 196.777344 223.601562 L 188.726562 223.601562 L 188.726562 215.550781 L 196.777344 215.550781 Z M 196.777344 223.601562 "
         style=" stroke:none;fill-rule:nonzero;fill:rgb(100%,40.779114%,0%);fill-opacity:1;" />
      <path
         id="path133"
         d="M 172.625 239.699219 L 164.574219 239.699219 L 164.574219 231.652344 L 172.625 231.652344 Z M 172.625 239.699219 "
         style=" stroke:none;fill-rule:nonzero;fill:rgb(100%,40.779114%,0%);fill-opacity:1;" />
      <path
         id="path135"
         d="M 148.476562 255.800781 L 140.425781 255.800781 L 140.425781 247.75 L 148.476562 247.75 Z M 148.476562 255.800781 "
         style=" stroke:none;fill-rule:nonzero;fill:rgb(100%,40.779114%,0%);fill-opacity:1;" />
      <path
         id="path137"
         d="M 172.625 223.601562 L 172.625 231.652344 L 188.726562 231.652344 L 188.726562 223.601562 Z M 172.625 223.601562 "
         style=" stroke:none;fill-rule:nonzero;fill:rgb(100%,40.779114%,0%);fill-opacity:1;" />
      <path
         id="path139"
         d="M 446.324219 191.402344 L 446.324219 199.449219 L 438.277344 199.449219 L 438.277344 207.5 L 454.375 207.5 L 454.375 191.402344 Z M 446.324219 191.402344 "
         style=" stroke:none;fill-rule:nonzero;fill:rgb(100%,40.779114%,0%);fill-opacity:1;" />
      <path
         id="path141"
         d="M 422.175781 207.5 L 422.175781 223.601562 L 430.226562 223.601562 L 430.226562 231.652344 L 438.277344 231.652344 L 438.277344 207.5 Z M 422.175781 207.5 "
         style=" stroke:none;fill-rule:nonzero;fill:rgb(100%,40.779114%,0%);fill-opacity:1;" />
      <path
         id="path143"
         d="M 406.074219 175.300781 L 398.027344 175.300781 L 398.027344 183.351562 L 389.976562 183.351562 L 389.976562 191.402344 L 414.125 191.402344 L 414.125 183.351562 L 406.074219 183.351562 Z M 406.074219 175.300781 "
         style=" stroke:none;fill-rule:nonzero;fill:rgb(100%,40.779114%,0%);fill-opacity:1;" />
      <path
         id="path145"
         d="M 148.476562 239.699219 L 148.476562 247.75 L 164.574219 247.75 L 164.574219 239.699219 Z M 148.476562 239.699219 "
         style=" stroke:none;fill-rule:nonzero;fill:rgb(100%,40.779114%,0%);fill-opacity:1;" />
      <path
         id="path147"
         d="M 269.226562 191.402344 L 269.226562 207.5 L 277.277344 207.5 L 277.277344 199.449219 L 285.324219 199.449219 L 285.324219 191.402344 Z M 269.226562 191.402344 "
         style=" stroke:none;fill-rule:nonzero;fill:rgb(100%,100%,100%);fill-opacity:1;" />
      <path
         id="path149"
         d="M 301.425781 207.5 L 309.476562 207.5 L 309.476562 191.402344 L 293.375 191.402344 L 293.375 199.449219 L 301.425781 199.449219 Z M 301.425781 207.5 "
         style=" stroke:none;fill-rule:nonzero;fill:rgb(100%,100%,100%);fill-opacity:1;" />
      <path
         id="path151"
         d="M 341.675781 231.652344 L 341.675781 223.601562 L 325.574219 223.601562 L 325.574219 239.699219 L 333.625 239.699219 L 333.625 247.75 L 325.574219 247.75 L 325.574219 255.800781 L 341.675781 255.800781 L 341.675781 239.699219 L 349.726562 239.699219 L 349.726562 231.652344 Z M 341.675781 231.652344 "
         style=" stroke:none;fill-rule:nonzero;fill:rgb(100%,100%,100%);fill-opacity:1;" />
      <path
         id="path153"
         d="M 237.027344 231.652344 L 237.027344 223.601562 L 253.125 223.601562 L 253.125 239.699219 L 245.074219 239.699219 L 245.074219 247.75 L 253.125 247.75 L 253.125 255.800781 L 237.027344 255.800781 L 237.027344 239.699219 L 228.976562 239.699219 L 228.976562 231.652344 Z M 237.027344 231.652344 "
         style=" stroke:none;fill-rule:nonzero;fill:rgb(100%,100%,100%);fill-opacity:1;" />
      <path
         id="path155"
         d="M 301.425781 231.652344 L 293.375 231.652344 L 293.375 239.699219 L 301.425781 239.699219 L 301.425781 247.75 L 293.375 247.75 L 293.375 263.851562 L 317.527344 263.851562 L 317.527344 247.75 L 309.476562 247.75 L 309.476562 239.699219 L 317.527344 239.699219 L 317.527344 231.652344 Z M 301.425781 231.652344 "
         style=" stroke:none;fill-rule:nonzero;fill:rgb(100%,100%,100%);fill-opacity:1;" />
      <path
         id="path157"
         d="M 269.226562 231.652344 L 261.175781 231.652344 L 261.175781 239.699219 L 269.226562 239.699219 L 269.226562 247.75 L 261.175781 247.75 L 261.175781 263.851562 L 285.324219 263.851562 L 285.324219 247.75 L 277.277344 247.75 L 277.277344 239.699219 L 285.324219 239.699219 L 285.324219 231.652344 Z M 269.226562 231.652344 "
         style=" stroke:none;fill-rule:nonzero;fill:rgb(100%,100%,100%);fill-opacity:1;" />
    </g>
  </g>
</svg>
