<?xml version="1.0" encoding="UTF-8" standalone="no"?>
<!-- Created with Inkscape (http://www.inkscape.org/) -->

<svg
   xmlns:dc="http://purl.org/dc/elements/1.1/"
   xmlns:cc="http://creativecommons.org/ns#"
   xmlns:rdf="http://www.w3.org/1999/02/22-rdf-syntax-ns#"
   xmlns:svg="http://www.w3.org/2000/svg"
   xmlns="http://www.w3.org/2000/svg"
   xmlns:sodipodi="http://sodipodi.sourceforge.net/DTD/sodipodi-0.dtd"
   xmlns:inkscape="http://www.inkscape.org/namespaces/inkscape"
   width="210mm"
   height="297mm"
   viewBox="0 0 744.09448819 1052.3622047"
   id="svg4387"
   version="1.1"
   inkscape:version="0.91 r13725"
   sodipodi:docname="invader.svg">
  <defs
     id="defs4389" />
  <sodipodi:namedview
     id="base"
     pagecolor="#ffffff"
     bordercolor="#666666"
     borderopacity="1.0"
     inkscape:pageopacity="0.0"
     inkscape:pageshadow="2"
     inkscape:zoom="1.4"
     inkscape:cx="-1380.9889"
     inkscape:cy="810.56136"
     inkscape:document-units="px"
     inkscape:current-layer="layer1"
     showgrid="true"
     guidetolerance="10000"
     inkscape:snap-bbox="true"
     inkscape:snap-global="true"
     inkscape:object-nodes="true"
     inkscape:window-width="1920"
     inkscape:window-height="1005"
     inkscape:window-x="-9"
     inkscape:window-y="-9"
     inkscape:window-maximized="1">
    <inkscape:grid
       type="xygrid"
       id="grid4935"
       spacingx="10"
       spacingy="10" />
  </sodipodi:namedview>
  <metadata
     id="metadata4392">
    <rdf:RDF>
      <cc:Work
         rdf:about="">
        <dc:format>image/svg+xml</dc:format>
        <dc:type
           rdf:resource="http://purl.org/dc/dcmitype/StillImage" />
        <dc:title />
      </cc:Work>
    </rdf:RDF>
  </metadata>
  <g
     inkscape:label="Layer 1"
     inkscape:groupmode="layer"
     id="layer1">
    <path
       style="opacity:1;fill:#00ca00;fill-opacity:1;stroke:#ffffff;stroke-width:6;stroke-miterlimit:4;stroke-dasharray:none;stroke-opacity:1;stroke-linejoin:miter"
       d="m -1400,402.36133 0,-50 50,0 50,0 0,50 -50,0 -50,0 z m 0,-50 -50,0 0,-50 0,-50 -50,0 0,50 0,50 -50,0 0,-50 0,-50 0,-50 50,0 0,-50 50,0 0,-50 50,0 0,-50.000002 50,0 0,50.000002 150,0 0,-50.000002 50,0 0,50.000002 50,0 0,50 50,0 0,50 50,0 0,50 0,50 0,50 -50,0 0,-50 0,-50 -50,0 0,50 0,50 -50,0 0,-50 -250,0 0,50 z m 250,0 0,50 -50,0 -50,0 0,-50 50,0 50,0 z m 0,-300.000002 0,-49.9999999 50,0 0,49.9999999 -50,0 z m -250,0 -50,0 0,-49.9999999 50,0 0,49.9999999 z m 0,150.000002 50,0 0,-50 -50,0 0,50 z m 200,0 50,0 0,-50 -50,0 0,50 z"
       id="rect4937-5-4"
       inkscape:connector-curvature="0"
       inkscape:export-xdpi="64.748199"
       inkscape:export-ydpi="64.748199" />
  </g>
</svg>
