<?xml version="1.0" encoding="UTF-8" standalone="no"?>
<!-- Created with Inkscape (http://www.inkscape.org/) -->

<svg
   xmlns:dc="http://purl.org/dc/elements/1.1/"
   xmlns:cc="http://creativecommons.org/ns#"
   xmlns:rdf="http://www.w3.org/1999/02/22-rdf-syntax-ns#"
   xmlns:svg="http://www.w3.org/2000/svg"
   xmlns="http://www.w3.org/2000/svg"
   xmlns:sodipodi="http://sodipodi.sourceforge.net/DTD/sodipodi-0.dtd"
   xmlns:inkscape="http://www.inkscape.org/namespaces/inkscape"
   width="210mm"
   height="297mm"
   viewBox="0 0 744.09448819 1052.3622047"
   id="svg2"
   version="1.1"
   inkscape:version="0.91 r13725"
   sodipodi:docname="si_characters.svg">
  <defs
     id="defs4" />
  <sodipodi:namedview
     id="base"
     pagecolor="#ffffff"
     bordercolor="#666666"
     borderopacity="1.0"
     inkscape:pageopacity="0.0"
     inkscape:pageshadow="2"
     inkscape:zoom="1.979899"
     inkscape:cx="-1263.8124"
     inkscape:cy="174.52551"
     inkscape:document-units="px"
     inkscape:current-layer="layer1"
     showgrid="false"
     inkscape:window-width="1920"
     inkscape:window-height="1005"
     inkscape:window-x="-9"
     inkscape:window-y="-9"
     inkscape:window-maximized="1" />
  <metadata
     id="metadata7">
    <rdf:RDF>
      <cc:Work
         rdf:about="">
        <dc:format>image/svg+xml</dc:format>
        <dc:type
           rdf:resource="http://purl.org/dc/dcmitype/StillImage" />
        <dc:title></dc:title>
      </cc:Work>
    </rdf:RDF>
  </metadata>
  <g
     inkscape:label="Layer 1"
     inkscape:groupmode="layer"
     id="layer1">
    <g
       id="g10"
       transform="matrix(1.3333333,0,0,-1.3333333,-1515.5955,1122.6488)">
      <g
         id="g12"
         transform="scale(0.1,0.1)">
        <path
           d="m 2490.2,1038.78 0,100.01 -77.29,0 -1.9,72.73 -70.45,0 1.9,68.17 -175.01,0 0,77.36 -434.71,0 0,-77.36 -175,0 1.89,-68.17 -70.45,0 -1.9,-72.73 -77.28,0 0,-100.01 -75.01,0 0,-47.725 152.29,0 0,-65.926 68.17,0 0,-81.817 81.82,0 0,79.547 70.47,0 0,61.379 165.25,0 0,-59.109 154.21,0 0,59.109 165.25,0 0,-61.379 70.46,0 0,-79.547 81.82,0 0,81.817 68.18,0 0,65.926 152.29,0 0,47.725 -75,0 z m -854.47,23.95 -75.9,0 0,76.06 75.9,0 0,-76.06 z m 239.15,0 -75.88,0 0,76.06 75.88,0 0,-76.06 z m 228.19,0 -75.88,0 0,76.06 75.88,0 0,-76.06 z m 237.3,0 -75.9,0 0,76.06 75.9,0 0,-76.06"
           style="fill:#eb222c;fill-opacity:1;fill-rule:nonzero;stroke:none"
           id="path14"
           inkscape:connector-curvature="0" />
        <path
           d="m 1559.83,1062.73 75.8984,0 0,76.0625 -75.8984,0 0,-76.0625 z"
           style="fill:#ffffff;fill-opacity:1;fill-rule:nonzero;stroke:none"
           id="path16"
           inkscape:connector-curvature="0" />
        <path
           d="m 1799,1062.73 75.8789,0 0,76.0625 -75.8789,0 0,-76.0625 z"
           style="fill:#ffffff;fill-opacity:1;fill-rule:nonzero;stroke:none"
           id="path18"
           inkscape:connector-curvature="0" />
        <path
           d="m 2264.47,1062.73 75.8984,0 0,76.0625 -75.8984,0 0,-76.0625 z"
           style="fill:#ffffff;fill-opacity:1;fill-rule:nonzero;stroke:none"
           id="path20"
           inkscape:connector-curvature="0" />
        <path
           d="m 2027.19,1062.73 75.8789,0 0,76.0625 -75.8789,0 0,-76.0625 z"
           style="fill:#ffffff;fill-opacity:1;fill-rule:nonzero;stroke:none"
           id="path22"
           inkscape:connector-curvature="0" />
        <path
           d="m 167.836,2339.44 95.4883,0 0,95.4961 -95.4883,0 0,-95.4961 z"
           style="fill:#94cc48;fill-opacity:1;fill-rule:nonzero;stroke:none"
           id="path24"
           inkscape:connector-curvature="0" />
        <path
           d="m 575.91,2434.93 0,71.53 -72.183,0 0,95.07 143.164,0 0,147.11 -75.485,0 0,91 -69.468,0 0,73.57 -92.911,0 0,69.66 -147.031,0 0,-69.66 -92.918,0 0,-73.57 -69.4686,0 0,-91 -75.5078,0 0,-147.11 143.1794,0 0,-95.07 -72.1833,0 0,-71.53 -95.0977,0 0,-95.49 95.4727,0 0,95.49 72.3633,0 0,70.71 94.918,0 0,95.89 145.484,0 0,-95.89 94.926,0 0,-70.71 72.387,0 0,-95.49 95.465,0 0,95.49 -95.106,0 z m -313.156,237.93 -95.473,0 0,99.39 95.473,0 0,-99.39 z m 145.484,0 0,99.39 95.489,0 0,-99.39 -95.489,0"
           style="fill:#94cc48;fill-opacity:1;fill-rule:nonzero;stroke:none"
           id="path26"
           inkscape:connector-curvature="0" />
        <path
           d="m 407.691,2339.44 95.4727,0 0,95.4961 -95.4727,0 0,-95.4961 z"
           style="fill:#94cc48;fill-opacity:1;fill-rule:nonzero;stroke:none"
           id="path28"
           inkscape:connector-curvature="0" />
        <path
           d="m 334.758,2506.46 -71.235,0 0,-71.53 143.965,0 0,71.53 -72.73,0"
           style="fill:#94cc48;fill-opacity:1;fill-rule:nonzero;stroke:none"
           id="path30"
           inkscape:connector-curvature="0" />
        <path
           d="m 167.281,2672.86 95.4727,0 0,99.3906 -95.4727,0 0,-99.3906 z"
           style="fill:#ffffff;fill-opacity:1;fill-rule:nonzero;stroke:none"
           id="path32"
           inkscape:connector-curvature="0" />
        <path
           d="m 408.238,2672.86 95.4883,0 0,99.3906 -95.4883,0 0,-99.3906 z"
           style="fill:#ffffff;fill-opacity:1;fill-rule:nonzero;stroke:none"
           id="path34"
           inkscape:connector-curvature="0" />
        <path
           d="m 1086.53,2905.19 72.7461,0 0,71.5352 -72.7461,0 0,-71.5352 z"
           style="fill:#303381;fill-opacity:1;fill-rule:nonzero;stroke:none"
           id="path36"
           inkscape:connector-curvature="0" />
        <path
           d="m 1157.45,2671.3 72.7266,0 0,71.5273 -72.7266,0 0,-71.5273 z"
           style="fill:#ffffff;fill-opacity:1;fill-rule:nonzero;stroke:none"
           id="path38"
           inkscape:connector-curvature="0" />
        <path
           d="m 1011.84,2339.44 72.7461,0 0,71.5234 -72.7461,0 0,-71.5234 z"
           style="fill:#303381;fill-opacity:1;fill-rule:nonzero;stroke:none"
           id="path40"
           inkscape:connector-curvature="0" />
        <path
           d="m 1537.45,2905.19 72.7266,0 0,71.5352 -72.7266,0 0,-71.5352 z"
           style="fill:#303381;fill-opacity:1;fill-rule:nonzero;stroke:none"
           id="path42"
           inkscape:connector-curvature="0" />
        <path
           d="m 1702.16,2902.07 0,-163.35 -94.44,0 0,72.94 -70.57,0 0,94.57 -72.71,0 0,-94.57 -232.15,0 0,94.57 -72.75,0 0,-94.57 -70.56,0 0,-72.94 -94.46,0 0,163.35 -70.844,0 0,-305.03 68.879,0 0,-90.52 92.305,0 0,-96.62 72.73,0 0,96.62 381.5,0 0,-96.62 72.73,0 0,96.62 92.3,0 0,90.52 68.88,0 0,305.03 -70.84,0 z m -471.99,-230.77 -72.72,0 0,71.53 72.72,0 0,-71.53 z m 236.34,71.53 72.75,0 0,-71.53 -72.75,0 0,71.53"
           style="fill:#303381;fill-opacity:1;fill-rule:nonzero;stroke:none"
           id="path44"
           inkscape:connector-curvature="0" />
        <path
           d="m 1466.51,2671.3 72.7539,0 0,71.5273 -72.7539,0 0,-71.5273 z"
           style="fill:#ffffff;fill-opacity:1;fill-rule:nonzero;stroke:none"
           id="path46"
           inkscape:connector-curvature="0" />
        <path
           d="m 1612.11,2339.44 72.7422,0 0,71.5234 -72.7422,0 0,-71.5234 z"
           style="fill:#303381;fill-opacity:1;fill-rule:nonzero;stroke:none"
           id="path48"
           inkscape:connector-curvature="0" />
        <path
           d="m 2281.75,2666.98 142.227,0 0,74.3516 -142.227,0 0,-74.3516 z"
           style="fill:#ffffff;fill-opacity:1;fill-rule:nonzero;stroke:none"
           id="path50"
           inkscape:connector-curvature="0" />
        <path
           d="m 2976.79,2574.28 0,236.17 -73.06,0 0,70.45 -233.52,0 0,94 -319.31,0 0,-94 -233.54,0 0,-70.45 -73.06,0 0,-236.17 234.84,0 0,-93.93 -91.33,0 0,-71.75 -142.22,0 0,-69.16 142.22,0 0,65.24 161.8,0 0,99.17 74.37,0 0,-93.95 173.13,0 0,93.95 74.37,0 0,-99.17 161.8,0 0,-65.24 142.22,0 0,69.16 -142.22,0 0,71.75 -91.34,0 0,93.93 234.85,0 z m -552.81,92.7 -142.23,0 0,74.35 142.23,0 0,-74.35 z m 315.37,0 -142.24,0 0,74.35 142.24,0 0,-74.35"
           style="fill:#cd37a1;fill-opacity:1;fill-rule:nonzero;stroke:none"
           id="path52"
           inkscape:connector-curvature="0" />
        <path
           d="m 2597.11,2666.98 142.238,0 0,74.3516 -142.238,0 0,-74.3516 z"
           style="fill:#ffffff;fill-opacity:1;fill-rule:nonzero;stroke:none"
           id="path54"
           inkscape:connector-curvature="0" />
        <path
           d="m 1118.14,283.367 0,68.996 -304.097,0 0,139.61 -69.801,0 0,70.957 -39.711,0 0,-70.957 -69.785,0 0,-139.61 -304.113,0 0,-68.996 -70.844,0 0,-283.367 929.211,0 0,283.367 -70.86,0"
           style="fill:#eb222c;fill-opacity:1;fill-rule:nonzero;stroke:none"
           id="path56"
           inkscape:connector-curvature="0" />
        <path
           d="m 2067.4,528.848 -234.62,0 0,-82.118 78.2,0 0,-379.3081 74.3,0 0,379.3081 82.12,0 0,82.118"
           style="fill:#eb222c;fill-opacity:1;fill-rule:nonzero;stroke:none"
           id="path58"
           inkscape:connector-curvature="0" />
        <path
           d="m 673.828,844.504 101.68,0 0,344.082 -101.68,0 0,-344.082 z"
           style="fill:#eb222c;fill-opacity:1;fill-rule:nonzero;stroke:none"
           id="path60"
           inkscape:connector-curvature="0" />
        <path
           d="m 1395.39,1773.13 0,256.48 -94.11,0 0,-256.48 -67.53,0 57.3,-90.72 57.29,-90.78 57.29,90.78 57.3,90.72 -67.54,0"
           style="fill:#303381;fill-opacity:1;fill-rule:nonzero;stroke:none"
           id="path62"
           inkscape:connector-curvature="0" />
        <path
           d="m 2400.8,1974.32 c 0,0 74,-74.01 109.2,-109.25 -30.89,-30.88 -109.5,-109.46 -109.5,-109.46 l 156.7,-156.7 55.3,55.29 c 0,0 -67.24,67.26 -101.38,101.41 30.89,30.89 109.48,109.46 109.48,109.46 l -164.51,164.54 -55.29,-55.29"
           style="fill:#cd37a1;fill-opacity:1;fill-rule:nonzero;stroke:none"
           id="path64"
           inkscape:connector-curvature="0" />
        <path
           d="m 264.137,1922.54 -29.114,-29.15 c 0,0 60.864,-60.85 86.485,-86.48 -26.231,-26.23 -88.555,-88.55 -88.555,-88.55 l 111.512,-111.54 58.25,58.26 c 0,0 -28.903,28.92 -53.262,53.27 26.262,26.23 88.609,88.56 88.609,88.56 0,0 -60.906,60.87 -86.535,86.5 21.485,21.5 45.039,45.05 45.039,45.05 l -58.281,58.25 -74.148,-74.17"
           style="fill:#94cc48;fill-opacity:1;fill-rule:nonzero;stroke:none"
           id="path66"
           inkscape:connector-curvature="0" />
      </g>
    </g>
  </g>
</svg>
