<?xml version="1.0" encoding="UTF-8" standalone="no"?>
<!-- Created with Inkscape (http://www.inkscape.org/) -->

<svg
   xmlns:dc="http://purl.org/dc/elements/1.1/"
   xmlns:cc="http://creativecommons.org/ns#"
   xmlns:rdf="http://www.w3.org/1999/02/22-rdf-syntax-ns#"
   xmlns:svg="http://www.w3.org/2000/svg"
   xmlns="http://www.w3.org/2000/svg"
   xmlns:sodipodi="http://sodipodi.sourceforge.net/DTD/sodipodi-0.dtd"
   xmlns:inkscape="http://www.inkscape.org/namespaces/inkscape"
   width="297mm"
   height="210mm"
   viewBox="0 0 1052.3622 744.09448"
   id="svg2"
   version="1.1"
   inkscape:version="0.91 r13725"
   sodipodi:docname="letters.svg">
  <defs
     id="defs4" />
  <sodipodi:namedview
     id="base"
     pagecolor="#ffffff"
     bordercolor="#666666"
     borderopacity="1.0"
     inkscape:pageopacity="0"
     inkscape:pageshadow="2"
     inkscape:zoom="1.28"
     inkscape:cx="620.64245"
     inkscape:cy="514.81795"
     inkscape:document-units="px"
     inkscape:current-layer="layer1"
     showgrid="false"
     inkscape:window-width="1920"
     inkscape:window-height="1005"
     inkscape:window-x="-9"
     inkscape:window-y="-9"
     inkscape:window-maximized="1" />
  <metadata
     id="metadata7">
    <rdf:RDF>
      <cc:Work
         rdf:about="">
        <dc:format>image/svg+xml</dc:format>
        <dc:type
           rdf:resource="http://purl.org/dc/dcmitype/StillImage" />
        <dc:title></dc:title>
      </cc:Work>
    </rdf:RDF>
  </metadata>
  <g
     inkscape:label="Layer 1"
     inkscape:groupmode="layer"
     id="layer1"
     transform="translate(0,-308.26772)">
    <text
       xml:space="preserve"
       style="font-style:normal;font-weight:normal;font-size:40px;line-height:125%;font-family:sans-serif;letter-spacing:0px;word-spacing:0px;fill:#000000;fill-opacity:1;stroke:none;stroke-width:1px;stroke-linecap:butt;stroke-linejoin:miter;stroke-opacity:1"
       x="120.42912"
       y="481.1525"
       id="text4196"
       sodipodi:linespacing="125%"><tspan
         sodipodi:role="line"
         id="tspan4198"
         x="120.42912"
         y="481.1525"
         style="font-style:normal;font-variant:normal;font-weight:normal;font-stretch:normal;font-size:180px;font-family:Jumpman;-inkscape-font-specification:Jumpman;letter-spacing:32px">ARCADE BOB</tspan></text>
    <g
       style="font-style:normal;font-weight:normal;font-size:40px;line-height:125%;font-family:sans-serif;letter-spacing:0px;word-spacing:0px;fill:#000000;fill-opacity:1;stroke:none;stroke-width:1px;stroke-linecap:butt;stroke-linejoin:miter;stroke-opacity:1"
       id="text4204">
      <path
         id="path4281"
         style="font-style:normal;font-variant:normal;font-weight:normal;font-stretch:normal;font-size:180px;font-family:Jumpman;-inkscape-font-specification:Jumpman;fill:#0063ff;fill-opacity:1;stroke:#000000;stroke-width:12;stroke-miterlimit:4;stroke-dasharray:none;stroke-opacity:1"
         d="m 147.36405,785.61377 -0.8789,4.39453 q -2.28516,4.39453 -4.39454,4.39453 l -17.57812,0 q -2.19727,0 -2.19727,-4.39453 l 19.77539,-105.46875 q 2.19727,-4.39453 6.50391,-4.48242 l 15.29297,0 q 4.57031,0.0879 6.76758,4.48242 l 19.77539,105.46875 q 0,4.39453 -2.90039,4.39453 l -16.875,0 q -2.19727,0 -4.39453,-4.39453 l -0.87891,-4.39453 -18.01758,0 z m 13.88672,-21.97266 -4.74609,-24.60937 -4.83399,24.60937 9.58008,0 z"
         inkscape:connector-curvature="0" />
      <path
         id="path4283"
         style="font-style:normal;font-variant:normal;font-weight:normal;font-stretch:normal;font-size:180px;font-family:Jumpman;-inkscape-font-specification:Jumpman;fill:#0063ff;fill-opacity:1;stroke:#000000;stroke-width:12;stroke-miterlimit:4;stroke-dasharray:none;stroke-opacity:1"
         d="m 234.46366,702.11768 -13.18359,0 0,26.36718 13.18359,0 q 5.44922,0 9.31641,-3.86718 3.86718,-3.86719 3.86718,-9.31641 0,-5.44922 -3.86718,-9.31641 -3.86719,-3.86718 -9.31641,-3.86718 z m 13.18359,59.32617 -0.17578,0 q 0.17578,-1.05469 0.17578,-2.19727 0,-5.44922 -3.86718,-9.3164 -3.86719,-3.86719 -9.31641,-3.86719 l -13.18359,0 0,43.94531 q 0,4.39453 -4.39453,4.39453 l -13.1836,0 q -4.39453,0 -4.39453,-4.39453 l 0,-105.46875 q 0,-4.39453 4.39453,-4.39453 l 30.76172,0 q 14.58984,0 24.87305,9.66797 10.2832,9.66797 10.2832,23.29101 0,13.62305 -10.2832,23.29102 -0.43946,0.43945 -0.9668,0.87891 0.52734,0.43945 0.9668,0.8789 10.2832,9.66797 10.2832,23.29102 l 0,28.56445 q 0,4.39453 -4.39453,4.39453 l -13.18359,0 q -4.39454,0 -4.39454,-4.39453 l 0,-28.56445 z"
         inkscape:connector-curvature="0" />
      <path
         id="path4285"
         style="font-style:normal;font-variant:normal;font-weight:normal;font-stretch:normal;font-size:180px;font-family:Jumpman;-inkscape-font-specification:Jumpman;fill:#0063ff;fill-opacity:1;stroke:#000000;stroke-width:12;stroke-miterlimit:4;stroke-dasharray:none;stroke-opacity:1"
         d="m 331.14335,763.64111 13.18359,0 q 4.39453,0 4.39453,4.39453 l 0,4.30665 q -8.78906,22.06054 -26.36718,22.06054 l -8.78907,0 q -14.58984,0 -24.87304,-16.69922 -10.28321,-16.78711 -10.28321,-40.42968 0,-23.64258 10.28321,-40.3418 10.2832,-16.78711 24.87304,-16.78711 l 8.78907,0 q 16.875,0 25.66406,21.97266 l 0,4.39453 q 0,4.39453 -4.39453,4.39453 l -13.1836,0 0,0.17578 q -3.6914,-8.96484 -8.08593,-8.96484 l -8.78907,0 q -5.44922,0 -9.3164,10.2832 -3.86719,10.2832 -3.86719,24.87305 0,14.58984 3.86719,24.87304 3.86718,10.28321 9.3164,10.28321 l 8.78907,0 q 5.09765,0 8.78906,-8.78907 z"
         inkscape:connector-curvature="0" />
      <path
         id="path4287"
         style="font-style:normal;font-variant:normal;font-weight:normal;font-stretch:normal;font-size:180px;font-family:Jumpman;-inkscape-font-specification:Jumpman;fill:#0063ff;fill-opacity:1;stroke:#000000;stroke-width:12;stroke-miterlimit:4;stroke-dasharray:none;stroke-opacity:1"
         d="m 382.55936,785.61377 -0.8789,4.39453 q -2.28516,4.39453 -4.39453,4.39453 l -17.57813,0 q -2.19726,0 -2.19726,-4.39453 l 19.77539,-105.46875 q 2.19726,-4.39453 6.5039,-4.48242 l 15.29297,0 q 4.57031,0.0879 6.76758,4.48242 l 19.77539,105.46875 q 0,4.39453 -2.90039,4.39453 l -16.875,0 q -2.19727,0 -4.39453,-4.39453 l -0.87891,-4.39453 -18.01758,0 z m 13.88672,-21.97266 -4.74609,-24.60937 -4.83399,24.60937 9.58008,0 z"
         inkscape:connector-curvature="0" />
      <path
         id="path4289"
         style="font-style:normal;font-variant:normal;font-weight:normal;font-stretch:normal;font-size:180px;font-family:Jumpman;-inkscape-font-specification:Jumpman;fill:#0063ff;fill-opacity:1;stroke:#000000;stroke-width:12;stroke-miterlimit:4;stroke-dasharray:none;stroke-opacity:1"
         d="m 438.89725,794.40283 q -4.39453,0 -4.39453,-4.39453 l 0,-105.46875 q 0,-4.39453 4.39453,-4.39453 l 30.76172,0 q 14.58985,0 24.87305,16.78711 10.2832,16.69922 10.2832,40.3418 0,23.64257 -10.2832,40.42968 -10.2832,16.69922 -24.87305,16.69922 l -30.76172,0 z m 17.57813,-92.28515 0,70.3125 13.18359,0 q 5.44922,0 9.31641,-10.28321 3.86719,-10.2832 3.86719,-24.87304 0,-14.58985 -3.86719,-24.87305 -3.86719,-10.2832 -9.31641,-10.2832 l -13.18359,0 z"
         inkscape:connector-curvature="0" />
      <path
         id="path4291"
         style="font-style:normal;font-variant:normal;font-weight:normal;font-stretch:normal;font-size:180px;font-family:Jumpman;-inkscape-font-specification:Jumpman;fill:#0063ff;fill-opacity:1;stroke:#000000;stroke-width:12;stroke-miterlimit:4;stroke-dasharray:none;stroke-opacity:1"
         d="m 535.57694,746.06299 0,26.36719 43.94531,0 q 4.39454,0 4.39454,4.39453 l 0,13.18359 q 0,4.39453 -4.39454,4.39453 l -61.52343,0 q -4.39453,0 -4.39453,-4.39453 l 0,-105.46875 q 0,-4.39453 4.39453,-4.39453 l 61.52343,0 q 4.39454,0 4.39454,4.39453 l 0,13.18359 q 0,4.39454 -4.39454,4.39454 l -43.94531,0 0,26.36718 35.15625,0 q 4.39453,0 4.39453,4.39453 l 0,8.78907 q 0,4.39453 -4.39453,4.39453 l -35.15625,0 z"
         inkscape:connector-curvature="0" />
      <path
         id="path4293"
         style="font-style:normal;font-variant:normal;font-weight:normal;font-stretch:normal;font-size:180px;font-family:Jumpman;-inkscape-font-specification:Jumpman;fill:#0063ff;fill-opacity:1;stroke:#000000;stroke-width:12;stroke-miterlimit:4;stroke-dasharray:none;stroke-opacity:1"
         d="m 711.53397,702.11768 -13.18359,0 0,26.36718 13.18359,0 q 5.44922,0 9.31641,-3.86718 3.86719,-3.86719 3.86719,-9.31641 0,-5.44922 -3.86719,-9.31641 -3.86719,-3.86718 -9.31641,-3.86718 z m -30.76172,92.28515 q -4.39453,0 -4.39453,-4.39453 l 0,-105.46875 q 0,-4.39453 4.39453,-4.39453 l 30.76172,0 q 14.58985,0 24.87305,9.66797 10.2832,9.66797 10.2832,23.29101 0,13.62305 -10.2832,23.29102 -0.43945,0.43945 -0.9668,0.87891 0.52735,0.43945 0.9668,0.8789 10.2832,9.66797 10.2832,23.29102 0,13.62304 -10.2832,23.29101 -10.2832,9.66797 -24.87305,9.66797 l -30.76172,0 z m 30.76172,-21.97265 q 5.44922,0 9.31641,-3.86719 3.86719,-3.86719 3.86719,-9.31641 0,-5.44922 -3.86719,-9.3164 -3.86719,-3.86719 -9.31641,-3.86719 l -13.18359,0 0,26.36719 13.18359,0 z"
         inkscape:connector-curvature="0" />
      <path
         id="path4295"
         style="font-style:normal;font-variant:normal;font-weight:normal;font-stretch:normal;font-size:180px;font-family:Jumpman;-inkscape-font-specification:Jumpman;fill:#0063ff;fill-opacity:1;stroke:#000000;stroke-width:12;stroke-miterlimit:4;stroke-dasharray:none;stroke-opacity:1"
         d="m 803.81913,677.94775 q 20.03906,0 34.18945,17.40235 14.15039,17.31445 14.15039,41.92383 0,24.60937 -14.15039,42.01171 -14.15039,17.31446 -34.18945,17.31446 -20.03906,0 -34.18945,-17.31446 -14.15039,-17.40234 -14.15039,-42.01171 0,-24.60938 14.15039,-41.92383 14.15039,-17.40235 34.18945,-17.40235 z m 21.97266,90.08789 q 1.49414,0.70313 2.19726,0.70313 0.70313,0 0.70313,-0.70313 0,-0.70312 -0.70313,-2.19726 l -9.22851,-28.03711 15.82031,-11.51367 q 2.19726,-2.19727 2.19726,-3.33985 0,-1.05468 -2.19726,-1.05468 l -21.44531,0 -7.11914,-21.97266 q -1.05469,-2.19727 -2.19727,-2.19727 -1.05469,0 -2.19727,2.19727 l -7.11914,21.97266 -21.44531,0 q -2.19726,0 -2.19726,1.14257 0,1.05469 2.10937,3.25196 l 15.9082,11.51367 -9.3164,28.03711 q -0.70313,1.40625 -0.70313,2.19726 0,0.70313 0.79102,0.70313 0.70312,0 2.19726,-0.70313 l 21.97266,-18.54492 21.97266,18.54492 z"
         inkscape:connector-curvature="0" />
      <path
         id="path4297"
         style="font-style:normal;font-variant:normal;font-weight:normal;font-stretch:normal;font-size:180px;font-family:Jumpman;-inkscape-font-specification:Jumpman;fill:#0063ff;fill-opacity:1;stroke:#000000;stroke-width:12;stroke-miterlimit:4;stroke-dasharray:none;stroke-opacity:1"
         d="m 896.10429,702.11768 -13.1836,0 0,26.36718 13.1836,0 q 5.44921,0 9.3164,-3.86718 3.86719,-3.86719 3.86719,-9.31641 0,-5.44922 -3.86719,-9.31641 -3.86719,-3.86718 -9.3164,-3.86718 z m -30.76172,92.28515 q -4.39453,0 -4.39453,-4.39453 l 0,-105.46875 q 0,-4.39453 4.39453,-4.39453 l 30.76172,0 q 14.58984,0 24.87304,9.66797 10.28321,9.66797 10.28321,23.29101 0,13.62305 -10.28321,23.29102 -0.43945,0.43945 -0.96679,0.87891 0.52734,0.43945 0.96679,0.8789 10.28321,9.66797 10.28321,23.29102 0,13.62304 -10.28321,23.29101 -10.2832,9.66797 -24.87304,9.66797 l -30.76172,0 z m 30.76172,-21.97265 q 5.44921,0 9.3164,-3.86719 3.86719,-3.86719 3.86719,-9.31641 0,-5.44922 -3.86719,-9.3164 -3.86719,-3.86719 -9.3164,-3.86719 l -13.1836,0 0,26.36719 13.1836,0 z"
         inkscape:connector-curvature="0" />
      <path
         d="m 147.36405,785.61377 -0.8789,4.39453 q -2.28516,4.39453 -4.39454,4.39453 l -17.57812,0 q -2.19727,0 -2.19727,-4.39453 l 19.77539,-105.46875 q 2.19727,-4.39453 6.50391,-4.48242 l 15.29297,0 q 4.57031,0.0879 6.76758,4.48242 l 19.77539,105.46875 q 0,4.39453 -2.90039,4.39453 l -16.875,0 q -2.19727,0 -4.39453,-4.39453 l -0.87891,-4.39453 -18.01758,0 z m 13.88672,-21.97266 -4.74609,-24.60937 -4.83399,24.60937 9.58008,0 z"
         style="font-style:normal;font-variant:normal;font-weight:normal;font-stretch:normal;font-size:180px;font-family:Jumpman;-inkscape-font-specification:Jumpman;fill:#0063ff;fill-opacity:1;stroke:#ffffff;stroke-width:6;stroke-miterlimit:4;stroke-dasharray:none;stroke-opacity:1"
         id="path4209"
         inkscape:connector-curvature="0" />
      <path
         d="m 234.46366,702.11768 -13.18359,0 0,26.36718 13.18359,0 q 5.44922,0 9.31641,-3.86718 3.86718,-3.86719 3.86718,-9.31641 0,-5.44922 -3.86718,-9.31641 -3.86719,-3.86718 -9.31641,-3.86718 z m 13.18359,59.32617 -0.17578,0 q 0.17578,-1.05469 0.17578,-2.19727 0,-5.44922 -3.86718,-9.3164 -3.86719,-3.86719 -9.31641,-3.86719 l -13.18359,0 0,43.94531 q 0,4.39453 -4.39453,4.39453 l -13.1836,0 q -4.39453,0 -4.39453,-4.39453 l 0,-105.46875 q 0,-4.39453 4.39453,-4.39453 l 30.76172,0 q 14.58984,0 24.87305,9.66797 10.2832,9.66797 10.2832,23.29101 0,13.62305 -10.2832,23.29102 -0.43946,0.43945 -0.9668,0.87891 0.52734,0.43945 0.9668,0.8789 10.2832,9.66797 10.2832,23.29102 l 0,28.56445 q 0,4.39453 -4.39453,4.39453 l -13.18359,0 q -4.39454,0 -4.39454,-4.39453 l 0,-28.56445 z"
         style="font-style:normal;font-variant:normal;font-weight:normal;font-stretch:normal;font-size:180px;font-family:Jumpman;-inkscape-font-specification:Jumpman;fill:#0063ff;fill-opacity:1;stroke:#ffffff;stroke-width:6;stroke-miterlimit:4;stroke-dasharray:none;stroke-opacity:1"
         id="path4211"
         inkscape:connector-curvature="0" />
      <path
         d="m 331.14335,763.64111 13.18359,0 q 4.39453,0 4.39453,4.39453 l 0,4.30665 q -8.78906,22.06054 -26.36718,22.06054 l -8.78907,0 q -14.58984,0 -24.87304,-16.69922 -10.28321,-16.78711 -10.28321,-40.42968 0,-23.64258 10.28321,-40.3418 10.2832,-16.78711 24.87304,-16.78711 l 8.78907,0 q 16.875,0 25.66406,21.97266 l 0,4.39453 q 0,4.39453 -4.39453,4.39453 l -13.1836,0 0,0.17578 q -3.6914,-8.96484 -8.08593,-8.96484 l -8.78907,0 q -5.44922,0 -9.3164,10.2832 -3.86719,10.2832 -3.86719,24.87305 0,14.58984 3.86719,24.87304 3.86718,10.28321 9.3164,10.28321 l 8.78907,0 q 5.09765,0 8.78906,-8.78907 z"
         style="font-style:normal;font-variant:normal;font-weight:normal;font-stretch:normal;font-size:180px;font-family:Jumpman;-inkscape-font-specification:Jumpman;fill:#0063ff;fill-opacity:1;stroke:#ffffff;stroke-width:6;stroke-miterlimit:4;stroke-dasharray:none;stroke-opacity:1"
         id="path4213"
         inkscape:connector-curvature="0" />
      <path
         d="m 382.55936,785.61377 -0.8789,4.39453 q -2.28516,4.39453 -4.39453,4.39453 l -17.57813,0 q -2.19726,0 -2.19726,-4.39453 l 19.77539,-105.46875 q 2.19726,-4.39453 6.5039,-4.48242 l 15.29297,0 q 4.57031,0.0879 6.76758,4.48242 l 19.77539,105.46875 q 0,4.39453 -2.90039,4.39453 l -16.875,0 q -2.19727,0 -4.39453,-4.39453 l -0.87891,-4.39453 -18.01758,0 z m 13.88672,-21.97266 -4.74609,-24.60937 -4.83399,24.60937 9.58008,0 z"
         style="font-style:normal;font-variant:normal;font-weight:normal;font-stretch:normal;font-size:180px;font-family:Jumpman;-inkscape-font-specification:Jumpman;fill:#0063ff;fill-opacity:1;stroke:#ffffff;stroke-width:6;stroke-miterlimit:4;stroke-dasharray:none;stroke-opacity:1"
         id="path4215"
         inkscape:connector-curvature="0" />
      <path
         d="m 438.89725,794.40283 q -4.39453,0 -4.39453,-4.39453 l 0,-105.46875 q 0,-4.39453 4.39453,-4.39453 l 30.76172,0 q 14.58985,0 24.87305,16.78711 10.2832,16.69922 10.2832,40.3418 0,23.64257 -10.2832,40.42968 -10.2832,16.69922 -24.87305,16.69922 l -30.76172,0 z m 17.57813,-92.28515 0,70.3125 13.18359,0 q 5.44922,0 9.31641,-10.28321 3.86719,-10.2832 3.86719,-24.87304 0,-14.58985 -3.86719,-24.87305 -3.86719,-10.2832 -9.31641,-10.2832 l -13.18359,0 z"
         style="font-style:normal;font-variant:normal;font-weight:normal;font-stretch:normal;font-size:180px;font-family:Jumpman;-inkscape-font-specification:Jumpman;fill:#0063ff;fill-opacity:1;stroke:#ffffff;stroke-width:6;stroke-miterlimit:4;stroke-dasharray:none;stroke-opacity:1"
         id="path4217"
         inkscape:connector-curvature="0" />
      <path
         d="m 535.57694,746.06299 0,26.36719 43.94531,0 q 4.39454,0 4.39454,4.39453 l 0,13.18359 q 0,4.39453 -4.39454,4.39453 l -61.52343,0 q -4.39453,0 -4.39453,-4.39453 l 0,-105.46875 q 0,-4.39453 4.39453,-4.39453 l 61.52343,0 q 4.39454,0 4.39454,4.39453 l 0,13.18359 q 0,4.39454 -4.39454,4.39454 l -43.94531,0 0,26.36718 35.15625,0 q 4.39453,0 4.39453,4.39453 l 0,8.78907 q 0,4.39453 -4.39453,4.39453 l -35.15625,0 z"
         style="font-style:normal;font-variant:normal;font-weight:normal;font-stretch:normal;font-size:180px;font-family:Jumpman;-inkscape-font-specification:Jumpman;fill:#0063ff;fill-opacity:1;stroke:#ffffff;stroke-width:6;stroke-miterlimit:4;stroke-dasharray:none;stroke-opacity:1"
         id="path4219"
         inkscape:connector-curvature="0" />
      <path
         d="m 711.53397,702.11768 -13.18359,0 0,26.36718 13.18359,0 q 5.44922,0 9.31641,-3.86718 3.86719,-3.86719 3.86719,-9.31641 0,-5.44922 -3.86719,-9.31641 -3.86719,-3.86718 -9.31641,-3.86718 z m -30.76172,92.28515 q -4.39453,0 -4.39453,-4.39453 l 0,-105.46875 q 0,-4.39453 4.39453,-4.39453 l 30.76172,0 q 14.58985,0 24.87305,9.66797 10.2832,9.66797 10.2832,23.29101 0,13.62305 -10.2832,23.29102 -0.43945,0.43945 -0.9668,0.87891 0.52735,0.43945 0.9668,0.8789 10.2832,9.66797 10.2832,23.29102 0,13.62304 -10.2832,23.29101 -10.2832,9.66797 -24.87305,9.66797 l -30.76172,0 z m 30.76172,-21.97265 q 5.44922,0 9.31641,-3.86719 3.86719,-3.86719 3.86719,-9.31641 0,-5.44922 -3.86719,-9.3164 -3.86719,-3.86719 -9.31641,-3.86719 l -13.18359,0 0,26.36719 13.18359,0 z"
         style="font-style:normal;font-variant:normal;font-weight:normal;font-stretch:normal;font-size:180px;font-family:Jumpman;-inkscape-font-specification:Jumpman;fill:#0063ff;fill-opacity:1;stroke:#ffffff;stroke-width:6;stroke-miterlimit:4;stroke-dasharray:none;stroke-opacity:1"
         id="path4221"
         inkscape:connector-curvature="0" />
      <path
         d="m 803.81913,677.94775 q 20.03906,0 34.18945,17.40235 14.15039,17.31445 14.15039,41.92383 0,24.60937 -14.15039,42.01171 -14.15039,17.31446 -34.18945,17.31446 -20.03906,0 -34.18945,-17.31446 -14.15039,-17.40234 -14.15039,-42.01171 0,-24.60938 14.15039,-41.92383 14.15039,-17.40235 34.18945,-17.40235 z m 21.97266,90.08789 q 1.49414,0.70313 2.19726,0.70313 0.70313,0 0.70313,-0.70313 0,-0.70312 -0.70313,-2.19726 l -9.22851,-28.03711 15.82031,-11.51367 q 2.19726,-2.19727 2.19726,-3.33985 0,-1.05468 -2.19726,-1.05468 l -21.44531,0 -7.11914,-21.97266 q -1.05469,-2.19727 -2.19727,-2.19727 -1.05469,0 -2.19727,2.19727 l -7.11914,21.97266 -21.44531,0 q -2.19726,0 -2.19726,1.14257 0,1.05469 2.10937,3.25196 l 15.9082,11.51367 -9.3164,28.03711 q -0.70313,1.40625 -0.70313,2.19726 0,0.70313 0.79102,0.70313 0.70312,0 2.19726,-0.70313 l 21.97266,-18.54492 21.97266,18.54492 z"
         style="font-style:normal;font-variant:normal;font-weight:normal;font-stretch:normal;font-size:180px;font-family:Jumpman;-inkscape-font-specification:Jumpman;fill:#0063ff;fill-opacity:1;stroke:#ffffff;stroke-width:6;stroke-miterlimit:4;stroke-dasharray:none;stroke-opacity:1"
         id="path4223"
         inkscape:connector-curvature="0" />
      <path
         d="m 896.10429,702.11768 -13.1836,0 0,26.36718 13.1836,0 q 5.44921,0 9.3164,-3.86718 3.86719,-3.86719 3.86719,-9.31641 0,-5.44922 -3.86719,-9.31641 -3.86719,-3.86718 -9.3164,-3.86718 z m -30.76172,92.28515 q -4.39453,0 -4.39453,-4.39453 l 0,-105.46875 q 0,-4.39453 4.39453,-4.39453 l 30.76172,0 q 14.58984,0 24.87304,9.66797 10.28321,9.66797 10.28321,23.29101 0,13.62305 -10.28321,23.29102 -0.43945,0.43945 -0.96679,0.87891 0.52734,0.43945 0.96679,0.8789 10.28321,9.66797 10.28321,23.29102 0,13.62304 -10.28321,23.29101 -10.2832,9.66797 -24.87304,9.66797 l -30.76172,0 z m 30.76172,-21.97265 q 5.44921,0 9.3164,-3.86719 3.86719,-3.86719 3.86719,-9.31641 0,-5.44922 -3.86719,-9.3164 -3.86719,-3.86719 -9.3164,-3.86719 l -13.1836,0 0,26.36719 13.1836,0 z"
         style="font-style:normal;font-variant:normal;font-weight:normal;font-stretch:normal;font-size:180px;font-family:Jumpman;-inkscape-font-specification:Jumpman;fill:#0063ff;fill-opacity:1;stroke:#ffffff;stroke-width:6;stroke-miterlimit:4;stroke-dasharray:none;stroke-opacity:1"
         id="path4225"
         inkscape:connector-curvature="0" />
    </g>
    <g
       id="g4370"
       inkscape:export-xdpi="224.67638"
       inkscape:export-ydpi="224.67638">
      <g
         id="g4345"
         style="font-style:normal;font-weight:normal;font-size:medium;line-height:125%;font-family:sans-serif;letter-spacing:0px;word-spacing:0px;fill:none;fill-opacity:1;stroke:#000000;stroke-width:12;stroke-linecap:round;stroke-linejoin:round;stroke-miterlimit:4;stroke-dasharray:none;stroke-opacity:1">
        <path
           id="path4304"
           style="font-style:normal;font-variant:normal;font-weight:normal;font-stretch:normal;font-size:180px;font-family:Jumpman;-inkscape-font-specification:Jumpman;letter-spacing:32px;fill:none;stroke:#000000;stroke-width:12;stroke-linecap:round;stroke-linejoin:round;stroke-miterlimit:4;stroke-dasharray:none;stroke-opacity:1"
           d="m 146.2592,620.01971 -0.87891,4.39454 q -2.28515,4.39453 -4.39453,4.39453 l -17.57812,0 q -2.19727,0 -2.19727,-4.39453 L 140.98576,518.9455 q 2.19727,-4.39454 6.50391,-4.48243 l 15.29297,0 q 4.57031,0.0879 6.76758,4.48243 l 19.77539,105.46875 q 0,4.39453 -2.90039,4.39453 l -16.875,0 q -2.19727,0 -4.39453,-4.39453 l -0.87891,-4.39454 -18.01758,0 z m 13.88672,-21.97265 -4.74609,-24.60938 -4.83399,24.60938 9.58008,0 z"
           inkscape:connector-curvature="0" />
      </g>
      <g
         id="g4357">
        <path
           inkscape:connector-curvature="0"
           d="m 146.2592,620.01971 -0.87891,4.39454 q -2.28515,4.39453 -4.39453,4.39453 l -17.57812,0 q -2.19727,0 -2.19727,-4.39453 L 140.98576,518.9455 q 2.19727,-4.39454 6.50391,-4.48243 l 15.29297,0 q 4.57031,0.0879 6.76758,4.48243 l 19.77539,105.46875 q 0,4.39453 -2.90039,4.39453 l -16.875,0 q -2.19727,0 -4.39453,-4.39453 l -0.87891,-4.39454 -18.01758,0 z m 13.88672,-21.97265 -4.74609,-24.60938 -4.83399,24.60938 9.58008,0 z"
           style="font-style:normal;font-variant:normal;font-weight:normal;font-stretch:normal;font-size:180px;line-height:125%;font-family:Jumpman;-inkscape-font-specification:Jumpman;letter-spacing:32px;word-spacing:0px;fill:#0063ff;fill-opacity:1;stroke:#ffffff;stroke-width:5;stroke-linecap:round;stroke-linejoin:round;stroke-miterlimit:4;stroke-dasharray:none;stroke-opacity:1"
           id="path4324" />
      </g>
    </g>
    <g
       id="g4376"
       inkscape:export-xdpi="218.838"
       inkscape:export-ydpi="218.838">
      <path
         d="m 265.35881,536.52362 -13.18359,0 0,26.36719 13.18359,0 q 5.44922,0 9.31641,-3.86719 3.86718,-3.86719 3.86718,-9.31641 0,-5.44921 -3.86718,-9.3164 -3.86719,-3.86719 -9.31641,-3.86719 z m 13.18359,59.32617 -0.17578,0 q 0.17578,-1.05469 0.17578,-2.19726 0,-5.44922 -3.86718,-9.31641 -3.86719,-3.86719 -9.31641,-3.86719 l -13.18359,0 0,43.94532 q 0,4.39453 -4.39453,4.39453 l -13.1836,0 q -4.39453,0 -4.39453,-4.39453 l 0,-105.46875 q 0,-4.39454 4.39453,-4.39454 l 30.76172,0 q 14.58984,0 24.87305,9.66797 10.2832,9.66797 10.2832,23.29102 0,13.62305 -10.2832,23.29101 -0.43946,0.43946 -0.9668,0.87891 0.52734,0.43945 0.9668,0.87891 10.2832,9.66797 10.2832,23.29101 l 0,28.56446 q 0,4.39453 -4.39453,4.39453 l -13.18359,0 q -4.39454,0 -4.39454,-4.39453 l 0,-28.56446 z"
         style="font-style:normal;font-variant:normal;font-weight:normal;font-stretch:normal;font-size:180px;line-height:125%;font-family:Jumpman;-inkscape-font-specification:Jumpman;letter-spacing:32px;word-spacing:0px;fill:none;fill-opacity:1;stroke:#000000;stroke-width:12;stroke-linecap:round;stroke-linejoin:round;stroke-miterlimit:4;stroke-dasharray:none;stroke-opacity:1"
         id="path4306"
         inkscape:connector-curvature="0" />
      <path
         id="path4326"
         style="font-style:normal;font-variant:normal;font-weight:normal;font-stretch:normal;font-size:180px;line-height:125%;font-family:Jumpman;-inkscape-font-specification:Jumpman;letter-spacing:32px;word-spacing:0px;fill:#0063ff;fill-opacity:1;stroke:#ffffff;stroke-width:5;stroke-linecap:round;stroke-linejoin:round;stroke-miterlimit:4;stroke-dasharray:none;stroke-opacity:1"
         d="m 265.35881,536.52362 -13.18359,0 0,26.36719 13.18359,0 q 5.44922,0 9.31641,-3.86719 3.86718,-3.86719 3.86718,-9.31641 0,-5.44921 -3.86718,-9.3164 -3.86719,-3.86719 -9.31641,-3.86719 z m 13.18359,59.32617 -0.17578,0 q 0.17578,-1.05469 0.17578,-2.19726 0,-5.44922 -3.86718,-9.31641 -3.86719,-3.86719 -9.31641,-3.86719 l -13.18359,0 0,43.94532 q 0,4.39453 -4.39453,4.39453 l -13.1836,0 q -4.39453,0 -4.39453,-4.39453 l 0,-105.46875 q 0,-4.39454 4.39453,-4.39454 l 30.76172,0 q 14.58984,0 24.87305,9.66797 10.2832,9.66797 10.2832,23.29102 0,13.62305 -10.2832,23.29101 -0.43946,0.43946 -0.9668,0.87891 0.52734,0.43945 0.9668,0.87891 10.2832,9.66797 10.2832,23.29101 l 0,28.56446 q 0,4.39453 -4.39453,4.39453 l -13.18359,0 q -4.39454,0 -4.39454,-4.39453 l 0,-28.56446 z"
         inkscape:connector-curvature="0" />
    </g>
    <g
       id="g4380"
       inkscape:export-xdpi="218.838"
       inkscape:export-ydpi="218.838">
      <path
         d="m 394.0385,598.04706 13.18359,0 q 4.39453,0 4.39453,4.39453 l 0,4.30664 q -8.78906,22.06055 -26.36718,22.06055 l -8.78907,0 q -14.58984,0 -24.87304,-16.69922 -10.28321,-16.78711 -10.28321,-40.42969 0,-23.64258 10.28321,-40.3418 10.2832,-16.78711 24.87304,-16.78711 l 8.78907,0 q 16.875,0 25.66406,21.97266 l 0,4.39453 q 0,4.39453 -4.39453,4.39453 l -13.1836,0 0,0.17578 q -3.6914,-8.96484 -8.08593,-8.96484 l -8.78907,0 q -5.44922,0 -9.3164,10.2832 -3.86719,10.28321 -3.86719,24.87305 0,14.58984 3.86719,24.87305 3.86718,10.2832 9.3164,10.2832 l 8.78907,0 q 5.09765,0 8.78906,-8.78906 z"
         style="font-style:normal;font-variant:normal;font-weight:normal;font-stretch:normal;font-size:180px;line-height:125%;font-family:Jumpman;-inkscape-font-specification:Jumpman;letter-spacing:32px;word-spacing:0px;fill:none;fill-opacity:1;stroke:#000000;stroke-width:12;stroke-linecap:round;stroke-linejoin:round;stroke-miterlimit:4;stroke-dasharray:none;stroke-opacity:1"
         id="path4308"
         inkscape:connector-curvature="0" />
      <path
         id="path4328"
         style="font-style:normal;font-variant:normal;font-weight:normal;font-stretch:normal;font-size:180px;line-height:125%;font-family:Jumpman;-inkscape-font-specification:Jumpman;letter-spacing:32px;word-spacing:0px;fill:#0063ff;fill-opacity:1;stroke:#ffffff;stroke-width:5;stroke-linecap:round;stroke-linejoin:round;stroke-miterlimit:4;stroke-dasharray:none;stroke-opacity:1"
         d="m 394.0385,598.04706 13.18359,0 q 4.39453,0 4.39453,4.39453 l 0,4.30664 q -8.78906,22.06055 -26.36718,22.06055 l -8.78907,0 q -14.58984,0 -24.87304,-16.69922 -10.28321,-16.78711 -10.28321,-40.42969 0,-23.64258 10.28321,-40.3418 10.2832,-16.78711 24.87304,-16.78711 l 8.78907,0 q 16.875,0 25.66406,21.97266 l 0,4.39453 q 0,4.39453 -4.39453,4.39453 l -13.1836,0 0,0.17578 q -3.6914,-8.96484 -8.08593,-8.96484 l -8.78907,0 q -5.44922,0 -9.3164,10.2832 -3.86719,10.28321 -3.86719,24.87305 0,14.58984 3.86719,24.87305 3.86718,10.2832 9.3164,10.2832 l 8.78907,0 q 5.09765,0 8.78906,-8.78906 z"
         inkscape:connector-curvature="0" />
    </g>
    <g
       id="g4384">
      <path
         d="m 477.45451,620.01971 -0.8789,4.39454 q -2.28516,4.39453 -4.39453,4.39453 l -17.57813,0 q -2.19726,0 -2.19726,-4.39453 L 472.18108,518.9455 q 2.19726,-4.39454 6.5039,-4.48243 l 15.29297,0 q 4.57031,0.0879 6.76758,4.48243 l 19.77539,105.46875 q 0,4.39453 -2.90039,4.39453 l -16.875,0 q -2.19727,0 -4.39453,-4.39453 l -0.87891,-4.39454 -18.01758,0 z m 13.88672,-21.97265 -4.74609,-24.60938 -4.83399,24.60938 9.58008,0 z"
         style="font-style:normal;font-variant:normal;font-weight:normal;font-stretch:normal;font-size:180px;line-height:125%;font-family:Jumpman;-inkscape-font-specification:Jumpman;letter-spacing:32px;word-spacing:0px;fill:none;fill-opacity:1;stroke:#000000;stroke-width:12;stroke-linecap:round;stroke-linejoin:round;stroke-miterlimit:4;stroke-dasharray:none;stroke-opacity:1"
         id="path4310"
         inkscape:connector-curvature="0" />
      <path
         id="path4330"
         style="font-style:normal;font-variant:normal;font-weight:normal;font-stretch:normal;font-size:180px;line-height:125%;font-family:Jumpman;-inkscape-font-specification:Jumpman;letter-spacing:32px;word-spacing:0px;fill:#0063ff;fill-opacity:1;stroke:#ffffff;stroke-width:5;stroke-linecap:round;stroke-linejoin:round;stroke-miterlimit:4;stroke-dasharray:none;stroke-opacity:1"
         d="m 477.45451,620.01971 -0.8789,4.39454 q -2.28516,4.39453 -4.39453,4.39453 l -17.57813,0 q -2.19726,0 -2.19726,-4.39453 L 472.18108,518.9455 q 2.19726,-4.39454 6.5039,-4.48243 l 15.29297,0 q 4.57031,0.0879 6.76758,4.48243 l 19.77539,105.46875 q 0,4.39453 -2.90039,4.39453 l -16.875,0 q -2.19727,0 -4.39453,-4.39453 l -0.87891,-4.39454 -18.01758,0 z m 13.88672,-21.97265 -4.74609,-24.60938 -4.83399,24.60938 9.58008,0 z"
         inkscape:connector-curvature="0" />
    </g>
    <g
       id="g4388"
       inkscape:export-xdpi="218.838"
       inkscape:export-ydpi="218.838">
      <path
         d="m 565.7924,628.80878 q -4.39453,0 -4.39453,-4.39453 l 0,-105.46875 q 0,-4.39454 4.39453,-4.39454 l 30.76172,0 q 14.58985,0 24.87305,16.78711 10.2832,16.69922 10.2832,40.3418 0,23.64258 -10.2832,40.42969 -10.2832,16.69922 -24.87305,16.69922 l -30.76172,0 z m 17.57813,-92.28516 0,70.3125 13.18359,0 q 5.44922,0 9.31641,-10.2832 3.86719,-10.28321 3.86719,-24.87305 0,-14.58984 -3.86719,-24.87305 -3.86719,-10.2832 -9.31641,-10.2832 l -13.18359,0 z"
         style="font-style:normal;font-variant:normal;font-weight:normal;font-stretch:normal;font-size:180px;line-height:125%;font-family:Jumpman;-inkscape-font-specification:Jumpman;letter-spacing:32px;word-spacing:0px;fill:none;fill-opacity:1;stroke:#000000;stroke-width:12;stroke-linecap:round;stroke-linejoin:round;stroke-miterlimit:4;stroke-dasharray:none;stroke-opacity:1"
         id="path4312"
         inkscape:connector-curvature="0" />
      <path
         id="path4332"
         style="font-style:normal;font-variant:normal;font-weight:normal;font-stretch:normal;font-size:180px;line-height:125%;font-family:Jumpman;-inkscape-font-specification:Jumpman;letter-spacing:32px;word-spacing:0px;fill:#0063ff;fill-opacity:1;stroke:#ffffff;stroke-width:5;stroke-linecap:round;stroke-linejoin:round;stroke-miterlimit:4;stroke-dasharray:none;stroke-opacity:1"
         d="m 565.7924,628.80878 q -4.39453,0 -4.39453,-4.39453 l 0,-105.46875 q 0,-4.39454 4.39453,-4.39454 l 30.76172,0 q 14.58985,0 24.87305,16.78711 10.2832,16.69922 10.2832,40.3418 0,23.64258 -10.2832,40.42969 -10.2832,16.69922 -24.87305,16.69922 l -30.76172,0 z m 17.57813,-92.28516 0,70.3125 13.18359,0 q 5.44922,0 9.31641,-10.2832 3.86719,-10.28321 3.86719,-24.87305 0,-14.58984 -3.86719,-24.87305 -3.86719,-10.2832 -9.31641,-10.2832 l -13.18359,0 z"
         inkscape:connector-curvature="0" />
    </g>
    <g
       id="g4392"
       inkscape:export-xdpi="218.838"
       inkscape:export-ydpi="218.838">
      <path
         d="m 694.47209,580.46893 0,26.36719 43.94531,0 q 4.39454,0 4.39454,4.39453 l 0,13.1836 q 0,4.39453 -4.39454,4.39453 l -61.52343,0 q -4.39453,0 -4.39453,-4.39453 l 0,-105.46875 q 0,-4.39454 4.39453,-4.39454 l 61.52343,0 q 4.39454,0 4.39454,4.39454 l 0,13.18359 q 0,4.39453 -4.39454,4.39453 l -43.94531,0 0,26.36719 35.15625,0 q 4.39453,0 4.39453,4.39453 l 0,8.78906 q 0,4.39453 -4.39453,4.39453 l -35.15625,0 z"
         style="font-style:normal;font-variant:normal;font-weight:normal;font-stretch:normal;font-size:180px;line-height:125%;font-family:Jumpman;-inkscape-font-specification:Jumpman;letter-spacing:32px;word-spacing:0px;fill:none;fill-opacity:1;stroke:#000000;stroke-width:12;stroke-linecap:round;stroke-linejoin:round;stroke-miterlimit:4;stroke-dasharray:none;stroke-opacity:1"
         id="path4314"
         inkscape:connector-curvature="0" />
      <path
         id="path4334"
         style="font-style:normal;font-variant:normal;font-weight:normal;font-stretch:normal;font-size:180px;line-height:125%;font-family:Jumpman;-inkscape-font-specification:Jumpman;letter-spacing:32px;word-spacing:0px;fill:#0063ff;fill-opacity:1;stroke:#ffffff;stroke-width:5;stroke-linecap:round;stroke-linejoin:round;stroke-miterlimit:4;stroke-dasharray:none;stroke-opacity:1"
         d="m 694.47209,580.46893 0,26.36719 43.94531,0 q 4.39454,0 4.39454,4.39453 l 0,13.1836 q 0,4.39453 -4.39454,4.39453 l -61.52343,0 q -4.39453,0 -4.39453,-4.39453 l 0,-105.46875 q 0,-4.39454 4.39453,-4.39454 l 61.52343,0 q 4.39454,0 4.39454,4.39454 l 0,13.18359 q 0,4.39453 -4.39454,4.39453 l -43.94531,0 0,26.36719 35.15625,0 q 4.39453,0 4.39453,4.39453 l 0,8.78906 q 0,4.39453 -4.39453,4.39453 l -35.15625,0 z"
         inkscape:connector-curvature="0" />
    </g>
    <g
       id="g4396"
       inkscape:export-xdpi="218.838"
       inkscape:export-ydpi="218.838">
      <path
         d="m 934.42912,536.52362 -13.18359,0 0,26.36719 13.18359,0 q 5.44922,0 9.31641,-3.86719 3.86719,-3.86719 3.86719,-9.31641 0,-5.44921 -3.86719,-9.3164 -3.86719,-3.86719 -9.31641,-3.86719 z m -30.76172,92.28516 q -4.39453,0 -4.39453,-4.39453 l 0,-105.46875 q 0,-4.39454 4.39453,-4.39454 l 30.76172,0 q 14.58985,0 24.87305,9.66797 10.2832,9.66797 10.2832,23.29102 0,13.62305 -10.2832,23.29101 -0.43945,0.43946 -0.9668,0.87891 0.52735,0.43945 0.9668,0.87891 10.2832,9.66797 10.2832,23.29101 0,13.62305 -10.2832,23.29102 -10.2832,9.66797 -24.87305,9.66797 l -30.76172,0 z m 30.76172,-21.97266 q 5.44922,0 9.31641,-3.86719 3.86719,-3.86718 3.86719,-9.3164 0,-5.44922 -3.86719,-9.31641 -3.86719,-3.86719 -9.31641,-3.86719 l -13.18359,0 0,26.36719 13.18359,0 z"
         style="font-style:normal;font-variant:normal;font-weight:normal;font-stretch:normal;font-size:180px;line-height:125%;font-family:Jumpman;-inkscape-font-specification:Jumpman;letter-spacing:32px;word-spacing:0px;fill:none;fill-opacity:1;stroke:#000000;stroke-width:12;stroke-linecap:round;stroke-linejoin:round;stroke-miterlimit:4;stroke-dasharray:none;stroke-opacity:1"
         id="path4316"
         inkscape:connector-curvature="0" />
      <path
         id="path4336"
         style="font-style:normal;font-variant:normal;font-weight:normal;font-stretch:normal;font-size:180px;line-height:125%;font-family:Jumpman;-inkscape-font-specification:Jumpman;letter-spacing:32px;word-spacing:0px;fill:#0063ff;fill-opacity:1;stroke:#ffffff;stroke-width:5;stroke-linecap:round;stroke-linejoin:round;stroke-miterlimit:4;stroke-dasharray:none;stroke-opacity:1"
         d="m 934.42912,536.52362 -13.18359,0 0,26.36719 13.18359,0 q 5.44922,0 9.31641,-3.86719 3.86719,-3.86719 3.86719,-9.31641 0,-5.44921 -3.86719,-9.3164 -3.86719,-3.86719 -9.31641,-3.86719 z m -30.76172,92.28516 q -4.39453,0 -4.39453,-4.39453 l 0,-105.46875 q 0,-4.39454 4.39453,-4.39454 l 30.76172,0 q 14.58985,0 24.87305,9.66797 10.2832,9.66797 10.2832,23.29102 0,13.62305 -10.2832,23.29101 -0.43945,0.43946 -0.9668,0.87891 0.52735,0.43945 0.9668,0.87891 10.2832,9.66797 10.2832,23.29101 0,13.62305 -10.2832,23.29102 -10.2832,9.66797 -24.87305,9.66797 l -30.76172,0 z m 30.76172,-21.97266 q 5.44922,0 9.31641,-3.86719 3.86719,-3.86718 3.86719,-9.3164 0,-5.44922 -3.86719,-9.31641 -3.86719,-3.86719 -9.31641,-3.86719 l -13.18359,0 0,26.36719 13.18359,0 z"
         inkscape:connector-curvature="0" />
    </g>
    <g
       id="g4400"
       inkscape:export-xdpi="218.838"
       inkscape:export-ydpi="218.838">
      <path
         d="m 1058.7143,512.3537 q 20.039,0 34.1894,17.40234 14.1504,17.31446 14.1504,41.92383 0,24.60938 -14.1504,42.01172 -14.1504,17.31445 -34.1894,17.31445 -20.0391,0 -34.1895,-17.31445 -14.1504,-17.40234 -14.1504,-42.01172 0,-24.60937 14.1504,-41.92383 14.1504,-17.40234 34.1895,-17.40234 z m 21.9726,90.08789 q 1.4942,0.70312 2.1973,0.70312 0.7031,0 0.7031,-0.70312 0,-0.70313 -0.7031,-2.19727 l -9.2285,-28.03711 15.8203,-11.51367 q 2.1973,-2.19726 2.1973,-3.33984 0,-1.05469 -2.1973,-1.05469 l -21.4453,0 -7.1192,-21.97266 q -1.0546,-2.19726 -2.1972,-2.19726 -1.0547,0 -2.1973,2.19726 l -7.1191,21.97266 -21.4453,0 q -2.1973,0 -2.1973,1.14258 0,1.05469 2.1094,3.25195 l 15.9082,11.51367 -9.3164,28.03711 q -0.7032,1.40625 -0.7032,2.19727 0,0.70312 0.7911,0.70312 0.7031,0 2.1972,-0.70312 l 21.9727,-18.54492 21.9726,18.54492 z"
         style="font-style:normal;font-variant:normal;font-weight:normal;font-stretch:normal;font-size:180px;line-height:125%;font-family:Jumpman;-inkscape-font-specification:Jumpman;letter-spacing:32px;word-spacing:0px;fill:none;fill-opacity:1;stroke:#000000;stroke-width:12;stroke-linecap:round;stroke-linejoin:round;stroke-miterlimit:4;stroke-dasharray:none;stroke-opacity:1"
         id="path4318"
         inkscape:connector-curvature="0" />
      <path
         id="path4338"
         style="font-style:normal;font-variant:normal;font-weight:normal;font-stretch:normal;font-size:180px;line-height:125%;font-family:Jumpman;-inkscape-font-specification:Jumpman;letter-spacing:32px;word-spacing:0px;fill:#0063ff;fill-opacity:1;stroke:#ffffff;stroke-width:5;stroke-linecap:round;stroke-linejoin:round;stroke-miterlimit:4;stroke-dasharray:none;stroke-opacity:1"
         d="m 1058.7143,512.3537 q 20.039,0 34.1894,17.40234 14.1504,17.31446 14.1504,41.92383 0,24.60938 -14.1504,42.01172 -14.1504,17.31445 -34.1894,17.31445 -20.0391,0 -34.1895,-17.31445 -14.1504,-17.40234 -14.1504,-42.01172 0,-24.60937 14.1504,-41.92383 14.1504,-17.40234 34.1895,-17.40234 z m 21.9726,90.08789 q 1.4942,0.70312 2.1973,0.70312 0.7031,0 0.7031,-0.70312 0,-0.70313 -0.7031,-2.19727 l -9.2285,-28.03711 15.8203,-11.51367 q 2.1973,-2.19726 2.1973,-3.33984 0,-1.05469 -2.1973,-1.05469 l -21.4453,0 -7.1192,-21.97266 q -1.0546,-2.19726 -2.1972,-2.19726 -1.0547,0 -2.1973,2.19726 l -7.1191,21.97266 -21.4453,0 q -2.1973,0 -2.1973,1.14258 0,1.05469 2.1094,3.25195 l 15.9082,11.51367 -9.3164,28.03711 q -0.7032,1.40625 -0.7032,2.19727 0,0.70312 0.7911,0.70312 0.7031,0 2.1972,-0.70312 l 21.9727,-18.54492 21.9726,18.54492 z"
         inkscape:connector-curvature="0" />
    </g>
    <g
       id="g4404">
      <path
         d="m 1182.9994,536.52362 -13.1836,0 0,26.36719 13.1836,0 q 5.4493,0 9.3164,-3.86719 3.8672,-3.86719 3.8672,-9.31641 0,-5.44921 -3.8672,-9.3164 -3.8671,-3.86719 -9.3164,-3.86719 z m -30.7617,92.28516 q -4.3945,0 -4.3945,-4.39453 l 0,-105.46875 q 0,-4.39454 4.3945,-4.39454 l 30.7617,0 q 14.5899,0 24.8731,9.66797 10.2832,9.66797 10.2832,23.29102 0,13.62305 -10.2832,23.29101 -0.4395,0.43946 -0.9668,0.87891 0.5273,0.43945 0.9668,0.87891 10.2832,9.66797 10.2832,23.29101 0,13.62305 -10.2832,23.29102 -10.2832,9.66797 -24.8731,9.66797 l -30.7617,0 z m 30.7617,-21.97266 q 5.4493,0 9.3164,-3.86719 3.8672,-3.86718 3.8672,-9.3164 0,-5.44922 -3.8672,-9.31641 -3.8671,-3.86719 -9.3164,-3.86719 l -13.1836,0 0,26.36719 13.1836,0 z"
         style="font-style:normal;font-variant:normal;font-weight:normal;font-stretch:normal;font-size:180px;line-height:125%;font-family:Jumpman;-inkscape-font-specification:Jumpman;letter-spacing:32px;word-spacing:0px;fill:none;fill-opacity:1;stroke:#000000;stroke-width:12;stroke-linecap:round;stroke-linejoin:round;stroke-miterlimit:4;stroke-dasharray:none;stroke-opacity:1"
         id="path4320"
         inkscape:connector-curvature="0" />
      <path
         id="path4340"
         style="font-style:normal;font-variant:normal;font-weight:normal;font-stretch:normal;font-size:180px;line-height:125%;font-family:Jumpman;-inkscape-font-specification:Jumpman;letter-spacing:32px;word-spacing:0px;fill:#0063ff;fill-opacity:1;stroke:#ffffff;stroke-width:5;stroke-linecap:round;stroke-linejoin:round;stroke-miterlimit:4;stroke-dasharray:none;stroke-opacity:1"
         d="m 1182.9994,536.52362 -13.1836,0 0,26.36719 13.1836,0 q 5.4493,0 9.3164,-3.86719 3.8672,-3.86719 3.8672,-9.31641 0,-5.44921 -3.8672,-9.3164 -3.8671,-3.86719 -9.3164,-3.86719 z m -30.7617,92.28516 q -4.3945,0 -4.3945,-4.39453 l 0,-105.46875 q 0,-4.39454 4.3945,-4.39454 l 30.7617,0 q 14.5899,0 24.8731,9.66797 10.2832,9.66797 10.2832,23.29102 0,13.62305 -10.2832,23.29101 -0.4395,0.43946 -0.9668,0.87891 0.5273,0.43945 0.9668,0.87891 10.2832,9.66797 10.2832,23.29101 0,13.62305 -10.2832,23.29102 -10.2832,9.66797 -24.8731,9.66797 l -30.7617,0 z m 30.7617,-21.97266 q 5.4493,0 9.3164,-3.86719 3.8672,-3.86718 3.8672,-9.3164 0,-5.44922 -3.8672,-9.31641 -3.8671,-3.86719 -9.3164,-3.86719 l -13.1836,0 0,26.36719 13.1836,0 z"
         inkscape:connector-curvature="0" />
    </g>
  </g>
</svg>
